Galle-Regular.ufo
<glyph name="exclam" format="2">
	<unicode hex="0021"/>
	<advance width="109"/>
	<outline>
		<contour>
			<point x="36" y="436" type="line" smooth="yes"/>
			<point x="36" y="446"/>
			<point x="41" y="457"/>
			<point x="54" y="457" type="curve" smooth="yes"/>
			<point x="67" y="457"/>
			<point x="73" y="446"/>
			<point x="73" y="436" type="curve" smooth="yes"/>
			<point x="73" y="115" type="line" smooth="yes"/>
			<point x="73" y="98"/>
			<point x="68" y="86"/>
			<point x="54" y="86" type="curve" smooth="yes"/>
			<point x="41" y="86"/>
			<point x="36" y="98"/>
			<point x="36" y="115" type="curve" smooth="yes"/>
		</contour>
		<component base="period"/>
	</outline>
</glyph>
<glyph name="numbersign" format="2">
	<unicode hex="0023"/>
	<advance width="395"/>
	<outline>
		<contour>
			<point x="270" y="220" type="curve"/>
			<point x="159" y="220" type="line"/>
			<point x="147" y="183"/>
			<point x="136" y="150"/>
			<point x="125" y="114" type="curve"/>
			<point x="237" y="114" type="line"/>
			<point x="248" y="150"/>
			<point x="259" y="184"/>
		</contour>
		<contour>
			<point x="307" y="220" type="line"/>
			<point x="295" y="183"/>
			<point x="285" y="150"/>
			<point x="273" y="114" type="curve"/>
			<point x="320" y="114" type="line" smooth="yes"/>
			<point x="331" y="114"/>
			<point x="339" y="106"/>
			<point x="339" y="96" type="curve" smooth="yes"/>
			<point x="339" y="86"/>
			<point x="330" y="77"/>
			<point x="320" y="77" type="curve" smooth="yes"/>
			<point x="262" y="77" type="line"/>
			<point x="254" y="54"/>
			<point x="247" y="29"/>
			<point x="238" y="2" type="curve" smooth="yes"/>
			<point x="235" y="-8"/>
			<point x="228" y="-12"/>
			<point x="220" y="-12" type="curve" smooth="yes"/>
			<point x="212" y="-12"/>
			<point x="204" y="-6"/>
			<point x="204" y="5" type="curve" smooth="yes"/>
			<point x="204" y="7"/>
			<point x="204" y="10"/>
			<point x="205" y="12" type="curve" smooth="yes"/>
			<point x="212" y="36"/>
			<point x="219" y="57"/>
			<point x="225" y="77" type="curve"/>
			<point x="114" y="77" type="line"/>
			<point x="106" y="54"/>
			<point x="99" y="29"/>
			<point x="90" y="2" type="curve" smooth="yes"/>
			<point x="87" y="-8"/>
			<point x="80" y="-12"/>
			<point x="72" y="-12" type="curve" smooth="yes"/>
			<point x="64" y="-12"/>
			<point x="56" y="-6"/>
			<point x="56" y="5" type="curve" smooth="yes"/>
			<point x="56" y="7"/>
			<point x="56" y="10"/>
			<point x="57" y="12" type="curve" smooth="yes"/>
			<point x="64" y="36"/>
			<point x="71" y="57"/>
			<point x="77" y="77" type="curve"/>
			<point x="35" y="77" type="line" smooth="yes"/>
			<point x="25" y="77"/>
			<point x="17" y="86"/>
			<point x="17" y="96" type="curve" smooth="yes"/>
			<point x="17" y="106"/>
			<point x="25" y="114"/>
			<point x="35" y="114" type="curve" smooth="yes"/>
			<point x="89" y="114" type="line"/>
			<point x="100" y="150"/>
			<point x="110" y="184"/>
			<point x="122" y="220" type="curve"/>
			<point x="75" y="220" type="line" smooth="yes"/>
			<point x="65" y="220"/>
			<point x="56" y="228"/>
			<point x="56" y="238" type="curve" smooth="yes"/>
			<point x="56" y="248"/>
			<point x="64" y="257"/>
			<point x="75" y="257" type="curve" smooth="yes"/>
			<point x="133" y="257" type="line"/>
			<point x="141" y="280"/>
			<point x="148" y="304"/>
			<point x="157" y="331" type="curve" smooth="yes"/>
			<point x="160" y="341"/>
			<point x="167" y="345"/>
			<point x="175" y="345" type="curve" smooth="yes"/>
			<point x="183" y="345"/>
			<point x="191" y="339"/>
			<point x="191" y="328" type="curve" smooth="yes"/>
			<point x="191" y="326"/>
			<point x="191" y="323"/>
			<point x="190" y="320" type="curve" smooth="yes"/>
			<point x="183" y="298"/>
			<point x="177" y="277"/>
			<point x="170" y="257" type="curve"/>
			<point x="281" y="257" type="line"/>
			<point x="289" y="280"/>
			<point x="296" y="304"/>
			<point x="305" y="331" type="curve" smooth="yes"/>
			<point x="308" y="341"/>
			<point x="315" y="345"/>
			<point x="323" y="345" type="curve" smooth="yes"/>
			<point x="331" y="345"/>
			<point x="340" y="339"/>
			<point x="340" y="328" type="curve" smooth="yes"/>
			<point x="340" y="326"/>
			<point x="340" y="323"/>
			<point x="338" y="320" type="curve" smooth="yes"/>
			<point x="331" y="298"/>
			<point x="325" y="277"/>
			<point x="319" y="257" type="curve"/>
			<point x="360" y="257" type="line" smooth="yes"/>
			<point x="370" y="257"/>
			<point x="378" y="248"/>
			<point x="378" y="238" type="curve" smooth="yes"/>
			<point x="378" y="228"/>
			<point x="370" y="220"/>
			<point x="360" y="220" type="curve" smooth="yes"/>
		</contour>
	</outline>
</glyph>
<glyph name="quotesingle" format="2">
	<unicode hex="0027"/>
	<advance width="117"/>
	<outline>
		<contour>
			<point x="90" y="810" type="curve" smooth="yes"/>
			<point x="90" y="779"/>
			<point x="75" y="757"/>
			<point x="58" y="739" type="curve"/>
			<point x="42" y="758"/>
			<point x="26" y="779"/>
			<point x="26" y="810" type="curve" smooth="yes"/>
			<point x="26" y="828"/>
			<point x="40" y="844"/>
			<point x="58" y="844" type="curve" smooth="yes"/>
			<point x="76" y="844"/>
			<point x="90" y="828"/>
		</contour>
	</outline>
</glyph>
<glyph name="parenleft" format="2">
	<unicode hex="0028"/>
	<advance width="192"/>
	<outline>
		<contour>
			<point x="54" y="169" type="curve" smooth="yes"/>
			<point x="54" y="309"/>
			<point x="102" y="430"/>
			<point x="171" y="507" type="curve" smooth="yes"/>
			<point x="175" y="512"/>
			<point x="177" y="519"/>
			<point x="177" y="524" type="curve" smooth="yes"/>
			<point x="177" y="535"/>
			<point x="170" y="541"/>
			<point x="159" y="541" type="curve" smooth="yes"/>
			<point x="154" y="541"/>
			<point x="147" y="538"/>
			<point x="143" y="533" type="curve" smooth="yes"/>
			<point x="72" y="451"/>
			<point x="16" y="320"/>
			<point x="16" y="169" type="curve" smooth="yes"/>
			<point x="16" y="19"/>
			<point x="72" y="-112"/>
			<point x="143" y="-195" type="curve" smooth="yes"/>
			<point x="147" y="-199"/>
			<point x="154" y="-203"/>
			<point x="159" y="-203" type="curve" smooth="yes"/>
			<point x="170" y="-203"/>
			<point x="177" y="-196"/>
			<point x="177" y="-186" type="curve" smooth="yes"/>
			<point x="177" y="-180"/>
			<point x="175" y="-174"/>
			<point x="171" y="-169" type="curve" smooth="yes"/>
			<point x="102" y="-92"/>
			<point x="54" y="30"/>
		</contour>
		<contour>
			<point x="54" y="169" type="curve" smooth="yes"/>
			<point x="54" y="309"/>
			<point x="102" y="430"/>
			<point x="171" y="507" type="curve" smooth="yes"/>
			<point x="175" y="512"/>
			<point x="177" y="519"/>
			<point x="177" y="524" type="curve" smooth="yes"/>
			<point x="177" y="535"/>
			<point x="170" y="541"/>
			<point x="159" y="541" type="curve" smooth="yes"/>
			<point x="154" y="541"/>
			<point x="147" y="538"/>
			<point x="143" y="533" type="curve" smooth="yes"/>
			<point x="72" y="451"/>
			<point x="16" y="320"/>
			<point x="16" y="169" type="curve" smooth="yes"/>
			<point x="16" y="19"/>
			<point x="72" y="-112"/>
			<point x="143" y="-195" type="curve" smooth="yes"/>
			<point x="147" y="-199"/>
			<point x="154" y="-203"/>
			<point x="159" y="-203" type="curve" smooth="yes"/>
			<point x="170" y="-203"/>
			<point x="177" y="-196"/>
			<point x="177" y="-186" type="curve" smooth="yes"/>
			<point x="177" y="-180"/>
			<point x="175" y="-174"/>
			<point x="171" y="-169" type="curve" smooth="yes"/>
			<point x="102" y="-92"/>
			<point x="54" y="30"/>
		</contour>
	</outline>
</glyph>
<glyph name="parenright" format="2">
	<unicode hex="0029"/>
	<advance height="402" width="402"/>
	<outline>
		<contour>
			<point x="313" y="274" type="curve" smooth="yes"/>
			<point x="313" y="518"/>
			<point x="260" y="700"/>
			<point x="107" y="864" type="curve" smooth="yes"/>
			<point x="96" y="876"/>
			<point x="75" y="878"/>
			<point x="63" y="867" type="curve" smooth="yes"/>
			<point x="52" y="857"/>
			<point x="53" y="833"/>
			<point x="63" y="823" type="curve" smooth="yes"/>
			<point x="212" y="667"/>
			<point x="252" y="500"/>
			<point x="252" y="274" type="curve" smooth="yes"/>
			<point x="252" y="48"/>
			<point x="212" y="-119"/>
			<point x="63" y="-275" type="curve" smooth="yes"/>
			<point x="53" y="-285"/>
			<point x="52" y="-309"/>
			<point x="63" y="-319" type="curve" smooth="yes"/>
			<point x="75" y="-330"/>
			<point x="96" y="-328"/>
			<point x="107" y="-316" type="curve" smooth="yes"/>
			<point x="260" y="-152"/>
			<point x="313" y="30"/>
		</contour>
	</outline>
</glyph>
<glyph name="asterisk" format="2">
	<unicode hex="002A"/>
	<advance width="312"/>
	<outline>
		<contour>
			<point x="138" y="198" type="line"/>
			<point x="138" y="308" type="line" smooth="yes"/>
			<point x="138" y="319"/>
			<point x="146" y="327"/>
			<point x="156" y="327" type="curve" smooth="yes"/>
			<point x="166" y="327"/>
			<point x="175" y="318"/>
			<point x="175" y="308" type="curve" smooth="yes"/>
			<point x="175" y="198" type="line"/>
			<point x="270" y="252" type="line" smooth="yes"/>
			<point x="280" y="257"/>
			<point x="291" y="254"/>
			<point x="296" y="246" type="curve" smooth="yes"/>
			<point x="301" y="237"/>
			<point x="298" y="226"/>
			<point x="289" y="221" type="curve" smooth="yes"/>
			<point x="193" y="165" type="line"/>
			<point x="289" y="110" type="line" smooth="yes"/>
			<point x="298" y="105"/>
			<point x="301" y="94"/>
			<point x="296" y="85" type="curve" smooth="yes"/>
			<point x="291" y="77"/>
			<point x="280" y="73"/>
			<point x="270" y="78" type="curve" smooth="yes"/>
			<point x="175" y="133" type="line"/>
			<point x="175" y="23" type="line" smooth="yes"/>
			<point x="175" y="13"/>
			<point x="166" y="4"/>
			<point x="156" y="4" type="curve" smooth="yes"/>
			<point x="146" y="4"/>
			<point x="138" y="12"/>
			<point x="138" y="23" type="curve" smooth="yes"/>
			<point x="138" y="133" type="line"/>
			<point x="42" y="78" type="line" smooth="yes"/>
			<point x="33" y="73"/>
			<point x="22" y="77"/>
			<point x="17" y="85" type="curve" smooth="yes"/>
			<point x="12" y="94"/>
			<point x="14" y="105"/>
			<point x="23" y="110" type="curve" smooth="yes"/>
			<point x="119" y="165" type="line"/>
			<point x="23" y="221" type="line" smooth="yes"/>
			<point x="14" y="226"/>
			<point x="12" y="237"/>
			<point x="17" y="246" type="curve" smooth="yes"/>
			<point x="22" y="254"/>
			<point x="33" y="257"/>
			<point x="42" y="252" type="curve" smooth="yes"/>
		</contour>
	</outline>
</glyph>
<glyph name="plus" format="2">
	<unicode hex="002B"/>
	<advance width="244"/>
	<outline>
		<contour>
			<point x="141" y="190" type="line"/>
			<point x="209" y="190" type="line" smooth="yes"/>
			<point x="220" y="190"/>
			<point x="228" y="181"/>
			<point x="228" y="172" type="curve" smooth="yes"/>
			<point x="228" y="162"/>
			<point x="219" y="153"/>
			<point x="209" y="153" type="curve" smooth="yes"/>
			<point x="141" y="153" type="line"/>
			<point x="141" y="78" type="line" smooth="yes"/>
			<point x="141" y="69"/>
			<point x="132" y="60"/>
			<point x="122" y="60" type="curve" smooth="yes"/>
			<point x="112" y="60"/>
			<point x="104" y="68"/>
			<point x="104" y="78" type="curve" smooth="yes"/>
			<point x="104" y="153" type="line"/>
			<point x="35" y="153" type="line" smooth="yes"/>
			<point x="25" y="153"/>
			<point x="17" y="162"/>
			<point x="17" y="172" type="curve" smooth="yes"/>
			<point x="17" y="181"/>
			<point x="25" y="190"/>
			<point x="35" y="190" type="curve" smooth="yes"/>
			<point x="104" y="190" type="line"/>
			<point x="104" y="265" type="line" smooth="yes"/>
			<point x="104" y="275"/>
			<point x="112" y="283"/>
			<point x="122" y="283" type="curve" smooth="yes"/>
			<point x="132" y="283"/>
			<point x="141" y="275"/>
			<point x="141" y="265" type="curve" smooth="yes"/>
		</contour>
	</outline>
</glyph>
<glyph name="comma" format="2">
	<unicode hex="002C"/>
	<advance width="106"/>
	<outline>
		<contour>
			<point x="73" y="14" type="curve" smooth="yes"/>
			<point x="73" y="-5"/>
			<point x="59" y="-38"/>
			<point x="38" y="-38" type="curve" smooth="yes"/>
			<point x="36" y="-38"/>
			<point x="35" y="-37"/>
			<point x="35" y="-36" type="curve" smooth="yes"/>
			<point x="35" y="-32"/>
			<point x="41" y="-23"/>
			<point x="41" y="-11" type="curve" smooth="yes"/>
			<point x="41" y="-5"/>
			<point x="40" y="2"/>
			<point x="36" y="10" type="curve" smooth="yes"/>
			<point x="35" y="12"/>
			<point x="33" y="17"/>
			<point x="33" y="20" type="curve" smooth="yes"/>
			<point x="33" y="31"/>
			<point x="42" y="40"/>
			<point x="53" y="40" type="curve" smooth="yes"/>
			<point x="66" y="40"/>
			<point x="73" y="28"/>
		</contour>
	</outline>
</glyph>
<glyph name="hyphen" format="2">
	<unicode hex="002D"/>
	<advance width="244"/>
	<outline>
		<contour>
			<point x="35" y="190" type="curve" smooth="yes"/>
			<point x="209" y="190" type="line" smooth="yes"/>
			<point x="220" y="190"/>
			<point x="228" y="181"/>
			<point x="228" y="172" type="curve" smooth="yes"/>
			<point x="228" y="162"/>
			<point x="219" y="153"/>
			<point x="209" y="153" type="curve" smooth="yes"/>
			<point x="35" y="153" type="line" smooth="yes"/>
			<point x="25" y="153"/>
			<point x="17" y="162"/>
			<point x="17" y="172" type="curve" smooth="yes"/>
			<point x="17" y="181"/>
			<point x="25" y="190"/>
		</contour>
	</outline>
</glyph>
<glyph name="period" format="2">
	<unicode hex="002E"/>
	<advance width="109"/>
	<outline>
		<contour>
			<point x="33" y="20" type="curve" smooth="yes"/>
			<point x="33" y="32"/>
			<point x="43" y="42"/>
			<point x="54" y="42" type="curve" smooth="yes"/>
			<point x="66" y="42"/>
			<point x="75" y="32"/>
			<point x="75" y="20" type="curve" smooth="yes"/>
			<point x="75" y="9"/>
			<point x="66" y="-1"/>
			<point x="54" y="-1" type="curve" smooth="yes"/>
			<point x="43" y="-1"/>
			<point x="33" y="9"/>
		</contour>
	</outline>
</glyph>
<glyph name="slash" format="2">
	<unicode hex="002F"/>
	<advance width="169"/>
	<outline>
		<contour>
			<point x="19" y="12" type="curve" smooth="yes"/>
			<point x="57" y="136"/>
			<point x="79" y="206"/>
			<point x="119" y="331" type="curve" smooth="yes"/>
			<point x="126" y="355"/>
			<point x="160" y="346"/>
			<point x="152" y="320" type="curve" smooth="yes"/>
			<point x="113" y="195"/>
			<point x="91" y="127"/>
			<point x="52" y="2" type="curve" smooth="yes"/>
			<point x="44" y="-22"/>
			<point x="10" y="-14"/>
		</contour>
	</outline>
</glyph>
<glyph name="zero" format="2">
	<unicode hex="0030"/>
	<advance width="299"/>
	<outline>
		<contour>
			<point x="151" y="299" type="curve" smooth="yes"/>
			<point x="82" y="299"/>
			<point x="53" y="241"/>
			<point x="54" y="159" type="curve" smooth="yes"/>
			<point x="55" y="75"/>
			<point x="84" y="34"/>
			<point x="151" y="34" type="curve" smooth="yes"/>
			<point x="214" y="34"/>
			<point x="243" y="76"/>
			<point x="245" y="159" type="curve" smooth="yes"/>
			<point x="247" y="238"/>
			<point x="220" y="299"/>
		</contour>
		<contour>
			<point x="151" y="336" type="curve" smooth="yes"/>
			<point x="236" y="336"/>
			<point x="284" y="269"/>
			<point x="282" y="159" type="curve" smooth="yes"/>
			<point x="280" y="68"/>
			<point x="248" y="-3"/>
			<point x="151" y="-3" type="curve" smooth="yes"/>
			<point x="58" y="-3"/>
			<point x="16" y="67"/>
			<point x="17" y="159" type="curve" smooth="yes"/>
			<point x="17" y="269"/>
			<point x="63" y="336"/>
		</contour>
	</outline>
</glyph>
<glyph name="one" format="2">
	<unicode hex="0031"/>
	<advance width="140"/>
	<outline>
		<contour>
			<point x="34" y="260" type="curve" smooth="yes"/>
			<point x="23" y="260"/>
			<point x="17" y="268"/>
			<point x="17" y="277" type="curve" smooth="yes"/>
			<point x="17" y="283"/>
			<point x="20" y="290"/>
			<point x="27" y="294" type="curve" smooth="yes"/>
			<point x="49" y="309"/>
			<point x="61" y="317"/>
			<point x="73" y="325" type="curve" smooth="yes"/>
			<point x="82" y="332"/>
			<point x="93" y="336"/>
			<point x="102" y="336" type="curve" smooth="yes"/>
			<point x="114" y="336"/>
			<point x="123" y="329"/>
			<point x="123" y="309" type="curve" smooth="yes"/>
			<point x="123" y="0" type="line"/>
			<point x="86" y="0" type="line"/>
			<point x="86" y="290" type="line"/>
			<point x="73" y="281"/>
			<point x="61" y="272"/>
			<point x="47" y="264" type="curve" smooth="yes"/>
			<point x="43" y="262"/>
			<point x="38" y="260"/>
		</contour>
	</outline>
</glyph>
<glyph name="two" format="2">
	<unicode hex="0032"/>
	<advance width="333"/>
	<outline>
		<contour>
			<point x="264" y="227" type="curve" smooth="yes"/>
			<point x="264" y="123"/>
			<point x="104" y="88"/>
			<point x="81" y="37" type="curve"/>
			<point x="298" y="37" type="line" smooth="yes"/>
			<point x="309" y="37"/>
			<point x="317" y="30"/>
			<point x="317" y="19" type="curve" smooth="yes"/>
			<point x="317" y="6"/>
			<point x="309" y="0"/>
			<point x="298" y="0" type="curve" smooth="yes"/>
			<point x="56" y="0" type="line" smooth="yes"/>
			<point x="36" y="0"/>
			<point x="27" y="11"/>
			<point x="27" y="24" type="curve" smooth="yes"/>
			<point x="27" y="30"/>
			<point x="30" y="36"/>
			<point x="34" y="43" type="curve" smooth="yes"/>
			<point x="83" y="122"/>
			<point x="228" y="148"/>
			<point x="228" y="232" type="curve" smooth="yes"/>
			<point x="228" y="283"/>
			<point x="182" y="307"/>
			<point x="141" y="307" type="curve" smooth="yes"/>
			<point x="105" y="307"/>
			<point x="75" y="288"/>
			<point x="56" y="263" type="curve" smooth="yes"/>
			<point x="49" y="254"/>
			<point x="41" y="249"/>
			<point x="34" y="249" type="curve" smooth="yes"/>
			<point x="23" y="249"/>
			<point x="17" y="258"/>
			<point x="17" y="267" type="curve" smooth="yes"/>
			<point x="17" y="272"/>
			<point x="19" y="278"/>
			<point x="23" y="284" type="curve" smooth="yes"/>
			<point x="43" y="314"/>
			<point x="84" y="344"/>
			<point x="140" y="344" type="curve" smooth="yes"/>
			<point x="211" y="344"/>
			<point x="264" y="299"/>
		</contour>
	</outline>
</glyph>
<glyph name="three" format="2">
	<unicode hex="0033"/>
	<advance width="308"/>
	<outline>
		<contour>
			<point x="152" y="-129" type="curve" smooth="yes"/>
			<point x="210" y="-129"/>
			<point x="252" y="-87"/>
			<point x="252" y="-24" type="curve" smooth="yes"/>
			<point x="252" y="31"/>
			<point x="220" y="79"/>
			<point x="159" y="79" type="curve" smooth="yes"/>
			<point x="149" y="79"/>
			<point x="115" y="80"/>
			<point x="111" y="80" type="curve" smooth="yes"/>
			<point x="100" y="80"/>
			<point x="92" y="89"/>
			<point x="92" y="98" type="curve" smooth="yes"/>
			<point x="92" y="107"/>
			<point x="99" y="117"/>
			<point x="111" y="117" type="curve" smooth="yes"/>
			<point x="115" y="117"/>
			<point x="149" y="119"/>
			<point x="161" y="119" type="curve" smooth="yes"/>
			<point x="211" y="119"/>
			<point x="236" y="154"/>
			<point x="236" y="193" type="curve" smooth="yes"/>
			<point x="236" y="238"/>
			<point x="201" y="265"/>
			<point x="158" y="265" type="curve" smooth="yes"/>
			<point x="120" y="265"/>
			<point x="86" y="250"/>
			<point x="71" y="207" type="curve" smooth="yes"/>
			<point x="69" y="201"/>
			<point x="61" y="194"/>
			<point x="53" y="194" type="curve" smooth="yes"/>
			<point x="40" y="194"/>
			<point x="33" y="206"/>
			<point x="36" y="221" type="curve" smooth="yes"/>
			<point x="45" y="267"/>
			<point x="90" y="303"/>
			<point x="158" y="303" type="curve" smooth="yes"/>
			<point x="222" y="303"/>
			<point x="273" y="262"/>
			<point x="273" y="191" type="curve" smooth="yes"/>
			<point x="273" y="151"/>
			<point x="258" y="114"/>
			<point x="236" y="99" type="curve"/>
			<point x="275" y="73"/>
			<point x="291" y="22"/>
			<point x="291" y="-25" type="curve" smooth="yes"/>
			<point x="291" y="-104"/>
			<point x="242" y="-167"/>
			<point x="152" y="-167" type="curve" smooth="yes"/>
			<point x="94" y="-167"/>
			<point x="48" y="-137"/>
			<point x="22" y="-107" type="curve" smooth="yes"/>
			<point x="19" y="-103"/>
			<point x="17" y="-98"/>
			<point x="17" y="-93" type="curve" smooth="yes"/>
			<point x="17" y="-83"/>
			<point x="23" y="-73"/>
			<point x="33" y="-73" type="curve" smooth="yes"/>
			<point x="39" y="-73"/>
			<point x="46" y="-76"/>
			<point x="53" y="-83" type="curve" smooth="yes"/>
			<point x="73" y="-104"/>
			<point x="104" y="-129"/>
		</contour>
	</outline>
</glyph>
<glyph name="four" format="2">
	<unicode hex="0034"/>
	<advance height="470" width="470"/>
	<outline>
		<contour>
			<point x="343" y="341" type="curve" smooth="yes"/>
			<point x="344" y="225"/>
			<point x="343" y="48"/>
			<point x="343" y="48" type="curve"/>
			<point x="343" y="48"/>
			<point x="401" y="48"/>
			<point x="417" y="48" type="curve" smooth="yes"/>
			<point x="430" y="48"/>
			<point x="437" y="35"/>
			<point x="437" y="22" type="curve" smooth="yes"/>
			<point x="437" y="11"/>
			<point x="429" y="0"/>
			<point x="417" y="0" type="curve" smooth="yes"/>
			<point x="403" y="0"/>
			<point x="343" y="0"/>
			<point x="343" y="0" type="curve"/>
			<point x="343" y="0"/>
			<point x="343" y="-109"/>
			<point x="343" y="-193" type="curve" smooth="yes"/>
			<point x="343" y="-208"/>
			<point x="330" y="-217"/>
			<point x="318" y="-217" type="curve" smooth="yes"/>
			<point x="306" y="-217"/>
			<point x="295" y="-208"/>
			<point x="295" y="-193" type="curve" smooth="yes"/>
			<point x="295" y="-109"/>
			<point x="295" y="0"/>
			<point x="295" y="0" type="curve"/>
			<point x="208" y="0"/>
			<point x="148" y="0"/>
			<point x="87" y="0" type="curve" smooth="yes"/>
			<point x="34" y="0"/>
			<point x="23" y="39"/>
			<point x="44" y="68" type="curve" smooth="yes"/>
			<point x="81" y="120"/>
			<point x="161" y="235"/>
			<point x="254" y="362" type="curve" smooth="yes"/>
			<point x="290" y="411"/>
			<point x="342" y="405"/>
		</contour>
		<contour>
			<point x="295" y="48" type="line"/>
			<point x="295" y="333" type="line"/>
			<point x="89" y="48" type="line"/>
		</contour>
	</outline>
</glyph>
<glyph name="five" format="2">
	<unicode hex="0035"/>
	<advance width="335"/>
	<outline>
		<contour>
			<point x="103" y="80" type="curve" smooth="yes"/>
			<point x="218" y="103"/>
			<point x="262" y="49"/>
			<point x="259" y="-31" type="curve" smooth="yes"/>
			<point x="258" y="-86"/>
			<point x="214" y="-129"/>
			<point x="158" y="-129" type="curve" smooth="yes"/>
			<point x="122" y="-129"/>
			<point x="81" y="-117"/>
			<point x="53" y="-83" type="curve" smooth="yes"/>
			<point x="45" y="-73"/>
			<point x="33" y="-69"/>
			<point x="23" y="-78" type="curve" smooth="yes"/>
			<point x="15" y="-84"/>
			<point x="15" y="-98"/>
			<point x="21" y="-105" type="curve" smooth="yes"/>
			<point x="63" y="-151"/>
			<point x="103" y="-167"/>
			<point x="158" y="-167" type="curve" smooth="yes"/>
			<point x="228" y="-167"/>
			<point x="297" y="-107"/>
			<point x="299" y="-31" type="curve" smooth="yes"/>
			<point x="303" y="122"/>
			<point x="171" y="130"/>
			<point x="97" y="117" type="curve"/>
			<point x="148" y="268" type="line"/>
			<point x="148" y="268"/>
			<point x="229" y="268"/>
			<point x="300" y="268" type="curve" smooth="yes"/>
			<point x="312" y="268"/>
			<point x="319" y="277"/>
			<point x="319" y="285" type="curve" smooth="yes"/>
			<point x="319" y="294"/>
			<point x="313" y="305"/>
			<point x="300" y="305" type="curve" smooth="yes"/>
			<point x="147" y="305" type="line" smooth="yes"/>
			<point x="127" y="305"/>
			<point x="117" y="297"/>
			<point x="110" y="275" type="curve" smooth="yes"/>
			<point x="96" y="230"/>
			<point x="80" y="179"/>
			<point x="61" y="122" type="curve" smooth="yes"/>
			<point x="48" y="84"/>
			<point x="74" y="74"/>
		</contour>
	</outline>
</glyph>
<glyph name="six" format="2">
	<unicode hex="0036"/>
	<advance width="313"/>
	<outline>
		<contour>
			<point x="297" y="130" type="curve" smooth="yes"/>
			<point x="298" y="54"/>
			<point x="245" y="-4"/>
			<point x="158" y="-4" type="curve" smooth="yes"/>
			<point x="68" y="-4"/>
			<point x="17" y="63"/>
			<point x="17" y="154" type="curve" smooth="yes"/>
			<point x="17" y="299"/>
			<point x="118" y="453"/>
			<point x="268" y="497" type="curve" smooth="yes"/>
			<point x="280" y="500"/>
			<point x="291" y="498"/>
			<point x="294" y="488" type="curve" smooth="yes"/>
			<point x="296" y="480"/>
			<point x="295" y="468"/>
			<point x="281" y="464" type="curve" smooth="yes"/>
			<point x="164" y="428"/>
			<point x="85" y="327"/>
			<point x="62" y="224" type="curve"/>
			<point x="79" y="248"/>
			<point x="121" y="263"/>
			<point x="159" y="263" type="curve" smooth="yes"/>
			<point x="231" y="263"/>
			<point x="295" y="218"/>
		</contour>
		<contour>
			<point x="58" y="132" type="curve" smooth="yes"/>
			<point x="58" y="77"/>
			<point x="98" y="33"/>
			<point x="158" y="33" type="curve" smooth="yes"/>
			<point x="223" y="33"/>
			<point x="259" y="73"/>
			<point x="259" y="132" type="curve" smooth="yes"/>
			<point x="259" y="182"/>
			<point x="218" y="226"/>
			<point x="158" y="226" type="curve" smooth="yes"/>
			<point x="95" y="226"/>
			<point x="58" y="182"/>
		</contour>
	</outline>
</glyph>
<glyph name="seven" format="2">
	<unicode hex="0037"/>
	<advance width="333"/>
	<outline>
		<contour>
			<point x="68" y="-149" type="curve" smooth="yes"/>
			<point x="58" y="-164"/>
			<point x="47" y="-167"/>
			<point x="38" y="-161" type="curve" smooth="yes"/>
			<point x="28" y="-156"/>
			<point x="28" y="-144"/>
			<point x="34" y="-134" type="curve" smooth="yes"/>
			<point x="85" y="-49"/>
			<point x="226" y="183"/>
			<point x="278" y="267" type="curve"/>
			<point x="278" y="267"/>
			<point x="95" y="267"/>
			<point x="36" y="267" type="curve" smooth="yes"/>
			<point x="27" y="267"/>
			<point x="17" y="274"/>
			<point x="17" y="285" type="curve" smooth="yes"/>
			<point x="17" y="297"/>
			<point x="26" y="306"/>
			<point x="35" y="306" type="curve" smooth="yes"/>
			<point x="281" y="306" type="line" smooth="yes"/>
			<point x="312" y="306"/>
			<point x="326" y="278"/>
			<point x="309" y="250" type="curve" smooth="yes"/>
			<point x="265" y="177"/>
			<point x="111" y="-77"/>
		</contour>
	</outline>
</glyph>
<glyph name="eight" format="2">
	<unicode hex="0038"/>
	<advance width="322"/>
	<outline>
		<contour>
			<point x="162" y="249" type="curve"/>
			<point x="77" y="228"/>
			<point x="58" y="175"/>
			<point x="54" y="139" type="curve" smooth="yes"/>
			<point x="48" y="77"/>
			<point x="90" y="29"/>
			<point x="161" y="29" type="curve" smooth="yes"/>
			<point x="224" y="29"/>
			<point x="273" y="76"/>
			<point x="268" y="139" type="curve" smooth="yes"/>
			<point x="265" y="178"/>
			<point x="243" y="230"/>
		</contour>
		<contour>
			<point x="161" y="468" type="curve" smooth="yes"/>
			<point x="110" y="468"/>
			<point x="71" y="432"/>
			<point x="77" y="380" type="curve" smooth="yes"/>
			<point x="82" y="340"/>
			<point x="117" y="301"/>
			<point x="162" y="294" type="curve"/>
			<point x="209" y="304"/>
			<point x="239" y="341"/>
			<point x="245" y="380" type="curve" smooth="yes"/>
			<point x="253" y="434"/>
			<point x="214" y="468"/>
		</contour>
		<contour>
			<point x="161" y="505" type="curve" smooth="yes"/>
			<point x="256" y="505"/>
			<point x="288" y="433"/>
			<point x="283" y="381" type="curve" smooth="yes"/>
			<point x="279" y="347"/>
			<point x="267" y="304"/>
			<point x="205" y="273" type="curve"/>
			<point x="279" y="241"/>
			<point x="301" y="199"/>
			<point x="305" y="142" type="curve" smooth="yes"/>
			<point x="310" y="73"/>
			<point x="266" y="-8"/>
			<point x="161" y="-8" type="curve" smooth="yes"/>
			<point x="59" y="-8"/>
			<point x="10" y="67"/>
			<point x="17" y="142" type="curve" smooth="yes"/>
			<point x="22" y="195"/>
			<point x="44" y="239"/>
			<point x="118" y="273" type="curve"/>
			<point x="61" y="297"/>
			<point x="44" y="345"/>
			<point x="40" y="380" type="curve" smooth="yes"/>
			<point x="34" y="428"/>
			<point x="68" y="505"/>
		</contour>
	</outline>
</glyph>
<glyph name="nine" format="2">
	<unicode hex="0039"/>
	<advance width="313"/>
	<outline>
		<contour>
			<point x="17" y="203" type="curve" smooth="yes"/>
			<point x="15" y="279"/>
			<point x="68" y="337"/>
			<point x="156" y="337" type="curve" smooth="yes"/>
			<point x="246" y="337"/>
			<point x="297" y="270"/>
			<point x="297" y="179" type="curve" smooth="yes"/>
			<point x="297" y="35"/>
			<point x="196" y="-120"/>
			<point x="45" y="-164" type="curve" smooth="yes"/>
			<point x="34" y="-167"/>
			<point x="23" y="-164"/>
			<point x="20" y="-155" type="curve" smooth="yes"/>
			<point x="17" y="-147"/>
			<point x="19" y="-134"/>
			<point x="32" y="-130" type="curve" smooth="yes"/>
			<point x="149" y="-95"/>
			<point x="229" y="6"/>
			<point x="251" y="110" type="curve"/>
			<point x="234" y="85"/>
			<point x="193" y="70"/>
			<point x="154" y="70" type="curve" smooth="yes"/>
			<point x="82" y="70"/>
			<point x="18" y="115"/>
		</contour>
		<contour>
			<point x="255" y="201" type="curve" smooth="yes"/>
			<point x="255" y="256"/>
			<point x="215" y="300"/>
			<point x="156" y="300" type="curve" smooth="yes"/>
			<point x="90" y="300"/>
			<point x="55" y="260"/>
			<point x="55" y="201" type="curve" smooth="yes"/>
			<point x="55" y="151"/>
			<point x="95" y="107"/>
			<point x="156" y="107" type="curve" smooth="yes"/>
			<point x="218" y="107"/>
			<point x="255" y="151"/>
		</contour>
	</outline>
</glyph>
<glyph name="less" format="2">
	<unicode hex="003C"/>
	<advance width="285"/>
	<outline>
		<contour>
			<point x="243" y="67" type="curve" smooth="yes"/>
			<point x="31" y="149" type="line" smooth="yes"/>
			<point x="11" y="157"/>
			<point x="11" y="184"/>
			<point x="31" y="192" type="curve" smooth="yes"/>
			<point x="31" y="192"/>
			<point x="169" y="246"/>
			<point x="243" y="274" type="curve" smooth="yes"/>
			<point x="251" y="277"/>
			<point x="263" y="275"/>
			<point x="267" y="265" type="curve" smooth="yes"/>
			<point x="271" y="255"/>
			<point x="264" y="244"/>
			<point x="256" y="241" type="curve" smooth="yes"/>
			<point x="181" y="212"/>
			<point x="73" y="170"/>
			<point x="73" y="170" type="curve"/>
			<point x="256" y="99" type="line" smooth="yes"/>
			<point x="266" y="95"/>
			<point x="271" y="86"/>
			<point x="267" y="75" type="curve" smooth="yes"/>
			<point x="263" y="65"/>
			<point x="253" y="63"/>
		</contour>
	</outline>
</glyph>
<glyph name="equal" format="2">
	<unicode hex="003D"/>
	<advance width="244"/>
	<outline>
		<contour>
			<point x="35" y="131" type="curve" smooth="yes"/>
			<point x="209" y="131" type="line" smooth="yes"/>
			<point x="220" y="131"/>
			<point x="228" y="122"/>
			<point x="228" y="112" type="curve" smooth="yes"/>
			<point x="228" y="102"/>
			<point x="219" y="94"/>
			<point x="209" y="94" type="curve" smooth="yes"/>
			<point x="35" y="94" type="line" smooth="yes"/>
			<point x="25" y="94"/>
			<point x="17" y="102"/>
			<point x="17" y="112" type="curve" smooth="yes"/>
			<point x="17" y="122"/>
			<point x="25" y="131"/>
		</contour>
		<contour>
			<point x="35" y="236" type="curve" smooth="yes"/>
			<point x="209" y="236" type="line" smooth="yes"/>
			<point x="220" y="236"/>
			<point x="228" y="227"/>
			<point x="228" y="217" type="curve" smooth="yes"/>
			<point x="228" y="207"/>
			<point x="219" y="199"/>
			<point x="209" y="199" type="curve" smooth="yes"/>
			<point x="35" y="199" type="line" smooth="yes"/>
			<point x="25" y="199"/>
			<point x="17" y="207"/>
			<point x="17" y="217" type="curve" smooth="yes"/>
			<point x="17" y="227"/>
			<point x="25" y="236"/>
		</contour>
	</outline>
</glyph>
<glyph name="greater" format="2">
	<unicode hex="003E"/>
	<advance width="285"/>
	<outline>
		<contour>
			<point x="43" y="67" type="line" smooth="yes"/>
			<point x="32" y="63"/>
			<point x="22" y="65"/>
			<point x="19" y="75" type="curve" smooth="yes"/>
			<point x="14" y="86"/>
			<point x="19" y="95"/>
			<point x="30" y="99" type="curve" smooth="yes"/>
			<point x="212" y="170" type="line"/>
			<point x="212" y="170"/>
			<point x="104" y="212"/>
			<point x="30" y="241" type="curve" smooth="yes"/>
			<point x="22" y="244"/>
			<point x="14" y="255"/>
			<point x="19" y="265" type="curve" smooth="yes"/>
			<point x="22" y="275"/>
			<point x="35" y="277"/>
			<point x="43" y="274" type="curve" smooth="yes"/>
			<point x="116" y="246"/>
			<point x="254" y="192"/>
			<point x="254" y="192" type="curve" smooth="yes"/>
			<point x="274" y="184"/>
			<point x="274" y="157"/>
			<point x="254" y="149" type="curve" smooth="yes"/>
		</contour>
	</outline>
</glyph>
<glyph name="question" format="2">
	<unicode hex="003F"/>
	<advance width="330"/>
	<outline>
		<contour>
			<point x="258" y="340" type="curve" smooth="yes"/>
			<point x="258" y="390"/>
			<point x="221" y="425"/>
			<point x="170" y="425" type="curve" smooth="yes"/>
			<point x="110" y="425"/>
			<point x="83" y="392"/>
			<point x="69" y="351" type="curve" smooth="yes"/>
			<point x="65" y="339"/>
			<point x="59" y="334"/>
			<point x="50" y="334" type="curve" smooth="yes"/>
			<point x="34" y="334"/>
			<point x="31" y="349"/>
			<point x="35" y="364" type="curve" smooth="yes"/>
			<point x="45" y="415"/>
			<point x="90" y="462"/>
			<point x="170" y="462" type="curve" smooth="yes"/>
			<point x="245" y="462"/>
			<point x="297" y="415"/>
			<point x="297" y="340" type="curve" smooth="yes"/>
			<point x="297" y="230"/>
			<point x="164" y="200"/>
			<point x="164" y="113" type="curve" smooth="yes"/>
			<point x="164" y="96"/>
			<point x="157" y="88"/>
			<point x="146" y="88" type="curve" smooth="yes"/>
			<point x="133" y="88"/>
			<point x="126" y="97"/>
			<point x="126" y="113" type="curve" smooth="yes"/>
			<point x="127" y="225"/>
			<point x="258" y="248"/>
		</contour>
		<component base="period" xOffset="91" yOffset="-1"/>
	</outline>
</glyph>
<glyph name="bracketleft" format="2">
	<unicode hex="005B"/>
	<advance width="130"/>
	<outline>
		<contour>
			<point x="17" y="-179" type="curve" smooth="yes"/>
			<point x="17" y="512" type="line" smooth="yes"/>
			<point x="17" y="525"/>
			<point x="24" y="531"/>
			<point x="36" y="531" type="curve" smooth="yes"/>
			<point x="98" y="531" type="line" smooth="yes"/>
			<point x="106" y="531"/>
			<point x="114" y="523"/>
			<point x="114" y="514" type="curve" smooth="yes"/>
			<point x="114" y="504"/>
			<point x="107" y="497"/>
			<point x="98" y="497" type="curve" smooth="yes"/>
			<point x="52" y="497" type="line"/>
			<point x="52" y="-164" type="line"/>
			<point x="98" y="-164" type="line" smooth="yes"/>
			<point x="107" y="-164"/>
			<point x="114" y="-170"/>
			<point x="114" y="-180" type="curve" smooth="yes"/>
			<point x="114" y="-190"/>
			<point x="106" y="-198"/>
			<point x="98" y="-198" type="curve" smooth="yes"/>
			<point x="36" y="-198" type="line" smooth="yes"/>
			<point x="24" y="-198"/>
			<point x="17" y="-191"/>
		</contour>
	</outline>
</glyph>
<glyph name="backslash" format="2">
	<unicode hex="005C"/>
	<advance width="164"/>
	<outline>
		<contour>
			<point x="112" y="1" type="curve" smooth="yes"/>
			<point x="75" y="125"/>
			<point x="54" y="195"/>
			<point x="17" y="321" type="curve" smooth="yes"/>
			<point x="9" y="346"/>
			<point x="43" y="358"/>
			<point x="50" y="331" type="curve" smooth="yes"/>
			<point x="88" y="206"/>
			<point x="109" y="137"/>
			<point x="146" y="11" type="curve" smooth="yes"/>
			<point x="153" y="-12"/>
			<point x="120" y="-23"/>
		</contour>
	</outline>
</glyph>
<glyph name="asciicircum" format="2">
	<unicode hex="005E"/>
	<advance width="247"/>
	<outline>
		<contour>
			<point x="231" y="446" type="curve" smooth="yes"/>
			<point x="231" y="438"/>
			<point x="224" y="430"/>
			<point x="215" y="430" type="curve" smooth="yes"/>
			<point x="209" y="430"/>
			<point x="202" y="433"/>
			<point x="198" y="439" type="curve" smooth="yes"/>
			<point x="123" y="540" type="line"/>
			<point x="123" y="540"/>
			<point x="77" y="477"/>
			<point x="49" y="439" type="curve" smooth="yes"/>
			<point x="44" y="433"/>
			<point x="38" y="430"/>
			<point x="32" y="430" type="curve" smooth="yes"/>
			<point x="23" y="430"/>
			<point x="16" y="438"/>
			<point x="16" y="446" type="curve" smooth="yes"/>
			<point x="16" y="451"/>
			<point x="17" y="454"/>
			<point x="20" y="457" type="curve" smooth="yes"/>
			<point x="52" y="500"/>
			<point x="103" y="570"/>
			<point x="103" y="570" type="curve" smooth="yes"/>
			<point x="109" y="578"/>
			<point x="117" y="582"/>
			<point x="123" y="582" type="curve" smooth="yes"/>
			<point x="130" y="582"/>
			<point x="137" y="578"/>
			<point x="143" y="570" type="curve" smooth="yes"/>
			<point x="227" y="457" type="line" smooth="yes"/>
			<point x="230" y="454"/>
			<point x="231" y="451"/>
		</contour>
	</outline>
</glyph>
<glyph name="underscore" format="2">
	<advance width="580" height="580"/>
	<unicode hex="005F"/>
	<outline>
		<contour>
			<point x="61" y="60" type="curve" smooth="yes"/>
			<point x="61" y="60"/>
			<point x="418" y="60"/>
			<point x="523" y="60" type="curve" smooth="yes"/>
			<point x="540" y="60"/>
			<point x="553" y="46"/>
			<point x="553" y="30" type="curve" smooth="yes"/>
			<point x="553" y="14"/>
			<point x="539" y="0"/>
			<point x="523" y="0" type="curve" smooth="yes"/>
			<point x="415" y="0"/>
			<point x="61" y="0"/>
			<point x="61" y="0" type="curve" smooth="yes"/>
			<point x="45" y="0"/>
			<point x="31" y="14"/>
			<point x="31" y="30" type="curve" smooth="yes"/>
			<point x="31" y="46"/>
			<point x="44" y="60"/>
		</contour>
	</outline>
</glyph>
<glyph name="braceleft" format="2">
	<unicode hex="007B"/>
	<advance width="183"/>
	<outline>
		<contour>
			<point x="69" y="-179" type="line" smooth="yes"/>
			<point x="69" y="-191"/>
			<point x="77" y="-198"/>
			<point x="88" y="-198" type="curve" smooth="yes"/>
			<point x="151" y="-198" type="line" smooth="yes"/>
			<point x="159" y="-198"/>
			<point x="166" y="-190"/>
			<point x="166" y="-180" type="curve" smooth="yes"/>
			<point x="166" y="-170"/>
			<point x="160" y="-164"/>
			<point x="151" y="-164" type="curve" smooth="yes"/>
			<point x="104" y="-164" type="line"/>
			<point x="104" y="497" type="line"/>
			<point x="151" y="497" type="line" smooth="yes"/>
			<point x="160" y="497"/>
			<point x="166" y="504"/>
			<point x="166" y="514" type="curve" smooth="yes"/>
			<point x="166" y="523"/>
			<point x="159" y="531"/>
			<point x="151" y="531" type="curve" smooth="yes"/>
			<point x="88" y="531" type="line" smooth="yes"/>
			<point x="77" y="531"/>
			<point x="69" y="525"/>
			<point x="69" y="512" type="curve" smooth="yes"/>
			<point x="69" y="185" type="line"/>
			<point x="35" y="185" type="line" smooth="yes"/>
			<point x="23" y="185"/>
			<point x="17" y="176"/>
			<point x="17" y="166" type="curve" smooth="yes"/>
			<point x="17" y="156"/>
			<point x="23" y="148"/>
			<point x="35" y="148" type="curve" smooth="yes"/>
			<point x="69" y="148" type="line"/>
		</contour>
	</outline>
</glyph>
<glyph name="bar" format="2">
	<unicode hex="007C"/>
	<advance width="70"/>
	<outline>
		<contour>
			<point x="17" y="23" type="curve" smooth="yes"/>
			<point x="17" y="444" type="line" smooth="yes"/>
			<point x="17" y="454"/>
			<point x="25" y="462"/>
			<point x="35" y="462" type="curve" smooth="yes"/>
			<point x="45" y="462"/>
			<point x="54" y="454"/>
			<point x="54" y="444" type="curve" smooth="yes"/>
			<point x="54" y="23" type="line" smooth="yes"/>
			<point x="54" y="13"/>
			<point x="45" y="4"/>
			<point x="35" y="4" type="curve" smooth="yes"/>
			<point x="25" y="4"/>
			<point x="17" y="12"/>
		</contour>
	</outline>
</glyph>
<glyph name="braceright" format="2">
	<unicode hex="007D"/>
	<advance width="183"/>
	<outline>
		<contour>
			<point x="114" y="-179" type="line" smooth="yes"/>
			<point x="114" y="-191"/>
			<point x="106" y="-198"/>
			<point x="94" y="-198" type="curve" smooth="yes"/>
			<point x="32" y="-198" type="line" smooth="yes"/>
			<point x="24" y="-198"/>
			<point x="17" y="-190"/>
			<point x="17" y="-180" type="curve" smooth="yes"/>
			<point x="17" y="-170"/>
			<point x="23" y="-164"/>
			<point x="32" y="-164" type="curve" smooth="yes"/>
			<point x="78" y="-164" type="line"/>
			<point x="78" y="497" type="line"/>
			<point x="32" y="497" type="line" smooth="yes"/>
			<point x="23" y="497"/>
			<point x="17" y="504"/>
			<point x="17" y="514" type="curve" smooth="yes"/>
			<point x="17" y="523"/>
			<point x="24" y="531"/>
			<point x="32" y="531" type="curve" smooth="yes"/>
			<point x="94" y="531" type="line" smooth="yes"/>
			<point x="106" y="531"/>
			<point x="114" y="525"/>
			<point x="114" y="512" type="curve" smooth="yes"/>
			<point x="114" y="185" type="line"/>
			<point x="148" y="185" type="line" smooth="yes"/>
			<point x="160" y="185"/>
			<point x="166" y="176"/>
			<point x="166" y="166" type="curve" smooth="yes"/>
			<point x="166" y="156"/>
			<point x="160" y="148"/>
			<point x="148" y="148" type="curve" smooth="yes"/>
			<point x="114" y="148" type="line"/>
		</contour>
	</outline>
</glyph>
<glyph name="asciitilde" format="2">
	<unicode hex="007E"/>
	<advance width="514"/>
	<outline>
		<contour>
			<point x="267" y="200" type="curve" smooth="yes"/>
			<point x="294" y="179"/>
			<point x="323" y="157"/>
			<point x="367" y="157" type="curve" smooth="yes"/>
			<point x="412" y="157"/>
			<point x="432" y="173"/>
			<point x="467" y="201" type="curve" smooth="yes"/>
			<point x="475" y="206"/>
			<point x="488" y="207"/>
			<point x="494" y="198" type="curve" smooth="yes"/>
			<point x="500" y="190"/>
			<point x="496" y="178"/>
			<point x="489" y="172" type="curve" smooth="yes"/>
			<point x="463" y="148"/>
			<point x="423" y="120"/>
			<point x="367" y="120" type="curve" smooth="yes"/>
			<point x="302" y="120"/>
			<point x="277" y="147"/>
			<point x="246" y="172" type="curve" smooth="yes"/>
			<point x="220" y="193"/>
			<point x="190" y="215"/>
			<point x="146" y="215" type="curve" smooth="yes"/>
			<point x="102" y="215"/>
			<point x="81" y="198"/>
			<point x="46" y="171" type="curve" smooth="yes"/>
			<point x="39" y="165"/>
			<point x="26" y="165"/>
			<point x="20" y="173" type="curve" smooth="yes"/>
			<point x="14" y="182"/>
			<point x="17" y="193"/>
			<point x="25" y="200" type="curve" smooth="yes"/>
			<point x="51" y="223"/>
			<point x="90" y="252"/>
			<point x="146" y="252" type="curve" smooth="yes"/>
			<point x="211" y="252"/>
			<point x="236" y="225"/>
		</contour>
	</outline>
</glyph>
<glyph name="tmVisarga" format="2">
	<advance width="466"/>
	<unicode hex="0B83"/>
	<outline>
		<contour>
			<point x="221" y="215" type="curve" smooth="yes"/>
			<point x="274" y="215"/>
			<point x="299" y="253"/>
			<point x="299" y="292" type="curve" smooth="yes"/>
			<point x="299" y="333"/>
			<point x="269" y="369"/>
			<point x="221" y="369" type="curve" smooth="yes"/>
			<point x="181" y="369"/>
			<point x="143" y="340"/>
			<point x="143" y="290" type="curve" smooth="yes"/>
			<point x="143" y="250"/>
			<point x="172" y="215"/>
		</contour>
		<contour>
			<point x="114" y="2" type="curve" smooth="yes"/>
			<point x="167" y="2"/>
			<point x="192" y="40"/>
			<point x="192" y="79" type="curve" smooth="yes"/>
			<point x="192" y="120"/>
			<point x="162" y="156"/>
			<point x="114" y="156" type="curve" smooth="yes"/>
			<point x="74" y="156"/>
			<point x="36" y="127"/>
			<point x="36" y="77" type="curve" smooth="yes"/>
			<point x="36" y="37"/>
			<point x="65" y="2"/>
		</contour>
		<contour>
			<point x="105" y="43" type="curve" smooth="yes"/>
			<point x="83" y="43"/>
			<point x="65" y="59"/>
			<point x="65" y="84" type="curve" smooth="yes"/>
			<point x="65" y="111"/>
			<point x="84" y="128"/>
			<point x="107" y="128" type="curve" smooth="yes"/>
			<point x="131" y="128"/>
			<point x="150" y="111"/>
			<point x="150" y="86" type="curve" smooth="yes"/>
			<point x="150" y="63"/>
			<point x="137" y="43"/>
		</contour>
		<contour>
			<point x="343" y="2" type="curve" smooth="yes"/>
			<point x="396" y="2"/>
			<point x="421" y="40"/>
			<point x="421" y="79" type="curve" smooth="yes"/>
			<point x="421" y="120"/>
			<point x="391" y="156"/>
			<point x="344" y="156" type="curve" smooth="yes"/>
			<point x="303" y="156"/>
			<point x="266" y="128"/>
			<point x="266" y="77" type="curve" smooth="yes"/>
			<point x="266" y="36"/>
			<point x="294" y="2"/>
		</contour>
		<contour>
			<point x="336" y="45" type="curve" smooth="yes"/>
			<point x="310" y="45"/>
			<point x="294" y="63"/>
			<point x="294" y="86" type="curve" smooth="yes"/>
			<point x="294" y="111"/>
			<point x="311" y="128"/>
			<point x="336" y="128" type="curve" smooth="yes"/>
			<point x="360" y="128"/>
			<point x="378" y="112"/>
			<point x="378" y="87" type="curve" smooth="yes"/>
			<point x="378" y="64"/>
			<point x="364" y="45"/>
		</contour>
		<contour>
			<point x="214" y="256" type="curve" smooth="yes"/>
			<point x="190" y="256"/>
			<point x="172" y="272"/>
			<point x="172" y="297" type="curve" smooth="yes"/>
			<point x="172" y="324"/>
			<point x="191" y="341"/>
			<point x="214" y="341" type="curve" smooth="yes"/>
			<point x="238" y="341"/>
			<point x="257" y="324"/>
			<point x="257" y="299" type="curve" smooth="yes"/>
			<point x="257" y="276"/>
			<point x="244" y="256"/>
		</contour>
	</outline>
</glyph>
<glyph name="tmA" format="2">
	<advance width="767"/>
	<unicode hex="0B85"/>
	<outline>
		<contour>
			<point x="285" y="-88" type="curve" smooth="yes"/>
			<point x="484" y="-88"/>
			<point x="576" y="44"/>
			<point x="576" y="160" type="curve" smooth="yes"/>
			<point x="576" y="297"/>
			<point x="478" y="363"/>
			<point x="384" y="362" type="curve" smooth="yes"/>
			<point x="297" y="361"/>
			<point x="235" y="307"/>
			<point x="234" y="235" type="curve" smooth="yes"/>
			<point x="233" y="184"/>
			<point x="266" y="146"/>
			<point x="324" y="146" type="curve" smooth="yes"/>
			<point x="377" y="146"/>
			<point x="407" y="185"/>
			<point x="407" y="230" type="curve" smooth="yes"/>
			<point x="407" y="293"/>
			<point x="347" y="317"/>
			<point x="309" y="320" type="curve"/>
			<point x="279" y="302" type="line"/>
			<point x="315" y="299"/>
			<point x="363" y="281"/>
			<point x="361" y="234" type="curve" smooth="yes"/>
			<point x="360" y="207"/>
			<point x="344" y="189"/>
			<point x="318" y="189" type="curve" smooth="yes"/>
			<point x="289" y="189"/>
			<point x="268" y="209"/>
			<point x="269" y="240" type="curve" smooth="yes"/>
			<point x="270" y="285"/>
			<point x="305" y="325"/>
			<point x="371" y="324" type="curve" smooth="yes"/>
			<point x="449" y="323"/>
			<point x="520" y="282"/>
			<point x="520" y="169" type="curve" smooth="yes"/>
			<point x="520" y="52"/>
			<point x="447" y="-51"/>
			<point x="282" y="-51" type="curve" smooth="yes"/>
			<point x="180" y="-51"/>
			<point x="90" y="-14"/>
			<point x="90" y="30" type="curve" smooth="yes"/>
			<point x="90" y="57"/>
			<point x="118" y="65"/>
			<point x="146" y="65" type="curve" smooth="yes"/>
			<point x="683" y="65" type="line"/>
			<point x="686" y="110" type="line"/>
			<point x="613" y="99"/>
			<point x="232" y="101"/>
			<point x="133" y="99" type="curve" smooth="yes"/>
			<point x="92" y="98"/>
			<point x="50" y="76"/>
			<point x="50" y="28" type="curve" smooth="yes"/>
			<point x="50" y="-28"/>
			<point x="132" y="-88"/>
		</contour>
		<contour>
			<point x="675" y="-113" type="curve"/>
			<point x="695" y="-113"/>
			<point x="718" y="-111"/>
			<point x="737" y="-108" type="curve"/>
			<point x="737" y="355" type="line"/>
			<point x="727" y="356"/>
			<point x="696" y="353"/>
			<point x="679" y="351" type="curve"/>
			<point x="679" y="7" type="line" smooth="yes"/>
			<point x="679" y="-43"/>
			<point x="677" y="-73"/>
		</contour>
	</outline>
</glyph>
<glyph name="tmI" format="2">
	<advance width="749"/>
	<unicode hex="0B87"/>
	<outline>
		<contour>
			<point x="172" y="-193" type="curve" smooth="yes"/>
			<point x="369" y="-194"/>
			<point x="511" y="-1"/>
			<point x="511" y="141" type="curve" smooth="yes"/>
			<point x="511" y="256"/>
			<point x="434" y="325"/>
			<point x="346" y="325" type="curve" smooth="yes"/>
			<point x="274" y="325"/>
			<point x="229" y="279"/>
			<point x="229" y="221" type="curve" smooth="yes"/>
			<point x="229" y="173"/>
			<point x="261" y="133"/>
			<point x="315" y="134" type="curve" smooth="yes"/>
			<point x="364" y="135"/>
			<point x="403" y="167"/>
			<point x="402" y="223" type="curve"/>
			<point x="402" y="266"/>
			<point x="376" y="292"/>
			<point x="331" y="304" type="curve"/>
			<point x="321" y="291" type="line"/>
			<point x="339" y="281"/>
			<point x="358" y="258"/>
			<point x="358" y="228" type="curve" smooth="yes"/>
			<point x="358" y="205"/>
			<point x="341" y="181"/>
			<point x="310" y="181" type="curve" smooth="yes"/>
			<point x="284" y="181"/>
			<point x="265" y="200"/>
			<point x="265" y="226" type="curve" smooth="yes"/>
			<point x="265" y="264"/>
			<point x="295" y="290"/>
			<point x="340" y="290" type="curve" smooth="yes"/>
			<point x="409" y="290"/>
			<point x="457" y="227"/>
			<point x="454" y="127" type="curve" smooth="yes"/>
			<point x="451" y="14"/>
			<point x="360" y="-158"/>
			<point x="174" y="-158" type="curve" smooth="yes"/>
			<point x="123" y="-158"/>
			<point x="90" y="-135"/>
			<point x="90" y="-93" type="curve"/>
			<point x="89" y="-17"/>
			<point x="199" y="32"/>
			<point x="327" y="32" type="curve" smooth="yes"/>
			<point x="433" y="32"/>
			<point x="536" y="-23"/>
			<point x="535" y="-93" type="curve" smooth="yes"/>
			<point x="535" y="-124"/>
			<point x="515" y="-148"/>
			<point x="462" y="-148" type="curve" smooth="yes"/>
			<point x="266" y="-148"/>
			<point x="125" y="46"/>
			<point x="125" y="194" type="curve" smooth="yes"/>
			<point x="125" y="351"/>
			<point x="226" y="425"/>
			<point x="368" y="425" type="curve" smooth="yes"/>
			<point x="564" y="425"/>
			<point x="650" y="298"/>
			<point x="647" y="126" type="curve" smooth="yes"/>
			<point x="647" y="2" type="line" smooth="yes"/>
			<point x="646" y="-29"/>
			<point x="644" y="-68"/>
			<point x="642" y="-105" type="curve"/>
			<point x="686" y="-105" type="line"/>
			<point x="686" y="182" type="line" smooth="yes"/>
			<point x="686" y="343"/>
			<point x="579" y="485"/>
			<point x="385" y="485" type="curve" smooth="yes"/>
			<point x="195" y="485"/>
			<point x="83" y="362"/>
			<point x="86" y="188" type="curve" smooth="yes"/>
			<point x="89" y="-4"/>
			<point x="258" y="-193"/>
			<point x="458" y="-193" type="curve" smooth="yes"/>
			<point x="557" y="-193"/>
			<point x="595" y="-142"/>
			<point x="594" y="-93" type="curve" smooth="yes"/>
			<point x="591" y="18"/>
			<point x="437" y="67"/>
			<point x="328" y="67" type="curve" smooth="yes"/>
			<point x="215" y="67"/>
			<point x="59" y="20"/>
			<point x="57" y="-94" type="curve" smooth="yes"/>
			<point x="56" y="-165"/>
			<point x="112" y="-193"/>
		</contour>
	</outline>
</glyph>
<glyph name="tmIi" format="2">
	<advance width="535"/>
	<unicode hex="0B88"/>
	<outline>
		<contour>
			<point x="57" y="0" type="curve"/>
			<point x="99" y="0" type="line"/>
			<point x="99" y="0"/>
			<point x="101" y="130"/>
			<point x="99" y="231" type="curve" smooth="yes"/>
			<point x="98" y="264"/>
			<point x="98" y="291"/>
			<point x="98" y="324" type="curve"/>
			<point x="299" y="324" type="line"/>
			<point x="300" y="296"/>
			<point x="299" y="275"/>
			<point x="298" y="234" type="curve" smooth="yes"/>
			<point x="297" y="0" type="line"/>
			<point x="353" y="0" type="line"/>
			<point x="353" y="324" type="line"/>
			<point x="488" y="324" type="line"/>
			<point x="487" y="335"/>
			<point x="482" y="353"/>
			<point x="479" y="360" type="curve"/>
			<point x="382" y="354"/>
			<point x="146" y="354"/>
			<point x="58" y="354" type="curve"/>
			<point x="60" y="318"/>
			<point x="61" y="279"/>
			<point x="61" y="234" type="curve" smooth="yes"/>
			<point x="62" y="86"/>
			<point x="57" y="0"/>
		</contour>
		<contour>
			<point x="197" y="145" type="curve" smooth="yes"/>
			<point x="217" y="145"/>
			<point x="232" y="160"/>
			<point x="232" y="179" type="curve" smooth="yes"/>
			<point x="232" y="199"/>
			<point x="217" y="214"/>
			<point x="197" y="214" type="curve" smooth="yes"/>
			<point x="178" y="214"/>
			<point x="162" y="200"/>
			<point x="162" y="183" type="curve" smooth="yes"/>
			<point x="162" y="162"/>
			<point x="178" y="145"/>
		</contour>
		<contour>
			<point x="443" y="143" type="curve" smooth="yes"/>
			<point x="462" y="143"/>
			<point x="477" y="158"/>
			<point x="477" y="178" type="curve" smooth="yes"/>
			<point x="477" y="197"/>
			<point x="462" y="213"/>
			<point x="443" y="213" type="curve" smooth="yes"/>
			<point x="423" y="213"/>
			<point x="408" y="197"/>
			<point x="408" y="178" type="curve" smooth="yes"/>
			<point x="408" y="158"/>
			<point x="423" y="143"/>
		</contour>
	</outline>
</glyph>
<glyph name="tmU" format="2">
	<advance width="658"/>
	<unicode hex="0B89"/>
	<outline>
		<contour>
			<point x="113" y="0" type="curve" smooth="yes"/>
			<point x="648" y="0" type="line"/>
			<point x="648" y="13"/>
			<point x="643" y="35"/>
			<point x="639" y="42" type="curve"/>
			<point x="551" y="36"/>
			<point x="468" y="35"/>
			<point x="413" y="35" type="curve" smooth="yes"/>
			<point x="140" y="36" type="line" smooth="yes"/>
			<point x="127" y="36"/>
			<point x="119" y="43"/>
			<point x="119" y="54" type="curve" smooth="yes"/>
			<point x="119" y="67"/>
			<point x="130" y="82"/>
			<point x="160" y="82" type="curve" smooth="yes"/>
			<point x="213" y="82" type="line" smooth="yes"/>
			<point x="314" y="82"/>
			<point x="373" y="136"/>
			<point x="373" y="236" type="curve" smooth="yes"/>
			<point x="373" y="331"/>
			<point x="299" y="381"/>
			<point x="216" y="381" type="curve" smooth="yes"/>
			<point x="120" y="381"/>
			<point x="62" y="318"/>
			<point x="61" y="246" type="curve" smooth="yes"/>
			<point x="61" y="186"/>
			<point x="103" y="148"/>
			<point x="156" y="148" type="curve" smooth="yes"/>
			<point x="216" y="149"/>
			<point x="243" y="188"/>
			<point x="243" y="231" type="curve" smooth="yes"/>
			<point x="243" y="274"/>
			<point x="209" y="304"/>
			<point x="168" y="304" type="curve" smooth="yes"/>
			<point x="138" y="304"/>
			<point x="101" y="284"/>
			<point x="84" y="241" type="curve"/>
			<point x="92" y="210" type="line"/>
			<point x="104" y="246"/>
			<point x="128" y="268"/>
			<point x="157" y="268" type="curve" smooth="yes"/>
			<point x="182" y="268"/>
			<point x="197" y="250"/>
			<point x="197" y="231" type="curve" smooth="yes"/>
			<point x="197" y="210"/>
			<point x="181" y="187"/>
			<point x="151" y="187" type="curve" smooth="yes"/>
			<point x="113" y="187"/>
			<point x="88" y="215"/>
			<point x="89" y="245" type="curve" smooth="yes"/>
			<point x="90" y="302"/>
			<point x="136" y="349"/>
			<point x="199" y="349" type="curve" smooth="yes"/>
			<point x="275" y="349"/>
			<point x="314" y="295"/>
			<point x="314" y="232" type="curve" smooth="yes"/>
			<point x="315" y="177"/>
			<point x="287" y="117"/>
			<point x="210" y="117" type="curve" smooth="yes"/>
			<point x="147" y="117" type="line" smooth="yes"/>
			<point x="93" y="117"/>
			<point x="55" y="93"/>
			<point x="55" y="47" type="curve" smooth="yes"/>
			<point x="55" y="21"/>
			<point x="75" y="0"/>
		</contour>
	</outline>
</glyph>
<glyph name="tmE" format="2">
	<advance width="601"/>
	<unicode hex="0B8E"/>
	<outline>
		<contour>
			<point x="83" y="163" type="curve" smooth="yes"/>
			<point x="83" y="276"/>
			<point x="160" y="322"/>
			<point x="288" y="322" type="curve" smooth="yes"/>
			<point x="439" y="322" type="line"/>
			<point x="414" y="345" type="line"/>
			<point x="414" y="294"/>
			<point x="414" y="289"/>
			<point x="413" y="234" type="curve" smooth="yes"/>
			<point x="412" y="0" type="line"/>
			<point x="468" y="0" type="line"/>
			<point x="468" y="112"/>
			<point x="468" y="225"/>
			<point x="468" y="337" type="curve"/>
			<point x="453" y="322" type="line"/>
			<point x="586" y="322" type="line"/>
			<point x="585" y="330"/>
			<point x="583" y="341"/>
			<point x="581" y="350" type="curve" smooth="yes"/>
			<point x="580" y="355"/>
			<point x="578" y="359"/>
			<point x="577" y="361" type="curve"/>
			<point x="480" y="359"/>
			<point x="310" y="355"/>
			<point x="281" y="355" type="curve" smooth="yes"/>
			<point x="124" y="355"/>
			<point x="48" y="275"/>
			<point x="48" y="160" type="curve" smooth="yes"/>
			<point x="48" y="73"/>
			<point x="113" y="-17"/>
			<point x="219" y="-16" type="curve" smooth="yes"/>
			<point x="308" y="-16"/>
			<point x="340" y="47"/>
			<point x="340" y="94" type="curve" smooth="yes"/>
			<point x="340" y="154"/>
			<point x="297" y="187"/>
			<point x="246" y="188" type="curve" smooth="yes"/>
			<point x="185" y="189"/>
			<point x="133" y="143"/>
			<point x="133" y="72" type="curve" smooth="yes"/>
			<point x="133" y="33"/>
			<point x="158" y="12"/>
			<point x="170" y="-2" type="curve"/>
			<point x="178" y="9" type="line"/>
			<point x="169" y="25"/>
			<point x="160" y="37"/>
			<point x="160" y="63" type="curve" smooth="yes"/>
			<point x="160" y="115"/>
			<point x="198" y="139"/>
			<point x="230" y="139" type="curve" smooth="yes"/>
			<point x="265" y="139"/>
			<point x="289" y="117"/>
			<point x="289" y="87" type="curve" smooth="yes"/>
			<point x="289" y="53"/>
			<point x="267" y="19"/>
			<point x="212" y="19" type="curve" smooth="yes"/>
			<point x="155" y="19"/>
			<point x="83" y="67"/>
		</contour>
	</outline>
</glyph>
<glyph name="tmEe" format="2">
	<advance width="601"/>
	<unicode hex="0B8F"/>
	<outline>
		<contour>
			<point x="228" y="-153" type="curve"/>
			<point x="301" y="-108"/>
			<point x="382" y="-57"/>
			<point x="465" y="-9" type="curve"/>
			<point x="468" y="2" type="line"/>
			<point x="413" y="22" type="line"/>
			<point x="382" y="-2"/>
			<point x="290" y="-78"/>
			<point x="219" y="-132" type="curve"/>
			<point x="221" y="-143"/>
			<point x="227" y="-150"/>
		</contour>
		<component base="tmE" yOffset="1"/>
	</outline>
</glyph>
<glyph name="tmAi" format="2">
	<advance width="684"/>
	<unicode hex="0B90"/>
	<outline>
		<contour>
			<point x="492" y="-163" type="curve" smooth="yes"/>
			<point x="593" y="-163"/>
			<point x="635" y="-85"/>
			<point x="636" y="-27" type="curve" smooth="yes"/>
			<point x="637" y="33"/>
			<point x="614" y="61"/>
			<point x="599" y="73" type="curve"/>
			<point x="578" y="76"/>
			<point x="556" y="62"/>
			<point x="548" y="52" type="curve"/>
			<point x="569" y="37"/>
			<point x="595" y="14"/>
			<point x="594" y="-33" type="curve" smooth="yes"/>
			<point x="593" y="-76"/>
			<point x="563" y="-118"/>
			<point x="495" y="-118" type="curve" smooth="yes"/>
			<point x="423" y="-119"/>
			<point x="382" y="-71"/>
			<point x="382" y="-2" type="curve" smooth="yes"/>
			<point x="382" y="22" type="line"/>
			<point x="371" y="24"/>
			<point x="353" y="23"/>
			<point x="335" y="20" type="curve"/>
			<point x="335" y="0" type="line" smooth="yes"/>
			<point x="335" y="-69"/>
			<point x="276" y="-117"/>
			<point x="217" y="-117" type="curve" smooth="yes"/>
			<point x="143" y="-117"/>
			<point x="111" y="-74"/>
			<point x="111" y="-20" type="curve" smooth="yes"/>
			<point x="111" y="50"/>
			<point x="157" y="87"/>
			<point x="232" y="87" type="curve" smooth="yes"/>
			<point x="426" y="88" type="line" smooth="yes"/>
			<point x="530" y="89"/>
			<point x="626" y="156"/>
			<point x="626" y="261" type="curve" smooth="yes"/>
			<point x="626" y="355"/>
			<point x="563" y="402"/>
			<point x="483" y="402" type="curve" smooth="yes"/>
			<point x="418" y="402"/>
			<point x="367" y="363"/>
			<point x="350" y="300" type="curve"/>
			<point x="356" y="298"/>
			<point x="363" y="297"/>
			<point x="371" y="295" type="curve"/>
			<point x="358" y="363"/>
			<point x="294" y="405"/>
			<point x="217" y="405" type="curve" smooth="yes"/>
			<point x="140" y="405"/>
			<point x="64" y="350"/>
			<point x="64" y="256" type="curve" smooth="yes"/>
			<point x="64" y="193"/>
			<point x="107" y="154"/>
			<point x="164" y="154" type="curve" smooth="yes"/>
			<point x="219" y="154"/>
			<point x="255" y="192"/>
			<point x="255" y="240" type="curve" smooth="yes"/>
			<point x="255" y="286"/>
			<point x="222" y="319"/>
			<point x="173" y="319" type="curve" smooth="yes"/>
			<point x="129" y="319"/>
			<point x="99" y="289"/>
			<point x="87" y="258" type="curve" smooth="yes"/>
			<point x="85" y="253"/>
			<point x="84" y="248"/>
			<point x="83" y="243" type="curve"/>
			<point x="95" y="222" type="line"/>
			<point x="95" y="226"/>
			<point x="95" y="230"/>
			<point x="96" y="234" type="curve" smooth="yes"/>
			<point x="102" y="258"/>
			<point x="124" y="282"/>
			<point x="157" y="282" type="curve" smooth="yes"/>
			<point x="188" y="282"/>
			<point x="204" y="255"/>
			<point x="204" y="235" type="curve" smooth="yes"/>
			<point x="204" y="206"/>
			<point x="186" y="191"/>
			<point x="156" y="191" type="curve" smooth="yes"/>
			<point x="120" y="191"/>
			<point x="97" y="219"/>
			<point x="97" y="255" type="curve" smooth="yes"/>
			<point x="97" y="320"/>
			<point x="140" y="367"/>
			<point x="210" y="367" type="curve" smooth="yes"/>
			<point x="275" y="367"/>
			<point x="330" y="314"/>
			<point x="330" y="225" type="curve" smooth="yes"/>
			<point x="330" y="217"/>
			<point x="330" y="209"/>
			<point x="330" y="201" type="curve"/>
			<point x="344" y="201"/>
			<point x="362" y="201"/>
			<point x="378" y="204" type="curve"/>
			<point x="378" y="254" type="line" smooth="yes"/>
			<point x="378" y="314"/>
			<point x="420" y="362"/>
			<point x="471" y="362" type="curve" smooth="yes"/>
			<point x="536" y="362"/>
			<point x="563" y="313"/>
			<point x="563" y="261" type="curve" smooth="yes"/>
			<point x="563" y="170"/>
			<point x="489" y="128"/>
			<point x="395" y="127" type="curve" smooth="yes"/>
			<point x="241" y="125" type="line" smooth="yes"/>
			<point x="146" y="124"/>
			<point x="51" y="87"/>
			<point x="51" y="-27" type="curve" smooth="yes"/>
			<point x="51" y="-97"/>
			<point x="101" y="-162"/>
			<point x="202" y="-162" type="curve" smooth="yes"/>
			<point x="301" y="-162"/>
			<point x="353" y="-95"/>
			<point x="357" y="-56" type="curve"/>
			<point x="352" y="-50" type="line"/>
			<point x="352" y="-96"/>
			<point x="392" y="-163"/>
		</contour>
	</outline>
</glyph>
<glyph name="tmO" format="2">
	<advance width="554"/>
	<unicode hex="0B92"/>
	<outline>
		<contour>
			<point x="409" y="-33" type="line"/>
			<point x="471" y="-33" type="line"/>
			<point x="473" y="-23"/>
			<point x="474" y="-3"/>
			<point x="473" y="6" type="curve"/>
			<point x="457" y="4"/>
			<point x="431" y="3"/>
			<point x="416" y="3" type="curve" smooth="yes"/>
			<point x="363" y="3"/>
			<point x="292" y="30"/>
			<point x="290" y="96" type="curve" smooth="yes"/>
			<point x="289" y="137"/>
			<point x="306" y="168"/>
			<point x="344" y="181" type="curve"/>
			<point x="341" y="187" type="line"/>
			<point x="334" y="173"/>
			<point x="318" y="159"/>
			<point x="318" y="126" type="curve" smooth="yes"/>
			<point x="318" y="81"/>
			<point x="350" y="54"/>
			<point x="396" y="54" type="curve" smooth="yes"/>
			<point x="468" y="54"/>
			<point x="514" y="113"/>
			<point x="512" y="198" type="curve" smooth="yes"/>
			<point x="509" y="336"/>
			<point x="400" y="403"/>
			<point x="274" y="402" type="curve" smooth="yes"/>
			<point x="131" y="401"/>
			<point x="41" y="308"/>
			<point x="41" y="196" type="curve" smooth="yes"/>
			<point x="41" y="120"/>
			<point x="84" y="78"/>
			<point x="142" y="78" type="curve" smooth="yes"/>
			<point x="203" y="78"/>
			<point x="241" y="117"/>
			<point x="241" y="166" type="curve" smooth="yes"/>
			<point x="241" y="213"/>
			<point x="206" y="246"/>
			<point x="157" y="246" type="curve" smooth="yes"/>
			<point x="117" y="246"/>
			<point x="77" y="217"/>
			<point x="60" y="177" type="curve"/>
			<point x="69" y="153" type="line"/>
			<point x="81" y="184"/>
			<point x="108" y="206"/>
			<point x="137" y="205" type="curve" smooth="yes"/>
			<point x="168" y="205"/>
			<point x="186" y="184"/>
			<point x="185" y="158" type="curve" smooth="yes"/>
			<point x="185" y="136"/>
			<point x="169" y="111"/>
			<point x="136" y="111" type="curve" smooth="yes"/>
			<point x="100" y="111"/>
			<point x="70" y="141"/>
			<point x="70" y="193" type="curve" smooth="yes"/>
			<point x="70" y="306"/>
			<point x="170" y="365"/>
			<point x="259" y="365" type="curve" smooth="yes"/>
			<point x="378" y="365"/>
			<point x="455" y="291"/>
			<point x="455" y="199" type="curve" smooth="yes"/>
			<point x="455" y="144"/>
			<point x="434" y="89"/>
			<point x="390" y="89" type="curve" smooth="yes"/>
			<point x="368" y="89"/>
			<point x="349" y="101"/>
			<point x="349" y="135" type="curve" smooth="yes"/>
			<point x="349" y="154"/>
			<point x="358" y="174"/>
			<point x="364" y="187" type="curve"/>
			<point x="360" y="195"/>
			<point x="355" y="203"/>
			<point x="347" y="209" type="curve"/>
			<point x="309" y="203"/>
			<point x="259" y="163"/>
			<point x="259" y="91" type="curve" smooth="yes"/>
			<point x="259" y="38"/>
			<point x="299" y="-13"/>
			<point x="366" y="-28" type="curve"/>
		</contour>
		<contour>
			<point x="203" y="-146" type="curve" smooth="yes"/>
			<point x="320" y="-144"/>
			<point x="317" y="-38"/>
			<point x="383" y="-33" type="curve"/>
			<point x="440" y="-33" type="line"/>
			<point x="391" y="-2" type="line"/>
			<point x="373" y="-2" type="line" smooth="yes"/>
			<point x="305" y="-4"/>
			<point x="284" y="-27"/>
			<point x="252" y="-77" type="curve" smooth="yes"/>
			<point x="239" y="-95"/>
			<point x="222" y="-111"/>
			<point x="193" y="-111" type="curve" smooth="yes"/>
			<point x="155" y="-111"/>
			<point x="132" y="-94"/>
			<point x="132" y="-67" type="curve" smooth="yes"/>
			<point x="132" y="-52"/>
			<point x="140" y="-37"/>
			<point x="162" y="-27" type="curve"/>
			<point x="156" y="-17"/>
			<point x="138" y="-2"/>
			<point x="127" y="2" type="curve"/>
			<point x="109" y="-15"/>
			<point x="100" y="-37"/>
			<point x="100" y="-64" type="curve" smooth="yes"/>
			<point x="100" y="-108"/>
			<point x="137" y="-147"/>
		</contour>
	</outline>
</glyph>
<glyph name="tmOo" format="2">
	<advance width="556"/>
	<unicode hex="0B93"/>
	<outline>
		<contour>
			<point x="409" y="-33" type="line"/>
			<point x="471" y="-33" type="line"/>
			<point x="473" y="-23"/>
			<point x="474" y="-3"/>
			<point x="473" y="6" type="curve"/>
			<point x="457" y="4"/>
			<point x="431" y="3"/>
			<point x="416" y="3" type="curve" smooth="yes"/>
			<point x="363" y="3"/>
			<point x="295" y="40"/>
			<point x="293" y="92" type="curve" smooth="yes"/>
			<point x="292" y="126"/>
			<point x="311" y="165"/>
			<point x="338" y="176" type="curve"/>
			<point x="336" y="187" type="line"/>
			<point x="329" y="173"/>
			<point x="320" y="159"/>
			<point x="320" y="129" type="curve" smooth="yes"/>
			<point x="320" y="88"/>
			<point x="351" y="54"/>
			<point x="397" y="54" type="curve" smooth="yes"/>
			<point x="468" y="54"/>
			<point x="511" y="113"/>
			<point x="509" y="198" type="curve" smooth="yes"/>
			<point x="506" y="336"/>
			<point x="380" y="403"/>
			<point x="269" y="402" type="curve" smooth="yes"/>
			<point x="126" y="401"/>
			<point x="42" y="302"/>
			<point x="41" y="189" type="curve" smooth="yes"/>
			<point x="41" y="120"/>
			<point x="84" y="78"/>
			<point x="139" y="78" type="curve" smooth="yes"/>
			<point x="195" y="78"/>
			<point x="229" y="117"/>
			<point x="229" y="165" type="curve" smooth="yes"/>
			<point x="229" y="205"/>
			<point x="199" y="241"/>
			<point x="150" y="241" type="curve" smooth="yes"/>
			<point x="115" y="241"/>
			<point x="75" y="217"/>
			<point x="58" y="177" type="curve"/>
			<point x="69" y="153" type="line"/>
			<point x="81" y="184"/>
			<point x="107" y="207"/>
			<point x="136" y="206" type="curve" smooth="yes"/>
			<point x="167" y="206"/>
			<point x="187" y="183"/>
			<point x="186" y="157" type="curve"/>
			<point x="186" y="135"/>
			<point x="169" y="111"/>
			<point x="136" y="111" type="curve" smooth="yes"/>
			<point x="100" y="111"/>
			<point x="72" y="146"/>
			<point x="72" y="186" type="curve" smooth="yes"/>
			<point x="74" y="298"/>
			<point x="156" y="367"/>
			<point x="267" y="367" type="curve" smooth="yes"/>
			<point x="378" y="366"/>
			<point x="455" y="291"/>
			<point x="455" y="199" type="curve" smooth="yes"/>
			<point x="455" y="144"/>
			<point x="434" y="89"/>
			<point x="397" y="89" type="curve" smooth="yes"/>
			<point x="368" y="89"/>
			<point x="350" y="113"/>
			<point x="350" y="135" type="curve" smooth="yes"/>
			<point x="350" y="154"/>
			<point x="358" y="174"/>
			<point x="364" y="187" type="curve"/>
			<point x="360" y="195"/>
			<point x="355" y="203"/>
			<point x="347" y="209" type="curve"/>
			<point x="309" y="203"/>
			<point x="259" y="158"/>
			<point x="260" y="89" type="curve" smooth="yes"/>
			<point x="260" y="42"/>
			<point x="299" y="-11"/>
			<point x="365" y="-28" type="curve"/>
		</contour>
		<contour>
			<point x="210" y="-148" type="curve" smooth="yes"/>
			<point x="328" y="-146"/>
			<point x="328" y="-38"/>
			<point x="393" y="-33" type="curve"/>
			<point x="450" y="-33" type="line"/>
			<point x="401" y="-2" type="line"/>
			<point x="383" y="-2" type="line" smooth="yes"/>
			<point x="315" y="-4"/>
			<point x="294" y="-27"/>
			<point x="262" y="-77" type="curve" smooth="yes"/>
			<point x="249" y="-95"/>
			<point x="231" y="-111"/>
			<point x="205" y="-111" type="curve" smooth="yes"/>
			<point x="157" y="-111"/>
			<point x="123" y="-85"/>
			<point x="123" y="-49" type="curve" smooth="yes"/>
			<point x="123" y="-28"/>
			<point x="134" y="-12"/>
			<point x="157" y="-12" type="curve" smooth="yes"/>
			<point x="170" y="-12"/>
			<point x="190" y="-18"/>
			<point x="190" y="-43" type="curve" smooth="yes"/>
			<point x="190" y="-77"/>
			<point x="166" y="-87"/>
			<point x="139" y="-96" type="curve"/>
			<point x="160" y="-108" type="line"/>
			<point x="187" y="-105"/>
			<point x="231" y="-82"/>
			<point x="231" y="-30" type="curve" smooth="yes"/>
			<point x="231" y="5"/>
			<point x="200" y="28"/>
			<point x="164" y="28" type="curve" smooth="yes"/>
			<point x="139" y="28"/>
			<point x="93" y="12"/>
			<point x="93" y="-51" type="curve" smooth="yes"/>
			<point x="93" y="-109"/>
			<point x="145" y="-149"/>
		</contour>
	</outline>
</glyph>
<glyph name="tmKa" format="2">
	<advance width="568"/>
	<unicode hex="0B95"/>
	<outline>
		<contour>
			<point x="200" y="-14" type="curve" smooth="yes"/>
			<point x="305" y="-14"/>
			<point x="361" y="50"/>
			<point x="360" y="144" type="curve"/>
			<point x="360" y="191" type="line" smooth="yes"/>
			<point x="360" y="232"/>
			<point x="359" y="266"/>
			<point x="360" y="324" type="curve"/>
			<point x="470" y="324" type="line"/>
			<point x="469" y="331"/>
			<point x="467" y="342"/>
			<point x="465" y="351" type="curve" smooth="yes"/>
			<point x="464" y="355"/>
			<point x="462" y="359"/>
			<point x="461" y="361" type="curve"/>
			<point x="372" y="355"/>
			<point x="249" y="356"/>
			<point x="143" y="355" type="curve"/>
			<point x="145" y="320"/>
			<point x="146" y="279"/>
			<point x="146" y="234" type="curve" smooth="yes"/>
			<point x="146" y="203"/>
			<point x="142" y="184"/>
			<point x="142" y="184" type="curve"/>
			<point x="181" y="184" type="line"/>
			<point x="181" y="200"/>
			<point x="181" y="215"/>
			<point x="181" y="231" type="curve" smooth="yes"/>
			<point x="181" y="275"/>
			<point x="179" y="298"/>
			<point x="180" y="348" type="curve"/>
			<point x="165" y="324" type="line"/>
			<point x="302" y="324" type="line"/>
			<point x="302" y="294"/>
			<point x="302" y="264"/>
			<point x="302" y="234" type="curve"/>
			<point x="301" y="191" type="line"/>
			<point x="299" y="141" type="line" smooth="yes"/>
			<point x="297" y="63"/>
			<point x="260" y="23"/>
			<point x="195" y="23" type="curve" smooth="yes"/>
			<point x="127" y="23"/>
			<point x="82" y="62"/>
			<point x="82" y="106" type="curve" smooth="yes"/>
			<point x="82" y="147"/>
			<point x="108" y="173"/>
			<point x="162" y="173" type="curve" smooth="yes"/>
			<point x="387" y="173" type="line" smooth="yes"/>
			<point x="440" y="173"/>
			<point x="461" y="144"/>
			<point x="461" y="104" type="curve" smooth="yes"/>
			<point x="461" y="60"/>
			<point x="437" y="12"/>
			<point x="374" y="12" type="curve"/>
			<point x="373" y="7"/>
			<point x="374" y="-11"/>
			<point x="375" y="-14" type="curve"/>
			<point x="466" y="-14"/>
			<point x="523" y="28"/>
			<point x="521" y="112" type="curve" smooth="yes"/>
			<point x="520" y="154"/>
			<point x="492" y="206"/>
			<point x="409" y="207" type="curve" smooth="yes"/>
			<point x="166" y="206" type="line" smooth="yes"/>
			<point x="93" y="204"/>
			<point x="49" y="170"/>
			<point x="48" y="104" type="curve" smooth="yes"/>
			<point x="47" y="46"/>
			<point x="93" y="-14"/>
		</contour>
	</outline>
	<anchor name="Anchor-0" x="328" y="476"/>
</glyph>
<glyph name="tmJa" format="2">
	<advance width="671"/>
	<unicode hex="0B9C"/>
	<outline>
		<contour>
			<point x="504" y="-170" type="curve" smooth="yes"/>
			<point x="578" y="-170"/>
			<point x="627" y="-124"/>
			<point x="627" y="-63" type="curve" smooth="yes"/>
			<point x="627" y="-1"/>
			<point x="585" y="42"/>
			<point x="517" y="42" type="curve" smooth="yes"/>
			<point x="435" y="42"/>
			<point x="386" y="-13"/>
			<point x="336" y="-59" type="curve" smooth="yes"/>
			<point x="300" y="-93"/>
			<point x="262" y="-122"/>
			<point x="206" y="-122" type="curve" smooth="yes"/>
			<point x="143" y="-122"/>
			<point x="110" y="-78"/>
			<point x="110" y="-28" type="curve" smooth="yes"/>
			<point x="110" y="45"/>
			<point x="167" y="86"/>
			<point x="242" y="87" type="curve" smooth="yes"/>
			<point x="426" y="88" type="line" smooth="yes"/>
			<point x="530" y="89"/>
			<point x="626" y="155"/>
			<point x="626" y="261" type="curve" smooth="yes"/>
			<point x="626" y="353"/>
			<point x="568" y="402"/>
			<point x="488" y="402" type="curve" smooth="yes"/>
			<point x="423" y="402"/>
			<point x="368" y="363"/>
			<point x="351" y="300" type="curve"/>
			<point x="357" y="298"/>
			<point x="363" y="297"/>
			<point x="371" y="295" type="curve"/>
			<point x="358" y="363"/>
			<point x="294" y="405"/>
			<point x="217" y="405" type="curve" smooth="yes"/>
			<point x="140" y="405"/>
			<point x="65" y="350"/>
			<point x="65" y="256" type="curve" smooth="yes"/>
			<point x="65" y="193"/>
			<point x="107" y="154"/>
			<point x="164" y="154" type="curve" smooth="yes"/>
			<point x="219" y="154"/>
			<point x="255" y="192"/>
			<point x="255" y="240" type="curve" smooth="yes"/>
			<point x="255" y="286"/>
			<point x="222" y="319"/>
			<point x="173" y="319" type="curve" smooth="yes"/>
			<point x="127" y="319"/>
			<point x="96" y="286"/>
			<point x="85" y="253" type="curve" smooth="yes"/>
			<point x="84" y="250"/>
			<point x="84" y="246"/>
			<point x="83" y="243" type="curve"/>
			<point x="95" y="222" type="line"/>
			<point x="95" y="226"/>
			<point x="96" y="230"/>
			<point x="97" y="235" type="curve" smooth="yes"/>
			<point x="102" y="259"/>
			<point x="124" y="282"/>
			<point x="154" y="282" type="curve" smooth="yes"/>
			<point x="188" y="282"/>
			<point x="204" y="260"/>
			<point x="204" y="238" type="curve" smooth="yes"/>
			<point x="204" y="208"/>
			<point x="186" y="191"/>
			<point x="156" y="191" type="curve" smooth="yes"/>
			<point x="133" y="191"/>
			<point x="97" y="206"/>
			<point x="97" y="255" type="curve" smooth="yes"/>
			<point x="97" y="320"/>
			<point x="140" y="367"/>
			<point x="210" y="367" type="curve" smooth="yes"/>
			<point x="275" y="367"/>
			<point x="330" y="314"/>
			<point x="330" y="231" type="curve" smooth="yes"/>
			<point x="330" y="221"/>
			<point x="330" y="211"/>
			<point x="330" y="201" type="curve"/>
			<point x="344" y="201"/>
			<point x="362" y="201"/>
			<point x="378" y="204" type="curve"/>
			<point x="378" y="248" type="line" smooth="yes"/>
			<point x="378" y="314"/>
			<point x="423" y="361"/>
			<point x="474" y="361" type="curve" smooth="yes"/>
			<point x="539" y="361"/>
			<point x="563" y="313"/>
			<point x="563" y="261" type="curve" smooth="yes"/>
			<point x="563" y="170"/>
			<point x="489" y="128"/>
			<point x="395" y="127" type="curve" smooth="yes"/>
			<point x="242" y="125" type="line" smooth="yes"/>
			<point x="156" y="124"/>
			<point x="51" y="74"/>
			<point x="51" y="-33" type="curve" smooth="yes"/>
			<point x="51" y="-104"/>
			<point x="94" y="-166"/>
			<point x="196" y="-166" type="curve" smooth="yes"/>
			<point x="276" y="-166"/>
			<point x="326" y="-126"/>
			<point x="370" y="-85" type="curve" smooth="yes"/>
			<point x="413" y="-45"/>
			<point x="451" y="-6"/>
			<point x="501" y="-6" type="curve" smooth="yes"/>
			<point x="541" y="-6"/>
			<point x="564" y="-37"/>
			<point x="564" y="-73" type="curve" smooth="yes"/>
			<point x="564" y="-95"/>
			<point x="554" y="-140"/>
			<point x="507" y="-140" type="curve" smooth="yes"/>
			<point x="468" y="-140"/>
			<point x="438" y="-116"/>
			<point x="413" y="-88" type="curve"/>
			<point x="408" y="-94"/>
			<point x="398" y="-121"/>
			<point x="399" y="-149" type="curve"/>
			<point x="426" y="-163"/>
			<point x="474" y="-170"/>
		</contour>
	</outline>
</glyph>
<glyph name="tmNya" format="2">
	<advance width="831"/>
	<unicode hex="0B9E"/>
	<outline>
		<contour>
			<point x="421" y="-212" type="curve" smooth="yes"/>
			<point x="661" y="-212"/>
			<point x="779" y="-81"/>
			<point x="778" y="54" type="curve" smooth="yes"/>
			<point x="777" y="164"/>
			<point x="724" y="214"/>
			<point x="659" y="215" type="curve" smooth="yes"/>
			<point x="606" y="215"/>
			<point x="568" y="183"/>
			<point x="564" y="122" type="curve"/>
			<point x="584" y="118" type="line"/>
			<point x="585" y="155"/>
			<point x="605" y="176"/>
			<point x="640" y="177" type="curve" smooth="yes"/>
			<point x="698" y="177"/>
			<point x="717" y="124"/>
			<point x="717" y="66" type="curve" smooth="yes"/>
			<point x="717" y="-89"/>
			<point x="577" y="-174"/>
			<point x="409" y="-173" type="curve" smooth="yes"/>
			<point x="204" y="-171"/>
			<point x="76" y="-43"/>
			<point x="78" y="110" type="curve" smooth="yes"/>
			<point x="79" y="217"/>
			<point x="130" y="304"/>
			<point x="203" y="359" type="curve"/>
			<point x="195" y="371"/>
			<point x="184" y="383"/>
			<point x="172" y="388" type="curve"/>
			<point x="115" y="344"/>
			<point x="46" y="242"/>
			<point x="45" y="108" type="curve" smooth="yes"/>
			<point x="43" y="-62"/>
			<point x="175" y="-212"/>
		</contour>
		<component base="tmE" xOffset="138"/>
	</outline>
	<anchor name="Anchor-3" x="587" y="355"/>
</glyph>
<glyph name="tmTta" format="2">
	<advance width="567"/>
	<unicode hex="0B9F"/>
	<outline>
		<contour>
			<point x="56" y="0" type="curve"/>
			<point x="544" y="0" type="line"/>
			<point x="544" y="13"/>
			<point x="540" y="34"/>
			<point x="536" y="42" type="curve"/>
			<point x="435" y="35"/>
			<point x="339" y="36"/>
			<point x="252" y="35" type="curve" smooth="yes"/>
			<point x="117" y="35" type="line"/>
			<point x="117" y="355" type="line"/>
			<point x="100" y="356"/>
			<point x="71" y="353"/>
			<point x="60" y="351" type="curve"/>
			<point x="60" y="93" type="line" smooth="yes"/>
			<point x="60" y="66"/>
			<point x="57" y="16"/>
		</contour>
	</outline>
	<anchor name="Anchor-0" x="319" y="432"/>
</glyph>
<glyph name="tmNna" format="2">
	<advance width="1161"/>
	<unicode hex="0BA3"/>
	<outline>
		<contour>
			<point x="215" y="-16" type="curve" smooth="yes"/>
			<point x="297" y="-16"/>
			<point x="330" y="47"/>
			<point x="331" y="94" type="curve" smooth="yes"/>
			<point x="331" y="151"/>
			<point x="288" y="188"/>
			<point x="236" y="188" type="curve" smooth="yes"/>
			<point x="172" y="189"/>
			<point x="128" y="139"/>
			<point x="127" y="75" type="curve" smooth="yes"/>
			<point x="126" y="33"/>
			<point x="141" y="20"/>
			<point x="154" y="6" type="curve"/>
			<point x="165" y="16" type="line"/>
			<point x="155" y="32"/>
			<point x="151" y="45"/>
			<point x="153" y="76" type="curve" smooth="yes"/>
			<point x="155" y="119"/>
			<point x="188" y="141"/>
			<point x="219" y="141" type="curve" smooth="yes"/>
			<point x="253" y="141"/>
			<point x="278" y="116"/>
			<point x="278" y="84" type="curve" smooth="yes"/>
			<point x="278" y="50"/>
			<point x="256" y="20"/>
			<point x="208" y="20" type="curve" smooth="yes"/>
			<point x="142" y="20"/>
			<point x="85" y="64"/>
			<point x="85" y="145" type="curve"/>
			<point x="84" y="261"/>
			<point x="191" y="337"/>
			<point x="304" y="335" type="curve" smooth="yes"/>
			<point x="428" y="333"/>
			<point x="543" y="244"/>
			<point x="542" y="118" type="curve" smooth="yes"/>
			<point x="542" y="64"/>
			<point x="517" y="24"/>
			<point x="480" y="24" type="curve" smooth="yes"/>
			<point x="443" y="24"/>
			<point x="416" y="62"/>
			<point x="416" y="125" type="curve" smooth="yes"/>
			<point x="416" y="266"/>
			<point x="518" y="335"/>
			<point x="622" y="334" type="curve" smooth="yes"/>
			<point x="734" y="333"/>
			<point x="810" y="258"/>
			<point x="811" y="128" type="curve" smooth="yes"/>
			<point x="811" y="71"/>
			<point x="791" y="25"/>
			<point x="756" y="25" type="curve" smooth="yes"/>
			<point x="724" y="25"/>
			<point x="698" y="50"/>
			<point x="698" y="112" type="curve"/>
			<point x="697" y="253"/>
			<point x="817" y="325"/>
			<point x="906" y="322" type="curve" smooth="yes"/>
			<point x="971" y="322" type="line"/>
			<point x="971" y="294"/>
			<point x="970" y="275"/>
			<point x="970" y="234" type="curve" smooth="yes"/>
			<point x="969" y="0" type="line"/>
			<point x="1027" y="0" type="line"/>
			<point x="1027" y="322" type="line"/>
			<point x="1139" y="322" type="line"/>
			<point x="1138" y="334"/>
			<point x="1134" y="354"/>
			<point x="1130" y="361" type="curve"/>
			<point x="1033" y="355"/>
			<point x="989" y="356"/>
			<point x="902" y="355" type="curve" smooth="yes"/>
			<point x="767" y="355"/>
			<point x="664" y="242"/>
			<point x="663" y="111" type="curve" smooth="yes"/>
			<point x="663" y="36"/>
			<point x="694" y="-13"/>
			<point x="758" y="-13" type="curve" smooth="yes"/>
			<point x="825" y="-13"/>
			<point x="865" y="65"/>
			<point x="865" y="132" type="curve" smooth="yes"/>
			<point x="866" y="274"/>
			<point x="768" y="371"/>
			<point x="625" y="370" type="curve" smooth="yes"/>
			<point x="478" y="369"/>
			<point x="377" y="260"/>
			<point x="377" y="120" type="curve" smooth="yes"/>
			<point x="377" y="46"/>
			<point x="413" y="-13"/>
			<point x="481" y="-13" type="curve" smooth="yes"/>
			<point x="548" y="-13"/>
			<point x="597" y="53"/>
			<point x="597" y="131" type="curve" smooth="yes"/>
			<point x="598" y="277"/>
			<point x="456" y="373"/>
			<point x="306" y="371" type="curve" smooth="yes"/>
			<point x="172" y="370"/>
			<point x="52" y="283"/>
			<point x="51" y="142" type="curve" smooth="yes"/>
			<point x="50" y="53"/>
			<point x="111" y="-17"/>
		</contour>
	</outline>
	<anchor name="Anchor-3" x="980" y="355"/>
	<anchor name="Anchor-0" x="601" y="476"/>
</glyph>
<glyph name="tmTa" format="2">
	<advance width="953"/>
	<unicode hex="0BA4"/>
	<outline>
		<contour>
			<point x="526" y="365" type="curve"/>
			<point x="585" y="485" type="line" smooth="yes"/>
			<point x="589" y="494"/>
			<point x="594" y="500"/>
			<point x="604" y="500" type="curve" smooth="yes"/>
			<point x="803" y="500" type="line" smooth="yes"/>
			<point x="859" y="500"/>
			<point x="894" y="483"/>
			<point x="910" y="454" type="curve" smooth="yes"/>
			<point x="914" y="447"/>
			<point x="920" y="430"/>
			<point x="906" y="422" type="curve" smooth="yes"/>
			<point x="894" y="415"/>
			<point x="882" y="416"/>
			<point x="873" y="427" type="curve" smooth="yes"/>
			<point x="860" y="443"/>
			<point x="846" y="453"/>
			<point x="800" y="453" type="curve"/>
			<point x="764" y="361" type="line"/>
			<point x="847" y="357"/>
			<point x="923" y="306"/>
			<point x="923" y="206" type="curve" smooth="yes"/>
			<point x="923" y="27"/>
			<point x="746" y="-199"/>
			<point x="414" y="-199" type="curve" smooth="yes"/>
			<point x="197" y="-199"/>
			<point x="30" y="-62"/>
			<point x="30" y="108" type="curve" smooth="yes"/>
			<point x="30" y="358"/>
			<point x="266" y="500"/>
			<point x="526" y="500" type="curve" smooth="yes"/>
			<point x="542" y="500"/>
			<point x="546" y="488"/>
			<point x="545" y="477" type="curve" smooth="yes"/>
			<point x="544" y="464"/>
			<point x="535" y="454"/>
			<point x="526" y="454" type="curve" smooth="yes"/>
			<point x="305" y="454"/>
			<point x="76" y="339"/>
			<point x="76" y="108" type="curve" smooth="yes"/>
			<point x="76" y="-24"/>
			<point x="215" y="-154"/>
			<point x="415" y="-154" type="curve" smooth="yes"/>
			<point x="683" y="-154"/>
			<point x="877" y="32"/>
			<point x="877" y="203" type="curve" smooth="yes"/>
			<point x="877" y="250"/>
			<point x="832" y="314"/>
			<point x="746" y="314" type="curve"/>
			<point x="704" y="203"/>
			<point x="636" y="122"/>
			<point x="515" y="122" type="curve" smooth="yes"/>
			<point x="431" y="122"/>
			<point x="368" y="168"/>
			<point x="368" y="230" type="curve" smooth="yes"/>
			<point x="368" y="298"/>
			<point x="421" y="365"/>
		</contour>
		<contour>
			<point x="582" y="376" type="line" smooth="yes"/>
			<point x="578" y="367"/>
			<point x="583" y="365"/>
			<point x="591" y="365" type="curve" smooth="yes"/>
			<point x="717" y="361" type="line"/>
			<point x="754" y="453" type="line"/>
			<point x="618" y="453" type="line"/>
		</contour>
		<contour>
			<point x="506" y="318" type="line"/>
			<point x="449" y="318"/>
			<point x="415" y="278"/>
			<point x="415" y="234" type="curve" smooth="yes"/>
			<point x="415" y="195"/>
			<point x="459" y="167"/>
			<point x="518" y="167" type="curve" smooth="yes"/>
			<point x="617" y="167"/>
			<point x="668" y="242"/>
			<point x="697" y="311" type="curve" smooth="yes"/>
			<point x="700" y="318"/>
			<point x="699" y="318"/>
			<point x="688" y="318" type="curve" smooth="yes"/>
			<point x="684" y="318"/>
			<point x="586" y="318"/>
			<point x="567" y="318" type="curve" smooth="yes"/>
			<point x="557" y="318"/>
			<point x="553" y="314"/>
			<point x="549" y="305" type="curve" smooth="yes"/>
			<point x="517" y="237" type="line" smooth="yes"/>
			<point x="511" y="224"/>
			<point x="497" y="217"/>
			<point x="483" y="224" type="curve" smooth="yes"/>
			<point x="474" y="228"/>
			<point x="467" y="240"/>
			<point x="473" y="252" type="curve" smooth="yes"/>
		</contour>
	</outline>
	<anchor name="Anchor-0" x="301" y="476"/>
	<anchor name="Anchor-3" x="309" y="355"/>
</glyph>
<glyph name="tmNa" format="2">
	<advance width="532"/>
	<unicode hex="0BA8"/>
	<outline>
		<contour>
			<point x="82" y="-224" type="curve" smooth="yes"/>
			<point x="114" y="-224"/>
			<point x="133" y="-207"/>
			<point x="134" y="-182" type="curve"/>
			<point x="133" y="-177"/>
			<point x="128" y="-167"/>
			<point x="123" y="-162" type="curve"/>
			<point x="111" y="-174"/>
			<point x="101" y="-177"/>
			<point x="93" y="-177" type="curve" smooth="yes"/>
			<point x="78" y="-177"/>
			<point x="70" y="-166"/>
			<point x="70" y="-155" type="curve" smooth="yes"/>
			<point x="70" y="-124"/>
			<point x="110" y="-110"/>
			<point x="148" y="-110" type="curve" smooth="yes"/>
			<point x="279" y="-111" type="line" smooth="yes"/>
			<point x="457" y="-112"/>
			<point x="485" y="7"/>
			<point x="484" y="68" type="curve"/>
			<point x="485" y="166"/>
			<point x="429" y="220"/>
			<point x="362" y="220" type="curve" smooth="yes"/>
			<point x="309" y="221"/>
			<point x="264" y="187"/>
			<point x="262" y="131" type="curve"/>
			<point x="284" y="137" type="line"/>
			<point x="286" y="165"/>
			<point x="320" y="188"/>
			<point x="348" y="188" type="curve" smooth="yes"/>
			<point x="393" y="187"/>
			<point x="422" y="139"/>
			<point x="420" y="69" type="curve" smooth="yes"/>
			<point x="419" y="3"/>
			<point x="392" y="-75"/>
			<point x="277" y="-75" type="curve" smooth="yes"/>
			<point x="163" y="-74" type="line" smooth="yes"/>
			<point x="75" y="-74"/>
			<point x="17" y="-105"/>
			<point x="18" y="-167" type="curve" smooth="yes"/>
			<point x="19" y="-190"/>
			<point x="34" y="-225"/>
		</contour>
		<contour>
			<point x="65" y="0" type="curve"/>
			<point x="107" y="0" type="line"/>
			<point x="107" y="0"/>
			<point x="109" y="130"/>
			<point x="107" y="231" type="curve" smooth="yes"/>
			<point x="106" y="264"/>
			<point x="106" y="289"/>
			<point x="106" y="322" type="curve"/>
			<point x="231" y="322" type="line"/>
			<point x="232" y="294"/>
			<point x="231" y="275"/>
			<point x="231" y="234" type="curve" smooth="yes"/>
			<point x="229" y="0" type="line"/>
			<point x="289" y="0" type="line"/>
			<point x="289" y="322" type="line"/>
			<point x="404" y="322" type="line"/>
			<point x="403" y="335"/>
			<point x="399" y="354"/>
			<point x="395" y="362" type="curve"/>
			<point x="296" y="353"/>
			<point x="156" y="356"/>
			<point x="67" y="355" type="curve"/>
			<point x="68" y="319"/>
			<point x="70" y="281"/>
			<point x="70" y="234" type="curve" smooth="yes"/>
			<point x="70" y="86"/>
			<point x="65" y="0"/>
		</contour>
	</outline>
	<anchor name="Anchor-3" x="252" y="355"/>
	<anchor name="Anchor-0" x="259" y="476"/>
</glyph>
<glyph name="tmNnna" format="2">
	<advance width="887"/>
	<unicode hex="0BA9"/>
	<outline>
		<contour>
			<point x="215" y="-16" type="curve" smooth="yes"/>
			<point x="301" y="-16"/>
			<point x="330" y="47"/>
			<point x="331" y="94" type="curve" smooth="yes"/>
			<point x="331" y="151"/>
			<point x="288" y="188"/>
			<point x="236" y="188" type="curve" smooth="yes"/>
			<point x="172" y="189"/>
			<point x="128" y="139"/>
			<point x="127" y="75" type="curve" smooth="yes"/>
			<point x="126" y="33"/>
			<point x="141" y="20"/>
			<point x="154" y="6" type="curve"/>
			<point x="165" y="16" type="line"/>
			<point x="155" y="32"/>
			<point x="151" y="45"/>
			<point x="153" y="76" type="curve" smooth="yes"/>
			<point x="155" y="119"/>
			<point x="189" y="141"/>
			<point x="219" y="141" type="curve" smooth="yes"/>
			<point x="254" y="141"/>
			<point x="278" y="117"/>
			<point x="278" y="84" type="curve" smooth="yes"/>
			<point x="278" y="51"/>
			<point x="256" y="20"/>
			<point x="208" y="20" type="curve" smooth="yes"/>
			<point x="142" y="20"/>
			<point x="86" y="71"/>
			<point x="85" y="151" type="curve" smooth="yes"/>
			<point x="84" y="261"/>
			<point x="186" y="335"/>
			<point x="299" y="333" type="curve" smooth="yes"/>
			<point x="423" y="330"/>
			<point x="543" y="244"/>
			<point x="542" y="118" type="curve" smooth="yes"/>
			<point x="542" y="64"/>
			<point x="517" y="25"/>
			<point x="485" y="25" type="curve" smooth="yes"/>
			<point x="443" y="25"/>
			<point x="416" y="62"/>
			<point x="416" y="125" type="curve" smooth="yes"/>
			<point x="416" y="266"/>
			<point x="521" y="323"/>
			<point x="633" y="322" type="curve" smooth="yes"/>
			<point x="697" y="322" type="line"/>
			<point x="697" y="294"/>
			<point x="697" y="275"/>
			<point x="696" y="234" type="curve" smooth="yes"/>
			<point x="695" y="0" type="line"/>
			<point x="753" y="0" type="line"/>
			<point x="753" y="322" type="line"/>
			<point x="865" y="322" type="line"/>
			<point x="864" y="334"/>
			<point x="860" y="354"/>
			<point x="857" y="361" type="curve"/>
			<point x="760" y="355"/>
			<point x="715" y="356"/>
			<point x="628" y="355" type="curve" smooth="yes"/>
			<point x="479" y="355"/>
			<point x="379" y="257"/>
			<point x="379" y="117" type="curve" smooth="yes"/>
			<point x="379" y="43"/>
			<point x="413" y="-12"/>
			<point x="485" y="-12" type="curve" smooth="yes"/>
			<point x="556" y="-12"/>
			<point x="597" y="53"/>
			<point x="597" y="131" type="curve" smooth="yes"/>
			<point x="598" y="277"/>
			<point x="450" y="372"/>
			<point x="301" y="371" type="curve" smooth="yes"/>
			<point x="167" y="369"/>
			<point x="52" y="283"/>
			<point x="51" y="148" type="curve" smooth="yes"/>
			<point x="50" y="59"/>
			<point x="111" y="-16"/>
		</contour>
	</outline>
	<anchor name="Anchor-3" x="682" y="355"/>
	<anchor name="Anchor-0" x="444" y="476"/>
</glyph>
<glyph name="tmMa" format="2">
	<advance width="579"/>
	<unicode hex="0BAE"/>
	<outline>
		<contour>
			<point x="57" y="0" type="curve"/>
			<point x="364" y="0" type="line" smooth="yes"/>
			<point x="481" y="0"/>
			<point x="528" y="65"/>
			<point x="529" y="169" type="curve" smooth="yes"/>
			<point x="530" y="277"/>
			<point x="471" y="373"/>
			<point x="383" y="372" type="curve" smooth="yes"/>
			<point x="329" y="372"/>
			<point x="281" y="343"/>
			<point x="280" y="256" type="curve" smooth="yes"/>
			<point x="279" y="185"/>
			<point x="279" y="103"/>
			<point x="278" y="22" type="curve"/>
			<point x="335" y="22" type="line"/>
			<point x="336" y="102"/>
			<point x="336" y="183"/>
			<point x="337" y="263" type="curve" smooth="yes"/>
			<point x="338" y="323"/>
			<point x="360" y="336"/>
			<point x="387" y="336" type="curve" smooth="yes"/>
			<point x="444" y="335"/>
			<point x="493" y="252"/>
			<point x="492" y="169" type="curve" smooth="yes"/>
			<point x="490" y="94"/>
			<point x="462" y="41"/>
			<point x="390" y="39" type="curve" smooth="yes"/>
			<point x="118" y="32" type="line"/>
			<point x="118" y="140"/>
			<point x="118" y="247"/>
			<point x="118" y="355" type="curve"/>
			<point x="102" y="356"/>
			<point x="75" y="353"/>
			<point x="61" y="351" type="curve"/>
			<point x="61" y="215"/>
			<point x="62" y="44"/>
		</contour>
	</outline>
	<anchor name="Anchor-2" x="409" y="371"/>
	<anchor name="Anchor-3" x="446" y="350"/>
	<anchor name="Anchor-0" x="369" y="476"/>
</glyph>
<glyph name="tmYa" format="2">
	<advance width="632"/>
	<unicode hex="0BAF"/>
	<outline>
		<contour>
			<point x="281" y="-1" type="curve"/>
			<point x="571" y="0" type="line"/>
			<point x="571" y="118"/>
			<point x="571" y="237"/>
			<point x="571" y="355" type="curve"/>
			<point x="557" y="353"/>
			<point x="528" y="351"/>
			<point x="509" y="351" type="curve"/>
			<point x="511" y="330"/>
			<point x="512" y="298"/>
			<point x="513" y="283" type="curve"/>
			<point x="513" y="203"/>
			<point x="513" y="122"/>
			<point x="513" y="42" type="curve"/>
			<point x="477" y="38"/>
			<point x="412" y="35"/>
			<point x="392" y="35" type="curve" smooth="yes"/>
			<point x="324" y="35" type="line"/>
			<point x="324" y="142"/>
			<point x="324" y="248"/>
			<point x="324" y="355" type="curve"/>
			<point x="314" y="356"/>
			<point x="286" y="353"/>
			<point x="268" y="351" type="curve"/>
			<point x="269" y="330"/>
			<point x="270" y="295"/>
			<point x="270" y="284" type="curve" smooth="yes"/>
			<point x="270" y="214"/>
			<point x="270" y="144"/>
			<point x="270" y="74" type="curve"/>
			<point x="270" y="75"/>
			<point x="271" y="76"/>
			<point x="283" y="77" type="curve"/>
			<point x="282" y="55"/>
			<point x="282" y="18"/>
		</contour>
		<contour>
			<point x="168" y="-10" type="curve" smooth="yes"/>
			<point x="254" y="-9"/>
			<point x="293" y="63"/>
			<point x="293" y="113" type="curve"/>
			<point x="271" y="115" type="line"/>
			<point x="271" y="73"/>
			<point x="229" y="26"/>
			<point x="181" y="26" type="curve" smooth="yes"/>
			<point x="150" y="26"/>
			<point x="123" y="37"/>
			<point x="122" y="79" type="curve" smooth="yes"/>
			<point x="121" y="171"/>
			<point x="121" y="263"/>
			<point x="120" y="355" type="curve"/>
			<point x="110" y="356"/>
			<point x="79" y="353"/>
			<point x="60" y="351" type="curve"/>
			<point x="61" y="263"/>
			<point x="62" y="175"/>
			<point x="63" y="87" type="curve" smooth="yes"/>
			<point x="63" y="15"/>
			<point x="111" y="-10"/>
		</contour>
	</outline>
	<anchor name="Anchor-2" x="509" y="350"/>
	<anchor name="Anchor-4" x="514" y="0"/>
	<anchor name="Anchor-0" x="306" y="476"/>
	<anchor name="Anchor-3" x="513" y="279"/>
</glyph>
<glyph name="tmRra" format="2">
	<advance width="557"/>
	<unicode hex="0BB1"/>
	<outline>
		<contour>
			<point x="92" y="-226" type="curve" smooth="yes"/>
			<point x="122" y="-226"/>
			<point x="140" y="-207"/>
			<point x="141" y="-182" type="curve"/>
			<point x="140" y="-177"/>
			<point x="135" y="-167"/>
			<point x="130" y="-162" type="curve"/>
			<point x="118" y="-176"/>
			<point x="108" y="-177"/>
			<point x="101" y="-177" type="curve" smooth="yes"/>
			<point x="85" y="-177"/>
			<point x="77" y="-166"/>
			<point x="77" y="-153" type="curve" smooth="yes"/>
			<point x="77" y="-124"/>
			<point x="117" y="-110"/>
			<point x="155" y="-110" type="curve" smooth="yes"/>
			<point x="301" y="-111" type="line" smooth="yes"/>
			<point x="495" y="-103"/>
			<point x="507" y="90"/>
			<point x="507" y="172" type="curve" smooth="yes"/>
			<point x="506" y="318"/>
			<point x="427" y="363"/>
			<point x="365" y="361" type="curve" smooth="yes"/>
			<point x="306" y="359"/>
			<point x="271" y="313"/>
			<point x="265" y="289" type="curve"/>
			<point x="281" y="247" type="line"/>
			<point x="290" y="267" type="line"/>
			<point x="294" y="298"/>
			<point x="327" y="323"/>
			<point x="354" y="323" type="curve" smooth="yes"/>
			<point x="409" y="325"/>
			<point x="443" y="271"/>
			<point x="442" y="162" type="curve" smooth="yes"/>
			<point x="441" y="49"/>
			<point x="427" y="-73"/>
			<point x="291" y="-75" type="curve" smooth="yes"/>
			<point x="170" y="-74" type="line" smooth="yes"/>
			<point x="82" y="-73"/>
			<point x="24" y="-105"/>
			<point x="25" y="-167" type="curve" smooth="yes"/>
			<point x="26" y="-190"/>
			<point x="42" y="-227"/>
		</contour>
		<contour>
			<point x="234" y="-3" type="curve"/>
			<point x="256" y="-3"/>
			<point x="274" y="-2"/>
			<point x="292" y="0" type="curve"/>
			<point x="292" y="92"/>
			<point x="292" y="185"/>
			<point x="292" y="277" type="curve"/>
			<point x="283" y="300" type="line"/>
			<point x="265" y="339"/>
			<point x="220" y="361"/>
			<point x="181" y="361" type="curve" smooth="yes"/>
			<point x="127" y="361"/>
			<point x="88" y="322"/>
			<point x="88" y="263" type="curve" smooth="yes"/>
			<point x="88" y="203"/>
			<point x="87" y="142"/>
			<point x="87" y="82" type="curve" smooth="yes"/>
			<point x="87" y="30"/>
			<point x="84" y="10"/>
			<point x="83" y="0" type="curve"/>
			<point x="124" y="0" type="line"/>
			<point x="124" y="87"/>
			<point x="125" y="173"/>
			<point x="125" y="260" type="curve" smooth="yes"/>
			<point x="125" y="305"/>
			<point x="151" y="323"/>
			<point x="176" y="324" type="curve" smooth="yes"/>
			<point x="206" y="325"/>
			<point x="235" y="307"/>
			<point x="235" y="254" type="curve" smooth="yes"/>
			<point x="235" y="168"/>
			<point x="234" y="83"/>
		</contour>
	</outline>
	<anchor name="Anchor-2" x="383" y="361"/>
	<anchor name="Anchor-3" x="416" y="350"/>
	<anchor name="Anchor-0" x="269" y="476"/>
</glyph>
<glyph name="tmLa" format="2">
	<advance width="719"/>
	<unicode hex="0BB2"/>
	<outline>
		<contour>
			<point x="219" y="-16" type="curve" smooth="yes"/>
			<point x="308" y="-16"/>
			<point x="339" y="47"/>
			<point x="340" y="94" type="curve" smooth="yes"/>
			<point x="340" y="151"/>
			<point x="296" y="187"/>
			<point x="248" y="188" type="curve" smooth="yes"/>
			<point x="184" y="188"/>
			<point x="136" y="140"/>
			<point x="133" y="72" type="curve" smooth="yes"/>
			<point x="131" y="30"/>
			<point x="148" y="18"/>
			<point x="160" y="4" type="curve"/>
			<point x="171" y="15" type="line"/>
			<point x="165" y="31"/>
			<point x="157" y="42"/>
			<point x="160" y="73" type="curve" smooth="yes"/>
			<point x="163" y="114"/>
			<point x="201" y="139"/>
			<point x="232" y="139" type="curve" smooth="yes"/>
			<point x="263" y="139"/>
			<point x="288" y="117"/>
			<point x="288" y="87" type="curve" smooth="yes"/>
			<point x="287" y="53"/>
			<point x="265" y="19"/>
			<point x="212" y="19" type="curve" smooth="yes"/>
			<point x="155" y="19"/>
			<point x="88" y="75"/>
			<point x="87" y="162" type="curve"/>
			<point x="87" y="260"/>
			<point x="146" y="327"/>
			<point x="239" y="328" type="curve" smooth="yes"/>
			<point x="324" y="328"/>
			<point x="370" y="261"/>
			<point x="387" y="162" type="curve" smooth="yes"/>
			<point x="396" y="111"/>
			<point x="403" y="72"/>
			<point x="419" y="44" type="curve" smooth="yes"/>
			<point x="439" y="9"/>
			<point x="478" y="-13"/>
			<point x="529" y="-12" type="curve" smooth="yes"/>
			<point x="636" y="-11"/>
			<point x="667" y="91"/>
			<point x="667" y="157" type="curve"/>
			<point x="666" y="284"/>
			<point x="587" y="357"/>
			<point x="545" y="374" type="curve"/>
			<point x="525" y="373"/>
			<point x="507" y="354"/>
			<point x="506" y="335" type="curve"/>
			<point x="521" y="332"/>
			<point x="546" y="321"/>
			<point x="564" y="309" type="curve"/>
			<point x="607" y="284"/>
			<point x="631" y="211"/>
			<point x="630" y="157" type="curve" smooth="yes"/>
			<point x="629" y="104"/>
			<point x="614" y="31"/>
			<point x="542" y="31" type="curve" smooth="yes"/>
			<point x="474" y="31"/>
			<point x="459" y="96"/>
			<point x="448" y="176" type="curve" smooth="yes"/>
			<point x="437" y="252"/>
			<point x="414" y="298"/>
			<point x="378" y="328" type="curve" smooth="yes"/>
			<point x="347" y="354"/>
			<point x="304" y="369"/>
			<point x="262" y="369" type="curve" smooth="yes"/>
			<point x="141" y="369"/>
			<point x="51" y="292"/>
			<point x="51" y="158" type="curve" smooth="yes"/>
			<point x="51" y="68"/>
			<point x="113" y="-17"/>
		</contour>
	</outline>
	<anchor name="Anchor-2" x="545" y="374"/>
	<anchor name="Anchor-3" x="506" y="335"/>
	<anchor name="Anchor-0" x="366" y="476"/>
</glyph>
<glyph name="tmLlla" format="2">
	<advance width="587"/>
	<unicode hex="0BB4"/>
	<outline>
		<contour>
			<point x="148" y="-233" type="curve" smooth="yes"/>
			<point x="206" y="-232"/>
			<point x="236" y="-207"/>
			<point x="257" y="-180" type="curve" smooth="yes"/>
			<point x="281" y="-151"/>
			<point x="296" y="-120"/>
			<point x="330" y="-117" type="curve"/>
			<point x="387" y="-117" type="line"/>
			<point x="338" y="-80" type="line"/>
			<point x="320" y="-86" type="line"/>
			<point x="253" y="-88"/>
			<point x="231" y="-111"/>
			<point x="199" y="-162" type="curve"/>
			<point x="187" y="-179"/>
			<point x="170" y="-195"/>
			<point x="144" y="-195" type="curve" smooth="yes"/>
			<point x="106" y="-194"/>
			<point x="85" y="-171"/>
			<point x="85" y="-145" type="curve" smooth="yes"/>
			<point x="85" y="-106"/>
			<point x="124" y="-83"/>
			<point x="181" y="-82" type="curve"/>
			<point x="183" y="-73"/>
			<point x="174" y="-52"/>
			<point x="167" y="-48" type="curve"/>
			<point x="112" y="-48"/>
			<point x="50" y="-85"/>
			<point x="51" y="-152" type="curve" smooth="yes"/>
			<point x="51" y="-193"/>
			<point x="82" y="-234"/>
		</contour>
		<contour>
			<point x="392" y="-117" type="curve" smooth="yes"/>
			<point x="450" y="-117" type="line"/>
			<point x="452" y="-108"/>
			<point x="453" y="-87"/>
			<point x="452" y="-79" type="curve"/>
			<point x="436" y="-80"/>
			<point x="411" y="-81"/>
			<point x="395" y="-81" type="curve" smooth="yes"/>
			<point x="371" y="-81"/>
			<point x="342" y="-63"/>
			<point x="342" y="-19" type="curve" smooth="yes"/>
			<point x="342" y="10" type="line"/>
			<point x="286" y="10" type="line"/>
			<point x="286" y="-31" type="line" smooth="yes"/>
			<point x="286" y="-91"/>
			<point x="351" y="-117"/>
		</contour>
		<component base="tmMa" xOffset="6" yOffset="9"/>
	</outline>
	<anchor name="Anchor-3" x="454" y="355"/>
	<anchor name="Anchor-0" x="279" y="476"/>
</glyph>
<glyph name="tmSa" format="2">
	<advance width="903"/>
	<unicode hex="0BB8"/>
	<outline>
		<contour>
			<point x="713" y="-12" type="curve" smooth="yes"/>
			<point x="821" y="-11"/>
			<point x="851" y="91"/>
			<point x="851" y="156" type="curve" smooth="yes"/>
			<point x="851" y="284"/>
			<point x="772" y="357"/>
			<point x="729" y="374" type="curve"/>
			<point x="705" y="373"/>
			<point x="688" y="354"/>
			<point x="691" y="335" type="curve"/>
			<point x="705" y="332"/>
			<point x="731" y="321"/>
			<point x="750" y="309" type="curve" smooth="yes"/>
			<point x="792" y="282"/>
			<point x="815" y="211"/>
			<point x="814" y="157" type="curve" smooth="yes"/>
			<point x="813" y="104"/>
			<point x="799" y="31"/>
			<point x="723" y="31" type="curve" smooth="yes"/>
			<point x="659" y="31"/>
			<point x="644" y="97"/>
			<point x="632" y="178" type="curve" smooth="yes"/>
			<point x="618" y="273"/>
			<point x="594" y="366"/>
			<point x="502" y="366" type="curve" smooth="yes"/>
			<point x="447" y="366"/>
			<point x="419" y="329"/>
			<point x="411" y="280" type="curve" smooth="yes"/>
			<point x="387" y="231" type="line"/>
			<point x="387" y="0" type="line"/>
			<point x="447" y="0" type="line"/>
			<point x="447" y="238" type="line" smooth="yes"/>
			<point x="447" y="282"/>
			<point x="462" y="311"/>
			<point x="495" y="311" type="curve" smooth="yes"/>
			<point x="543" y="311"/>
			<point x="561" y="247"/>
			<point x="571" y="162" type="curve" smooth="yes"/>
			<point x="583" y="59"/>
			<point x="614" y="-14"/>
		</contour>
		<contour>
			<point x="219" y="-16" type="curve" smooth="yes"/>
			<point x="308" y="-16"/>
			<point x="339" y="47"/>
			<point x="340" y="94" type="curve" smooth="yes"/>
			<point x="340" y="151"/>
			<point x="296" y="187"/>
			<point x="248" y="188" type="curve" smooth="yes"/>
			<point x="184" y="188"/>
			<point x="136" y="140"/>
			<point x="133" y="72" type="curve" smooth="yes"/>
			<point x="131" y="30"/>
			<point x="148" y="18"/>
			<point x="160" y="4" type="curve"/>
			<point x="171" y="15" type="line"/>
			<point x="165" y="31"/>
			<point x="157" y="42"/>
			<point x="160" y="73" type="curve" smooth="yes"/>
			<point x="163" y="114"/>
			<point x="201" y="139"/>
			<point x="232" y="139" type="curve" smooth="yes"/>
			<point x="264" y="139"/>
			<point x="290" y="117"/>
			<point x="290" y="87" type="curve" smooth="yes"/>
			<point x="290" y="53"/>
			<point x="267" y="19"/>
			<point x="212" y="19" type="curve" smooth="yes"/>
			<point x="155" y="19"/>
			<point x="89" y="75"/>
			<point x="88" y="166" type="curve" smooth="yes"/>
			<point x="87" y="267"/>
			<point x="146" y="328"/>
			<point x="239" y="328" type="curve" smooth="yes"/>
			<point x="330" y="328"/>
			<point x="384" y="265"/>
			<point x="400" y="165" type="curve"/>
			<point x="433" y="249" type="line"/>
			<point x="410" y="313"/>
			<point x="337" y="369"/>
			<point x="251" y="369" type="curve" smooth="yes"/>
			<point x="137" y="369"/>
			<point x="52" y="295"/>
			<point x="52" y="164" type="curve" smooth="yes"/>
			<point x="52" y="73"/>
			<point x="113" y="-17"/>
		</contour>
	</outline>
	<anchor name="Anchor-2" x="729" y="374"/>
	<anchor name="Anchor-3" x="691" y="335"/>
	<anchor name="Anchor-0" x="477" y="476"/>
</glyph>
<glyph name="tmMatraAa" format="2">
	<advance width="434"/>
	<unicode hex="0BBE"/>
	<outline>
		<contour>
			<point x="56" y="0" type="curve"/>
			<point x="99" y="0" type="line"/>
			<point x="100" y="11"/>
			<point x="101" y="53"/>
			<point x="101" y="73" type="curve" smooth="yes"/>
			<point x="102" y="133"/>
			<point x="98" y="277"/>
			<point x="94" y="338" type="curve"/>
			<point x="81" y="322" type="line"/>
			<point x="244" y="322" type="line"/>
			<point x="243" y="294"/>
			<point x="242" y="275"/>
			<point x="242" y="234" type="curve" smooth="yes"/>
			<point x="241" y="0" type="line"/>
			<point x="299" y="0" type="line"/>
			<point x="299" y="78"/>
			<point x="299" y="157"/>
			<point x="299" y="235" type="curve" smooth="yes"/>
			<point x="299" y="264"/>
			<point x="298" y="293"/>
			<point x="300" y="322" type="curve"/>
			<point x="411" y="322" type="line"/>
			<point x="410" y="330"/>
			<point x="408" y="338"/>
			<point x="406" y="347" type="curve" smooth="yes"/>
			<point x="405" y="352"/>
			<point x="403" y="359"/>
			<point x="402" y="361" type="curve"/>
			<point x="305" y="355"/>
			<point x="144" y="355"/>
			<point x="57" y="354" type="curve"/>
			<point x="59" y="318"/>
			<point x="62" y="281"/>
			<point x="62" y="234" type="curve" smooth="yes"/>
			<point x="62" y="134"/>
			<point x="61" y="80"/>
			<point x="59" y="44" type="curve" smooth="yes"/>
			<point x="58" y="29"/>
			<point x="57" y="15"/>
		</contour>
	</outline>
</glyph>
<glyph name="tmMatraI" format="2">
	<advance width="137"/>
	<unicode hex="0BBF"/>
	<outline>
		<contour>
			<point x="38" y="0" type="line"/>
			<point x="76" y="0" type="line"/>
			<point x="78" y="93" type="line"/>
			<point x="79" y="399" type="line" smooth="yes"/>
			<point x="79" y="527"/>
			<point x="18" y="606"/>
			<point x="-84" y="606" type="curve" smooth="yes"/>
			<point x="-172" y="606"/>
			<point x="-240" y="538"/>
			<point x="-240" y="440" type="curve" smooth="yes"/>
			<point x="-240" y="380"/>
			<point x="-201" y="340"/>
			<point x="-174" y="336" type="curve"/>
			<point x="-151" y="353" type="line"/>
			<point x="-184" y="355"/>
			<point x="-209" y="401"/>
			<point x="-209" y="438" type="curve" smooth="yes"/>
			<point x="-209" y="504"/>
			<point x="-161" y="552"/>
			<point x="-88" y="552" type="curve" smooth="yes"/>
			<point x="-22" y="552"/>
			<point x="44" y="512"/>
			<point x="42" y="386" type="curve" smooth="yes"/>
			<point x="41" y="95" type="line"/>
		</contour>
	</outline>
</glyph>
<glyph name="tmMatraIi" format="2">
	<advance width="26"/>
	<unicode hex="0BC0"/>
	<outline>
		<contour>
			<point x="-62" y="291" type="curve"/>
			<point x="-62" y="320" type="line"/>
			<point x="-108" y="322"/>
			<point x="-142" y="356"/>
			<point x="-142" y="413" type="curve" smooth="yes"/>
			<point x="-142" y="469"/>
			<point x="-98" y="516"/>
			<point x="-38" y="518" type="curve" smooth="yes"/>
			<point x="2" y="519"/>
			<point x="42" y="501"/>
			<point x="42" y="466" type="curve" smooth="yes"/>
			<point x="42" y="445"/>
			<point x="32" y="429"/>
			<point x="8" y="429" type="curve" smooth="yes"/>
			<point x="-14" y="429"/>
			<point x="-30" y="443"/>
			<point x="-31" y="466" type="curve" smooth="yes"/>
			<point x="-32" y="488"/>
			<point x="-22" y="510"/>
			<point x="-4" y="525" type="curve"/>
			<point x="-25" y="530" type="line"/>
			<point x="-46" y="512"/>
			<point x="-60" y="487"/>
			<point x="-59" y="459" type="curve" smooth="yes"/>
			<point x="-58" y="421"/>
			<point x="-30" y="393"/>
			<point x="11" y="393" type="curve" smooth="yes"/>
			<point x="59" y="393"/>
			<point x="84" y="425"/>
			<point x="83" y="469" type="curve" smooth="yes"/>
			<point x="82" y="519"/>
			<point x="37" y="554"/>
			<point x="-26" y="554" type="curve" smooth="yes"/>
			<point x="-98" y="554"/>
			<point x="-173" y="503"/>
			<point x="-173" y="415" type="curve" smooth="yes"/>
			<point x="-173" y="341"/>
			<point x="-129" y="292"/>
		</contour>
	</outline>
	<anchor name="_Anchor-3" x="-62" y="320"/>
</glyph>
<glyph name="tmMatraE" format="2">
	<advance width="653"/>
	<unicode hex="0BC6"/>
	<outline>
		<contour>
			<point x="51" y="269" type="curve" smooth="yes"/>
			<point x="51" y="101"/>
			<point x="137" y="-18"/>
			<point x="304" y="-17" type="curve" smooth="yes"/>
			<point x="377" y="-17"/>
			<point x="440" y="33"/>
			<point x="440" y="111" type="curve" smooth="yes"/>
			<point x="440" y="169"/>
			<point x="394" y="210"/>
			<point x="334" y="210" type="curve" smooth="yes"/>
			<point x="268" y="210"/>
			<point x="218" y="158"/>
			<point x="219" y="88" type="curve" smooth="yes"/>
			<point x="220" y="35"/>
			<point x="250" y="3"/>
			<point x="283" y="-17" type="curve"/>
			<point x="294" y="6" type="line"/>
			<point x="268" y="21"/>
			<point x="253" y="50"/>
			<point x="253" y="87" type="curve" smooth="yes"/>
			<point x="253" y="130"/>
			<point x="278" y="163"/>
			<point x="321" y="163" type="curve" smooth="yes"/>
			<point x="362" y="163"/>
			<point x="384" y="135"/>
			<point x="384" y="99" type="curve" smooth="yes"/>
			<point x="383" y="54"/>
			<point x="348" y="23"/>
			<point x="295" y="25" type="curve" smooth="yes"/>
			<point x="150" y="29"/>
			<point x="89" y="143"/>
			<point x="91" y="269" type="curve" smooth="yes"/>
			<point x="93" y="408"/>
			<point x="189" y="505"/>
			<point x="320" y="507" type="curve" smooth="yes"/>
			<point x="474" y="509"/>
			<point x="553" y="397"/>
			<point x="553" y="241" type="curve" smooth="yes"/>
			<point x="553" y="195"/>
			<point x="553" y="149"/>
			<point x="553" y="103" type="curve" smooth="yes"/>
			<point x="553" y="54"/>
			<point x="552" y="13"/>
			<point x="548" y="-1" type="curve"/>
			<point x="595" y="-1" type="line"/>
			<point x="595" y="89"/>
			<point x="595" y="180"/>
			<point x="595" y="270" type="curve" smooth="yes"/>
			<point x="595" y="438"/>
			<point x="498" y="568"/>
			<point x="333" y="568" type="curve" smooth="yes"/>
			<point x="149" y="568"/>
			<point x="51" y="410"/>
		</contour>
	</outline>
</glyph>
<glyph name="tmMatraEe" format="2">
	<advance width="523"/>
	<unicode hex="0BC7"/>
	<outline>
		<contour>
			<point x="338" y="-17" type="curve" smooth="yes"/>
			<point x="430" y="-17"/>
			<point x="484" y="36"/>
			<point x="484" y="105" type="curve" smooth="yes"/>
			<point x="484" y="165"/>
			<point x="440" y="208"/>
			<point x="377" y="208" type="curve" smooth="yes"/>
			<point x="311" y="208"/>
			<point x="262" y="160"/>
			<point x="262" y="92" type="curve" smooth="yes"/>
			<point x="262" y="39"/>
			<point x="289" y="8"/>
			<point x="324" y="-11" type="curve"/>
			<point x="340" y="13" type="line"/>
			<point x="315" y="27"/>
			<point x="299" y="56"/>
			<point x="299" y="89" type="curve" smooth="yes"/>
			<point x="299" y="127"/>
			<point x="326" y="158"/>
			<point x="365" y="158" type="curve" smooth="yes"/>
			<point x="402" y="158"/>
			<point x="425" y="130"/>
			<point x="425" y="98" type="curve" smooth="yes"/>
			<point x="424" y="52"/>
			<point x="384" y="30"/>
			<point x="336" y="30" type="curve" smooth="yes"/>
			<point x="192" y="30"/>
			<point x="91" y="130"/>
			<point x="89" y="270" type="curve" smooth="yes"/>
			<point x="87" y="457"/>
			<point x="213" y="538"/>
			<point x="345" y="533" type="curve" smooth="yes"/>
			<point x="399" y="532"/>
			<point x="445" y="508"/>
			<point x="445" y="462" type="curve"/>
			<point x="446" y="439"/>
			<point x="430" y="414"/>
			<point x="391" y="414" type="curve" smooth="yes"/>
			<point x="347" y="414"/>
			<point x="325" y="445"/>
			<point x="324" y="475" type="curve" smooth="yes"/>
			<point x="322" y="509"/>
			<point x="341" y="536"/>
			<point x="363" y="546" type="curve"/>
			<point x="340" y="559" type="line"/>
			<point x="314" y="549"/>
			<point x="286" y="509"/>
			<point x="285" y="465" type="curve" smooth="yes"/>
			<point x="284" y="406"/>
			<point x="328" y="364"/>
			<point x="392" y="365" type="curve" smooth="yes"/>
			<point x="466" y="366"/>
			<point x="500" y="416"/>
			<point x="500" y="464" type="curve" smooth="yes"/>
			<point x="500" y="526"/>
			<point x="446" y="576"/>
			<point x="350" y="576" type="curve" smooth="yes"/>
			<point x="204" y="576"/>
			<point x="50" y="491"/>
			<point x="49" y="270" type="curve" smooth="yes"/>
			<point x="48" y="67"/>
			<point x="204" y="-18"/>
		</contour>
	</outline>
</glyph>
<glyph name="tmMatraAi" format="2">
	<advance width="856"/>
	<unicode hex="0BC8"/>
	<outline>
		<contour>
			<point x="212" y="-16" type="curve" smooth="yes"/>
			<point x="294" y="-16"/>
			<point x="327" y="47"/>
			<point x="328" y="94" type="curve" smooth="yes"/>
			<point x="328" y="151"/>
			<point x="287" y="188"/>
			<point x="234" y="188" type="curve" smooth="yes"/>
			<point x="171" y="189"/>
			<point x="125" y="139"/>
			<point x="124" y="75" type="curve" smooth="yes"/>
			<point x="123" y="33"/>
			<point x="138" y="20"/>
			<point x="151" y="6" type="curve"/>
			<point x="162" y="16" type="line"/>
			<point x="152" y="32"/>
			<point x="148" y="45"/>
			<point x="150" y="76" type="curve"/>
			<point x="151" y="119"/>
			<point x="185" y="141"/>
			<point x="216" y="141" type="curve" smooth="yes"/>
			<point x="250" y="141"/>
			<point x="276" y="117"/>
			<point x="276" y="84" type="curve" smooth="yes"/>
			<point x="275" y="51"/>
			<point x="253" y="20"/>
			<point x="205" y="20" type="curve" smooth="yes"/>
			<point x="139" y="20"/>
			<point x="86" y="74"/>
			<point x="85" y="155" type="curve" smooth="yes"/>
			<point x="84" y="264"/>
			<point x="183" y="337"/>
			<point x="297" y="335" type="curve" smooth="yes"/>
			<point x="421" y="332"/>
			<point x="540" y="244"/>
			<point x="539" y="118" type="curve" smooth="yes"/>
			<point x="539" y="64"/>
			<point x="512" y="27"/>
			<point x="475" y="27" type="curve" smooth="yes"/>
			<point x="436" y="27"/>
			<point x="412" y="74"/>
			<point x="412" y="138" type="curve" smooth="yes"/>
			<point x="413" y="266"/>
			<point x="504" y="331"/>
			<point x="584" y="331" type="curve" smooth="yes"/>
			<point x="681" y="331"/>
			<point x="743" y="262"/>
			<point x="744" y="169" type="curve" smooth="yes"/>
			<point x="744" y="107"/>
			<point x="721" y="47"/>
			<point x="693" y="3" type="curve"/>
			<point x="697" y="-5"/>
			<point x="710" y="-13"/>
			<point x="721" y="-16" type="curve"/>
			<point x="749" y="9"/>
			<point x="805" y="90"/>
			<point x="805" y="174" type="curve" smooth="yes"/>
			<point x="805" y="317"/>
			<point x="697" y="370"/>
			<point x="597" y="370" type="curve" smooth="yes"/>
			<point x="473" y="369"/>
			<point x="376" y="270"/>
			<point x="376" y="130" type="curve" smooth="yes"/>
			<point x="376" y="55"/>
			<point x="405" y="-12"/>
			<point x="477" y="-12" type="curve" smooth="yes"/>
			<point x="551" y="-12"/>
			<point x="594" y="53"/>
			<point x="594" y="131" type="curve" smooth="yes"/>
			<point x="595" y="277"/>
			<point x="448" y="372"/>
			<point x="298" y="371" type="curve" smooth="yes"/>
			<point x="165" y="369"/>
			<point x="52" y="287"/>
			<point x="51" y="151" type="curve" smooth="yes"/>
			<point x="50" y="62"/>
			<point x="108" y="-17"/>
		</contour>
	</outline>
</glyph>
<glyph name="tmVirama" format="2">
	<advance width="0"/>
	<unicode hex="0BCD"/>
	<outline>
		<contour>
			<point x="-1" y="413" type="curve" smooth="yes"/>
			<point x="23" y="414"/>
			<point x="43" y="433"/>
			<point x="42" y="457" type="curve" smooth="yes"/>
			<point x="41" y="478"/>
			<point x="22" y="497"/>
			<point x="1" y="496" type="curve" smooth="yes"/>
			<point x="-23" y="495"/>
			<point x="-45" y="476"/>
			<point x="-44" y="453" type="curve" smooth="yes"/>
			<point x="-43" y="431"/>
			<point x="-24" y="412"/>
		</contour>
	</outline>
	<anchor name="_Anchor-0" x="0" y="452"/>
</glyph>
<glyph name="tmOm" format="2">
	<advance width="570"/>
	<unicode hex="0BD0"/>
	<outline>
		<contour>
			<point x="409" y="-33" type="line"/>
			<point x="471" y="-33" type="line"/>
			<point x="473" y="-23"/>
			<point x="474" y="-3"/>
			<point x="473" y="6" type="curve"/>
			<point x="457" y="4"/>
			<point x="431" y="3"/>
			<point x="416" y="3" type="curve" smooth="yes"/>
			<point x="363" y="3"/>
			<point x="292" y="30"/>
			<point x="290" y="96" type="curve" smooth="yes"/>
			<point x="289" y="137"/>
			<point x="306" y="168"/>
			<point x="344" y="181" type="curve"/>
			<point x="341" y="187" type="line"/>
			<point x="334" y="173"/>
			<point x="318" y="159"/>
			<point x="318" y="126" type="curve" smooth="yes"/>
			<point x="318" y="81"/>
			<point x="351" y="54"/>
			<point x="397" y="54" type="curve" smooth="yes"/>
			<point x="468" y="54"/>
			<point x="514" y="113"/>
			<point x="512" y="198" type="curve" smooth="yes"/>
			<point x="509" y="336"/>
			<point x="400" y="403"/>
			<point x="274" y="402" type="curve" smooth="yes"/>
			<point x="131" y="401"/>
			<point x="41" y="308"/>
			<point x="41" y="196" type="curve" smooth="yes"/>
			<point x="41" y="120"/>
			<point x="84" y="78"/>
			<point x="139" y="78" type="curve" smooth="yes"/>
			<point x="195" y="78"/>
			<point x="229" y="117"/>
			<point x="229" y="165" type="curve" smooth="yes"/>
			<point x="229" y="205"/>
			<point x="199" y="241"/>
			<point x="151" y="241" type="curve" smooth="yes"/>
			<point x="115" y="241"/>
			<point x="75" y="217"/>
			<point x="58" y="177" type="curve"/>
			<point x="69" y="153" type="line"/>
			<point x="81" y="184"/>
			<point x="107" y="207"/>
			<point x="136" y="206" type="curve" smooth="yes"/>
			<point x="167" y="206"/>
			<point x="186" y="184"/>
			<point x="185" y="158" type="curve"/>
			<point x="185" y="136"/>
			<point x="169" y="111"/>
			<point x="136" y="111" type="curve" smooth="yes"/>
			<point x="100" y="111"/>
			<point x="73" y="139"/>
			<point x="73" y="198" type="curve" smooth="yes"/>
			<point x="73" y="306"/>
			<point x="170" y="365"/>
			<point x="259" y="365" type="curve" smooth="yes"/>
			<point x="378" y="365"/>
			<point x="455" y="291"/>
			<point x="455" y="199" type="curve" smooth="yes"/>
			<point x="455" y="144"/>
			<point x="434" y="89"/>
			<point x="392" y="89" type="curve" smooth="yes"/>
			<point x="368" y="89"/>
			<point x="350" y="101"/>
			<point x="350" y="135" type="curve" smooth="yes"/>
			<point x="350" y="154"/>
			<point x="358" y="174"/>
			<point x="364" y="187" type="curve"/>
			<point x="360" y="195"/>
			<point x="355" y="203"/>
			<point x="347" y="209" type="curve"/>
			<point x="309" y="203"/>
			<point x="259" y="163"/>
			<point x="259" y="91" type="curve" smooth="yes"/>
			<point x="259" y="36"/>
			<point x="301" y="-15"/>
			<point x="370" y="-29" type="curve"/>
		</contour>
		<contour>
			<point x="198" y="-148" type="curve" smooth="yes"/>
			<point x="338" y="-146"/>
			<point x="350" y="-33"/>
			<point x="392" y="-33" type="curve" smooth="yes"/>
			<point x="449" y="-33" type="line"/>
			<point x="400" y="-2" type="line"/>
			<point x="382" y="-2" type="line" smooth="yes"/>
			<point x="322" y="-4"/>
			<point x="298" y="-43"/>
			<point x="274" y="-77" type="curve" smooth="yes"/>
			<point x="255" y="-104"/>
			<point x="233" y="-116"/>
			<point x="189" y="-117" type="curve" smooth="yes"/>
			<point x="113" y="-118"/>
			<point x="82" y="-75"/>
			<point x="82" y="-34" type="curve" smooth="yes"/>
			<point x="82" y="-23"/>
			<point x="85" y="-3"/>
			<point x="104" y="-3" type="curve" smooth="yes"/>
			<point x="135" y="-2"/>
			<point x="134" y="-65"/>
			<point x="133" y="-81" type="curve"/>
			<point x="211" y="-81" type="line" smooth="yes"/>
			<point x="249" y="-81"/>
			<point x="264" y="-62"/>
			<point x="264" y="-31" type="curve" smooth="yes"/>
			<point x="264" y="-4"/>
			<point x="245" y="20"/>
			<point x="217" y="19" type="curve"/>
			<point x="200" y="19"/>
			<point x="186" y="9"/>
			<point x="185" y="-16" type="curve" smooth="yes"/>
			<point x="184" y="-73" type="line"/>
			<point x="209" y="-66" type="line"/>
			<point x="209" y="-12" type="line" smooth="yes"/>
			<point x="209" y="-3"/>
			<point x="215" y="2"/>
			<point x="220" y="2" type="curve" smooth="yes"/>
			<point x="234" y="2"/>
			<point x="246" y="-14"/>
			<point x="245" y="-31" type="curve"/>
			<point x="245" y="-47"/>
			<point x="238" y="-59"/>
			<point x="217" y="-60" type="curve" smooth="yes"/>
			<point x="156" y="-61" type="line"/>
			<point x="154" y="-36"/>
			<point x="151" y="20"/>
			<point x="106" y="20" type="curve"/>
			<point x="78" y="21"/>
			<point x="59" y="-4"/>
			<point x="59" y="-38" type="curve" smooth="yes"/>
			<point x="59" y="-107"/>
			<point x="116" y="-149"/>
		</contour>
		<contour>
			<point x="189" y="37" type="curve" smooth="yes"/>
			<point x="196" y="37"/>
			<point x="202" y="43"/>
			<point x="202" y="51" type="curve" smooth="yes"/>
			<point x="202" y="59"/>
			<point x="196" y="64"/>
			<point x="189" y="64" type="curve" smooth="yes"/>
			<point x="181" y="64"/>
			<point x="175" y="59"/>
			<point x="175" y="51" type="curve" smooth="yes"/>
			<point x="175" y="43"/>
			<point x="181" y="37"/>
		</contour>
	</outline>
</glyph>
<glyph name="tmAuLengthmark" format="2">
	<advance width="810"/>
	<unicode hex="0BD7"/>
	<outline>
		<contour>
			<point x="220" y="-18" type="curve" smooth="yes"/>
			<point x="302" y="-18"/>
			<point x="335" y="47"/>
			<point x="335" y="94" type="curve" smooth="yes"/>
			<point x="336" y="151"/>
			<point x="295" y="188"/>
			<point x="241" y="188" type="curve" smooth="yes"/>
			<point x="177" y="189"/>
			<point x="134" y="139"/>
			<point x="133" y="75" type="curve" smooth="yes"/>
			<point x="133" y="33"/>
			<point x="146" y="20"/>
			<point x="159" y="6" type="curve"/>
			<point x="170" y="16" type="line"/>
			<point x="160" y="32"/>
			<point x="157" y="45"/>
			<point x="158" y="76" type="curve" smooth="yes"/>
			<point x="160" y="119"/>
			<point x="197" y="144"/>
			<point x="227" y="144" type="curve" smooth="yes"/>
			<point x="262" y="144"/>
			<point x="288" y="119"/>
			<point x="288" y="86" type="curve" smooth="yes"/>
			<point x="288" y="53"/>
			<point x="262" y="18"/>
			<point x="208" y="18" type="curve" smooth="yes"/>
			<point x="143" y="18"/>
			<point x="82" y="68"/>
			<point x="81" y="153" type="curve" smooth="yes"/>
			<point x="80" y="258"/>
			<point x="157" y="331"/>
			<point x="250" y="330" type="curve" smooth="yes"/>
			<point x="342" y="329"/>
			<point x="410" y="264"/>
			<point x="415" y="188" type="curve"/>
			<point x="464" y="217" type="line"/>
			<point x="447" y="291"/>
			<point x="376" y="365"/>
			<point x="258" y="365" type="curve" smooth="yes"/>
			<point x="141" y="365"/>
			<point x="51" y="278"/>
			<point x="51" y="151" type="curve" smooth="yes"/>
			<point x="50" y="61"/>
			<point x="116" y="-18"/>
		</contour>
		<contour>
			<point x="411" y="0" type="curve"/>
			<point x="467" y="0" type="line"/>
			<point x="467" y="220" type="line"/>
			<point x="466" y="260"/>
			<point x="467" y="291"/>
			<point x="467" y="324" type="curve"/>
			<point x="615" y="324" type="line"/>
			<point x="616" y="296"/>
			<point x="615" y="275"/>
			<point x="615" y="234" type="curve" smooth="yes"/>
			<point x="613" y="0" type="line"/>
			<point x="670" y="0" type="line"/>
			<point x="670" y="324" type="line"/>
			<point x="788" y="324" type="line"/>
			<point x="787" y="335"/>
			<point x="783" y="350"/>
			<point x="779" y="357" type="curve"/>
			<point x="682" y="351"/>
			<point x="524" y="351"/>
			<point x="437" y="350" type="curve"/>
			<point x="438" y="315"/>
			<point x="438" y="267"/>
			<point x="438" y="222" type="curve" smooth="yes"/>
			<point x="438" y="212"/>
			<point x="411" y="227"/>
			<point x="411" y="218" type="curve" smooth="yes"/>
			<point x="410" y="88"/>
			<point x="411" y="0"/>
		</contour>
	</outline>
</glyph>
<glyph name="tmZero" format="2">
	<advance width="393"/>
	<unicode hex="0BE6"/>
	<outline>
		<contour>
			<point x="192" y="-10" type="curve" smooth="yes"/>
			<point x="309" y="-10"/>
			<point x="363" y="75"/>
			<point x="363" y="190" type="curve" smooth="yes"/>
			<point x="363" y="268"/>
			<point x="319" y="373"/>
			<point x="202" y="373" type="curve" smooth="yes"/>
			<point x="102" y="373"/>
			<point x="30" y="288"/>
			<point x="30" y="182" type="curve" smooth="yes"/>
			<point x="30" y="65"/>
			<point x="105" y="-10"/>
		</contour>
		<contour>
			<point x="196" y="36" type="curve" smooth="yes"/>
			<point x="117" y="36"/>
			<point x="68" y="100"/>
			<point x="68" y="182" type="curve" smooth="yes"/>
			<point x="68" y="271"/>
			<point x="126" y="325"/>
			<point x="200" y="325" type="curve" smooth="yes"/>
			<point x="285" y="325"/>
			<point x="324" y="249"/>
			<point x="324" y="190" type="curve" smooth="yes"/>
			<point x="324" y="102"/>
			<point x="286" y="36"/>
		</contour>
	</outline>
</glyph>
<glyph name="tmTwo" format="2">
	<advance width="518"/>
	<unicode hex="0BE8"/>
	<outline>
		<contour>
			<point x="93" y="0" type="curve" smooth="yes"/>
			<point x="498" y="0" type="line"/>
			<point x="498" y="13"/>
			<point x="493" y="35"/>
			<point x="489" y="42" type="curve"/>
			<point x="401" y="36"/>
			<point x="318" y="35"/>
			<point x="263" y="35" type="curve" smooth="yes"/>
			<point x="96" y="36" type="line" smooth="yes"/>
			<point x="96" y="36"/>
			<point x="93" y="41"/>
			<point x="93" y="49" type="curve" smooth="yes"/>
			<point x="93" y="64"/>
			<point x="106" y="82"/>
			<point x="136" y="82" type="curve" smooth="yes"/>
			<point x="213" y="82" type="line" smooth="yes"/>
			<point x="314" y="82"/>
			<point x="375" y="137"/>
			<point x="372" y="236" type="curve" smooth="yes"/>
			<point x="369" y="331"/>
			<point x="291" y="381"/>
			<point x="208" y="381" type="curve" smooth="yes"/>
			<point x="120" y="380"/>
			<point x="62" y="318"/>
			<point x="61" y="246" type="curve" smooth="yes"/>
			<point x="61" y="186"/>
			<point x="103" y="148"/>
			<point x="156" y="148" type="curve" smooth="yes"/>
			<point x="216" y="149"/>
			<point x="243" y="188"/>
			<point x="243" y="231" type="curve" smooth="yes"/>
			<point x="243" y="274"/>
			<point x="209" y="304"/>
			<point x="168" y="304" type="curve" smooth="yes"/>
			<point x="138" y="304"/>
			<point x="101" y="284"/>
			<point x="84" y="241" type="curve"/>
			<point x="92" y="210" type="line"/>
			<point x="104" y="246"/>
			<point x="128" y="268"/>
			<point x="157" y="268" type="curve" smooth="yes"/>
			<point x="182" y="268"/>
			<point x="197" y="250"/>
			<point x="197" y="231" type="curve" smooth="yes"/>
			<point x="197" y="210"/>
			<point x="181" y="187"/>
			<point x="151" y="187" type="curve" smooth="yes"/>
			<point x="113" y="187"/>
			<point x="88" y="215"/>
			<point x="89" y="245" type="curve" smooth="yes"/>
			<point x="90" y="302"/>
			<point x="136" y="349"/>
			<point x="199" y="349" type="curve" smooth="yes"/>
			<point x="275" y="349"/>
			<point x="314" y="295"/>
			<point x="314" y="232" type="curve" smooth="yes"/>
			<point x="315" y="177"/>
			<point x="287" y="117"/>
			<point x="210" y="117" type="curve" smooth="yes"/>
			<point x="150" y="117" type="line" smooth="yes"/>
			<point x="122" y="117"/>
			<point x="99" y="111"/>
			<point x="84" y="100" type="curve" smooth="yes"/>
			<point x="65" y="86"/>
			<point x="56" y="65"/>
			<point x="55" y="44" type="curve"/>
			<point x="55" y="21"/>
			<point x="68" y="0"/>
		</contour>
	</outline>
</glyph>
<glyph name="tmThree" format="2">
	<advance width="556"/>
	<unicode hex="0BE9"/>
	<outline>
		<contour>
			<point x="67" y="0" type="curve"/>
			<point x="108" y="0" type="line"/>
			<point x="108" y="0"/>
			<point x="110" y="130"/>
			<point x="108" y="231" type="curve"/>
			<point x="108" y="264"/>
			<point x="108" y="289"/>
			<point x="107" y="322" type="curve"/>
			<point x="217" y="322" type="line"/>
			<point x="217" y="294"/>
			<point x="217" y="275"/>
			<point x="216" y="234" type="curve" smooth="yes"/>
			<point x="215" y="101" type="line"/>
			<point x="271" y="101" type="line"/>
			<point x="271" y="322" type="line"/>
			<point x="390" y="322" type="line"/>
			<point x="389" y="333"/>
			<point x="384" y="355"/>
			<point x="381" y="361" type="curve"/>
			<point x="291" y="355"/>
			<point x="193" y="351"/>
			<point x="68" y="351" type="curve"/>
			<point x="69" y="316"/>
			<point x="71" y="279"/>
			<point x="71" y="234" type="curve" smooth="yes"/>
			<point x="72" y="86"/>
			<point x="67" y="0"/>
		</contour>
		<contour>
			<point x="217" y="0" type="line"/>
			<point x="546" y="0" type="line"/>
			<point x="546" y="44" type="line"/>
			<point x="488" y="42" type="line"/>
			<point x="448" y="37"/>
			<point x="311" y="35"/>
			<point x="213" y="35" type="curve"/>
		</contour>
		<contour>
			<point x="340" y="24" type="line"/>
			<point x="385" y="32"/>
			<point x="435" y="81"/>
			<point x="434" y="141" type="curve" smooth="yes"/>
			<point x="433" y="203"/>
			<point x="391" y="244"/>
			<point x="328" y="245" type="curve" smooth="yes"/>
			<point x="291" y="246"/>
			<point x="244" y="228"/>
			<point x="237" y="174" type="curve"/>
			<point x="261" y="174" type="line"/>
			<point x="264" y="205"/>
			<point x="291" y="218"/>
			<point x="313" y="218" type="curve" smooth="yes"/>
			<point x="353" y="217"/>
			<point x="377" y="180"/>
			<point x="377" y="142" type="curve" smooth="yes"/>
			<point x="378" y="72"/>
			<point x="340" y="35"/>
			<point x="279" y="35" type="curve"/>
		</contour>
	</outline>
</glyph>
<glyph name="tmFive" format="2">
	<advance width="664"/>
	<unicode hex="0BEB"/>
	<outline>
		<contour>
			<point x="362" y="-177" type="curve" smooth="yes"/>
			<point x="549" y="-177"/>
			<point x="644" y="-49"/>
			<point x="644" y="59" type="curve" smooth="yes"/>
			<point x="644" y="169"/>
			<point x="565" y="209"/>
			<point x="509" y="210" type="curve" smooth="yes"/>
			<point x="448" y="211"/>
			<point x="409" y="174"/>
			<point x="392" y="124" type="curve"/>
			<point x="409" y="107" type="line"/>
			<point x="430" y="159"/>
			<point x="460" y="177"/>
			<point x="494" y="176" type="curve" smooth="yes"/>
			<point x="546" y="174"/>
			<point x="578" y="123"/>
			<point x="578" y="60" type="curve" smooth="yes"/>
			<point x="578" y="-57"/>
			<point x="485" y="-140"/>
			<point x="362" y="-139" type="curve" smooth="yes"/>
			<point x="165" y="-138"/>
			<point x="75" y="-9"/>
			<point x="75" y="158" type="curve" smooth="yes"/>
			<point x="75" y="382"/>
			<point x="202" y="474"/>
			<point x="354" y="477" type="curve" smooth="yes"/>
			<point x="477" y="479"/>
			<point x="563" y="442"/>
			<point x="621" y="373" type="curve"/>
			<point x="628" y="380"/>
			<point x="635" y="386"/>
			<point x="639" y="398" type="curve"/>
			<point x="593" y="461"/>
			<point x="493" y="530"/>
			<point x="360" y="530" type="curve" smooth="yes"/>
			<point x="202" y="530"/>
			<point x="40" y="421"/>
			<point x="40" y="156" type="curve" smooth="yes"/>
			<point x="40" y="-19"/>
			<point x="134" y="-177"/>
		</contour>
		<component base="tmMatraAa" xOffset="140" yOffset="-1"/>
	</outline>
</glyph>
<glyph name="tmEight" format="2">
	<advance width="796"/>
	<unicode hex="0BEE"/>
	<outline>
		<contour>
			<point x="286" y="-88" type="curve" smooth="yes"/>
			<point x="485" y="-88"/>
			<point x="581" y="44"/>
			<point x="581" y="164" type="curve" smooth="yes"/>
			<point x="581" y="297"/>
			<point x="488" y="362"/>
			<point x="395" y="362" type="curve" smooth="yes"/>
			<point x="317" y="362"/>
			<point x="245" y="304"/>
			<point x="246" y="209" type="curve" smooth="yes"/>
			<point x="247" y="121"/>
			<point x="316" y="78"/>
			<point x="373" y="78" type="curve"/>
			<point x="378" y="100" type="line"/>
			<point x="350" y="100"/>
			<point x="280" y="129"/>
			<point x="278" y="205" type="curve" smooth="yes"/>
			<point x="277" y="275"/>
			<point x="319" y="326"/>
			<point x="391" y="325" type="curve" smooth="yes"/>
			<point x="455" y="324"/>
			<point x="523" y="282"/>
			<point x="523" y="169" type="curve" smooth="yes"/>
			<point x="523" y="62"/>
			<point x="448" y="-51"/>
			<point x="283" y="-51" type="curve" smooth="yes"/>
			<point x="181" y="-51"/>
			<point x="91" y="-14"/>
			<point x="91" y="30" type="curve" smooth="yes"/>
			<point x="91" y="57"/>
			<point x="114" y="65"/>
			<point x="148" y="65" type="curve" smooth="yes"/>
			<point x="684" y="65" type="line"/>
			<point x="687" y="110" type="line"/>
			<point x="614" y="99"/>
			<point x="233" y="100"/>
			<point x="146" y="99" type="curve" smooth="yes"/>
			<point x="93" y="100"/>
			<point x="51" y="76"/>
			<point x="51" y="28" type="curve" smooth="yes"/>
			<point x="52" y="-28"/>
			<point x="133" y="-88"/>
		</contour>
		<contour>
			<point x="676" y="-113" type="curve"/>
			<point x="696" y="-113"/>
			<point x="719" y="-111"/>
			<point x="738" y="-108" type="curve"/>
			<point x="738" y="355" type="line"/>
			<point x="728" y="356"/>
			<point x="697" y="353"/>
			<point x="680" y="351" type="curve"/>
			<point x="680" y="7" type="line" smooth="yes"/>
			<point x="679" y="-43"/>
			<point x="678" y="-73"/>
		</contour>
	</outline>
</glyph>
<glyph name="tmTen" format="2">
	<advance width="605"/>
	<unicode hex="0BF0"/>
	<outline>
		<contour>
			<point x="410" y="-7" type="curve" smooth="yes"/>
			<point x="544" y="-7"/>
			<point x="576" y="138"/>
			<point x="575" y="226" type="curve" smooth="yes"/>
			<point x="573" y="448"/>
			<point x="400" y="526"/>
			<point x="201" y="466" type="curve"/>
			<point x="201" y="452"/>
			<point x="207" y="432"/>
			<point x="213" y="425" type="curve"/>
			<point x="346" y="483"/>
			<point x="513" y="455"/>
			<point x="513" y="233" type="curve" smooth="yes"/>
			<point x="513" y="157"/>
			<point x="504" y="29"/>
			<point x="417" y="29" type="curve" smooth="yes"/>
			<point x="343" y="29"/>
			<point x="324" y="73"/>
			<point x="324" y="131" type="curve"/>
			<point x="279" y="109" type="line"/>
			<point x="279" y="66"/>
			<point x="317" y="-7"/>
		</contour>
		<contour>
			<point x="168" y="-10" type="curve" smooth="yes"/>
			<point x="254" y="-9"/>
			<point x="293" y="63"/>
			<point x="293" y="113" type="curve"/>
			<point x="271" y="115" type="line"/>
			<point x="271" y="73"/>
			<point x="229" y="26"/>
			<point x="181" y="26" type="curve" smooth="yes"/>
			<point x="150" y="26"/>
			<point x="122" y="37"/>
			<point x="122" y="79" type="curve"/>
			<point x="120" y="354" type="line"/>
			<point x="110" y="355"/>
			<point x="79" y="352"/>
			<point x="60" y="350" type="curve"/>
			<point x="63" y="87" type="line" smooth="yes"/>
			<point x="64" y="15"/>
			<point x="111" y="-10"/>
		</contour>
		<contour>
			<point x="283" y="77" type="curve"/>
			<point x="324" y="35" type="line"/>
			<point x="324" y="354" type="line"/>
			<point x="314" y="355"/>
			<point x="286" y="352"/>
			<point x="268" y="350" type="curve"/>
			<point x="269" y="329"/>
			<point x="270" y="294"/>
			<point x="270" y="283" type="curve" smooth="yes"/>
			<point x="270" y="74" type="line"/>
			<point x="270" y="75"/>
			<point x="271" y="76"/>
		</contour>
	</outline>
</glyph>
<glyph name="tmHundred" format="2">
	<advance width="632"/>
	<unicode hex="0BF1"/>
	<outline>
		<contour>
			<point x="156" y="366" type="curve" smooth="yes"/>
			<point x="99" y="366"/>
			<point x="53" y="340"/>
			<point x="52" y="268" type="curve" smooth="yes"/>
			<point x="50" y="-1" type="line"/>
			<point x="110" y="-1" type="line"/>
			<point x="111" y="277" type="line" smooth="yes"/>
			<point x="111" y="319"/>
			<point x="138" y="330"/>
			<point x="169" y="330" type="curve" smooth="yes"/>
			<point x="217" y="330"/>
			<point x="260" y="284"/>
			<point x="260" y="242" type="curve"/>
			<point x="282" y="244" type="line"/>
			<point x="281" y="294"/>
			<point x="242" y="366"/>
		</contour>
		<component base="tmMatraAa" xOffset="195"/>
	</outline>
	<anchor name="Anchor-0" x="308" y="-109"/>
</glyph>
<glyph name="tmThousand" format="2">
	<advance width="698"/>
	<unicode hex="0BF2"/>
	<outline>
		<contour>
			<point x="193" y="-15" type="curve" smooth="yes"/>
			<point x="298" y="-15"/>
			<point x="352" y="53"/>
			<point x="354" y="141" type="curve" smooth="yes"/>
			<point x="354" y="324" type="line"/>
			<point x="464" y="324" type="line"/>
			<point x="463" y="331"/>
			<point x="461" y="342"/>
			<point x="459" y="350" type="curve"/>
			<point x="455" y="361" type="line"/>
			<point x="366" y="355"/>
			<point x="242" y="356"/>
			<point x="137" y="355" type="curve"/>
			<point x="138" y="320"/>
			<point x="136" y="184"/>
			<point x="136" y="184" type="curve"/>
			<point x="175" y="184" type="line"/>
			<point x="175" y="200"/>
			<point x="174" y="291"/>
			<point x="173" y="324" type="curve"/>
			<point x="295" y="324" type="line"/>
			<point x="295" y="191" type="line"/>
			<point x="294" y="179" type="line"/>
			<point x="294" y="141" type="line" smooth="yes"/>
			<point x="293" y="63"/>
			<point x="251" y="22"/>
			<point x="187" y="22" type="curve" smooth="yes"/>
			<point x="119" y="21"/>
			<point x="76" y="62"/>
			<point x="76" y="106" type="curve" smooth="yes"/>
			<point x="76" y="147"/>
			<point x="102" y="173"/>
			<point x="155" y="173" type="curve" smooth="yes"/>
			<point x="623" y="173" type="line"/>
			<point x="623" y="185"/>
			<point x="619" y="202"/>
			<point x="615" y="212" type="curve"/>
			<point x="582" y="210"/>
			<point x="336" y="207"/>
			<point x="314" y="207" type="curve" smooth="yes"/>
			<point x="160" y="206" type="line" smooth="yes"/>
			<point x="87" y="206"/>
			<point x="42" y="170"/>
			<point x="42" y="104" type="curve" smooth="yes"/>
			<point x="41" y="46"/>
			<point x="87" y="-15"/>
		</contour>
		<contour>
			<point x="337" y="-150" type="curve" smooth="yes"/>
			<point x="361" y="-150"/>
			<point x="373" y="-137"/>
			<point x="374" y="-121" type="curve"/>
			<point x="373" y="-118"/>
			<point x="370" y="-112"/>
			<point x="367" y="-109" type="curve"/>
			<point x="360" y="-118"/>
			<point x="353" y="-118"/>
			<point x="350" y="-118" type="curve" smooth="yes"/>
			<point x="341" y="-118"/>
			<point x="336" y="-112"/>
			<point x="336" y="-104" type="curve" smooth="yes"/>
			<point x="336" y="-86"/>
			<point x="359" y="-78"/>
			<point x="379" y="-78" type="curve" smooth="yes"/>
			<point x="529" y="-78" type="line" smooth="yes"/>
			<point x="627" y="-78"/>
			<point x="643" y="-7"/>
			<point x="643" y="30" type="curve" smooth="yes"/>
			<point x="643" y="78"/>
			<point x="613" y="114"/>
			<point x="553" y="114" type="curve" smooth="yes"/>
			<point x="521" y="114" type="line" smooth="yes"/>
			<point x="486" y="114"/>
			<point x="450" y="115"/>
			<point x="427" y="114" type="curve" smooth="yes"/>
			<point x="383" y="112"/>
			<point x="362" y="92"/>
			<point x="361" y="52" type="curve" smooth="yes"/>
			<point x="360" y="17"/>
			<point x="388" y="-20"/>
			<point x="443" y="-20" type="curve" smooth="yes"/>
			<point x="510" y="-20"/>
			<point x="543" y="20"/>
			<point x="541" y="73" type="curve" smooth="yes"/>
			<point x="540" y="105" type="line"/>
			<point x="540" y="185" type="line"/>
			<point x="496" y="185" type="line"/>
			<point x="496" y="131" type="line"/>
			<point x="495" y="105" type="line"/>
			<point x="495" y="74" type="line" smooth="yes"/>
			<point x="495" y="27"/>
			<point x="478" y="8"/>
			<point x="442" y="8" type="curve" smooth="yes"/>
			<point x="411" y="8"/>
			<point x="390" y="29"/>
			<point x="390" y="52" type="curve" smooth="yes"/>
			<point x="390" y="80"/>
			<point x="405" y="87"/>
			<point x="430" y="87" type="curve" smooth="yes"/>
			<point x="541" y="87" type="line" smooth="yes"/>
			<point x="577" y="87"/>
			<point x="598" y="70"/>
			<point x="598" y="26" type="curve" smooth="yes"/>
			<point x="598" y="-9"/>
			<point x="577" y="-54"/>
			<point x="518" y="-54" type="curve" smooth="yes"/>
			<point x="383" y="-53" type="line" smooth="yes"/>
			<point x="334" y="-53"/>
			<point x="297" y="-77"/>
			<point x="297" y="-114" type="curve" smooth="yes"/>
			<point x="297" y="-133"/>
			<point x="310" y="-150"/>
		</contour>
	</outline>
</glyph>
<glyph name="tmDay" format="2">
	<advance width="713"/>
	<unicode hex="0BF3"/>
	<outline>
		<contour>
			<point x="57" y="163" type="curve" smooth="yes"/>
			<point x="57" y="73"/>
			<point x="125" y="-17"/>
			<point x="231" y="-16" type="curve" smooth="yes"/>
			<point x="320" y="-15"/>
			<point x="352" y="47"/>
			<point x="352" y="94" type="curve" smooth="yes"/>
			<point x="352" y="154"/>
			<point x="309" y="187"/>
			<point x="258" y="188" type="curve" smooth="yes"/>
			<point x="197" y="189"/>
			<point x="145" y="143"/>
			<point x="145" y="72" type="curve" smooth="yes"/>
			<point x="145" y="33"/>
			<point x="170" y="12"/>
			<point x="182" y="-2" type="curve"/>
			<point x="190" y="9" type="line"/>
			<point x="181" y="25"/>
			<point x="172" y="37"/>
			<point x="172" y="63" type="curve" smooth="yes"/>
			<point x="172" y="115"/>
			<point x="210" y="139"/>
			<point x="242" y="139" type="curve" smooth="yes"/>
			<point x="277" y="139"/>
			<point x="301" y="117"/>
			<point x="301" y="87" type="curve" smooth="yes"/>
			<point x="301" y="53"/>
			<point x="279" y="19"/>
			<point x="224" y="19" type="curve" smooth="yes"/>
			<point x="167" y="19"/>
			<point x="91" y="67"/>
			<point x="91" y="166" type="curve" smooth="yes"/>
			<point x="91" y="267"/>
			<point x="160" y="331"/>
			<point x="254" y="331" type="curve" smooth="yes"/>
			<point x="366" y="331"/>
			<point x="425" y="253"/>
			<point x="424" y="160" type="curve" smooth="yes"/>
			<point x="423" y="93"/>
			<point x="407" y="51"/>
			<point x="387" y="11" type="curve"/>
			<point x="396" y="0" type="line"/>
			<point x="653" y="0" type="line"/>
			<point x="651" y="22"/>
			<point x="641" y="45"/>
			<point x="641" y="45" type="curve"/>
			<point x="601" y="41"/>
			<point x="473" y="35"/>
			<point x="414" y="35" type="curve"/>
			<point x="412" y="29"/>
			<point x="451" y="14"/>
			<point x="449" y="6" type="curve"/>
			<point x="466" y="48"/>
			<point x="483" y="100"/>
			<point x="483" y="167" type="curve"/>
			<point x="482" y="288"/>
			<point x="395" y="368"/>
			<point x="270" y="370" type="curve" smooth="yes"/>
			<point x="155" y="372"/>
			<point x="57" y="293"/>
		</contour>
	</outline>
</glyph>
<glyph name="tmMonth" format="2">
	<advance width="579"/>
	<unicode hex="0BF4"/>
	<outline>
		<contour>
			<point x="413" y="349" type="curve"/>
			<point x="452" y="350" type="line"/>
			<point x="439" y="359"/>
			<point x="417" y="373"/>
			<point x="417" y="410" type="curve" smooth="yes"/>
			<point x="417" y="443"/>
			<point x="437" y="479"/>
			<point x="484" y="481" type="curve" smooth="yes"/>
			<point x="514" y="482"/>
			<point x="545" y="469"/>
			<point x="545" y="443" type="curve" smooth="yes"/>
			<point x="545" y="426"/>
			<point x="534" y="417"/>
			<point x="519" y="417" type="curve" smooth="yes"/>
			<point x="509" y="417"/>
			<point x="484" y="425"/>
			<point x="484" y="461" type="curve" smooth="yes"/>
			<point x="484" y="506"/>
			<point x="526" y="527"/>
			<point x="560" y="527" type="curve" smooth="yes"/>
			<point x="642" y="527"/>
			<point x="660" y="463"/>
			<point x="660" y="430" type="curve"/>
			<point x="668" y="428"/>
			<point x="672" y="428"/>
			<point x="678" y="432" type="curve"/>
			<point x="684" y="490"/>
			<point x="643" y="563"/>
			<point x="568" y="563" type="curve" smooth="yes"/>
			<point x="518" y="563"/>
			<point x="465" y="525"/>
			<point x="465" y="458" type="curve" smooth="yes"/>
			<point x="465" y="402"/>
			<point x="500" y="387"/>
			<point x="526" y="387" type="curve" smooth="yes"/>
			<point x="563" y="387"/>
			<point x="582" y="409"/>
			<point x="582" y="442" type="curve" smooth="yes"/>
			<point x="582" y="481"/>
			<point x="544" y="510"/>
			<point x="496" y="510" type="curve" smooth="yes"/>
			<point x="444" y="510"/>
			<point x="392" y="475"/>
			<point x="392" y="409" type="curve" smooth="yes"/>
			<point x="392" y="384"/>
			<point x="401" y="361"/>
		</contour>
		<component base="tmMa"/>
	</outline>
</glyph>
<glyph name="tmYear" format="2">
	<advance width="1585"/>
	<unicode hex="0BF5"/>
	<outline>
		<contour>
			<point x="627" y="527" type="curve" smooth="yes"/>
			<point x="243" y="527"/>
			<point x="7" y="403"/>
			<point x="5" y="167" type="curve" smooth="yes"/>
			<point x="3" y="-59"/>
			<point x="182" y="-201"/>
			<point x="600" y="-201" type="curve" smooth="yes"/>
			<point x="1008" y="-201"/>
			<point x="1134" y="-58"/>
			<point x="1133" y="73" type="curve" smooth="yes"/>
			<point x="1132" y="170"/>
			<point x="1071" y="214"/>
			<point x="1011" y="215" type="curve" smooth="yes"/>
			<point x="952" y="216"/>
			<point x="915" y="183"/>
			<point x="911" y="122" type="curve"/>
			<point x="931" y="118" type="line"/>
			<point x="932" y="155"/>
			<point x="945" y="175"/>
			<point x="986" y="177" type="curve" smooth="yes"/>
			<point x="1029" y="179"/>
			<point x="1065" y="136"/>
			<point x="1065" y="73" type="curve" smooth="yes"/>
			<point x="1065" y="-76"/>
			<point x="903" y="-162"/>
			<point x="592" y="-159" type="curve" smooth="yes"/>
			<point x="251" y="-156"/>
			<point x="47" y="-49"/>
			<point x="50" y="174" type="curve" smooth="yes"/>
			<point x="53" y="410"/>
			<point x="339" y="476"/>
			<point x="605" y="476" type="curve" smooth="yes"/>
			<point x="1126" y="476"/>
			<point x="1210" y="336"/>
			<point x="1212" y="206" type="curve" smooth="yes"/>
			<point x="1212" y="146" type="line" smooth="yes"/>
			<point x="1212" y="17"/>
			<point x="1275" y="-12"/>
			<point x="1341" y="-13" type="curve" smooth="yes"/>
			<point x="1434" y="-15"/>
			<point x="1472" y="71"/>
			<point x="1472" y="165" type="curve" smooth="yes"/>
			<point x="1472" y="248"/>
			<point x="1438" y="345"/>
			<point x="1431" y="361" type="curve"/>
			<point x="1410" y="365"/>
			<point x="1386" y="355"/>
			<point x="1373" y="348" type="curve"/>
			<point x="1401" y="311"/>
			<point x="1421" y="249"/>
			<point x="1424" y="163" type="curve" smooth="yes"/>
			<point x="1426" y="95"/>
			<point x="1399" y="43"/>
			<point x="1344" y="44" type="curve" smooth="yes"/>
			<point x="1313" y="45"/>
			<point x="1268" y="66"/>
			<point x="1268" y="143" type="curve"/>
			<point x="1267" y="215" type="line"/>
			<point x="1267" y="356"/>
			<point x="1141" y="527"/>
		</contour>
		<component base="tmVa" xOffset="100"/>
		<component base="tmMatraAa" xOffset="641"/>
	</outline>
</glyph>
<glyph name="tmDebit" format="2">
	<advance width="697"/>
	<unicode hex="0BF6"/>
	<outline>
		<contour>
			<point x="531" y="50" type="line"/>
			<point x="474" y="50" type="line"/>
			<point x="475" y="0" type="line" smooth="yes"/>
			<point x="475" y="-87"/>
			<point x="422" y="-186"/>
			<point x="226" y="-186" type="curve" smooth="yes"/>
			<point x="92" y="-186"/>
			<point x="44" y="-143"/>
			<point x="44" y="-112" type="curve" smooth="yes"/>
			<point x="44" y="-100"/>
			<point x="52" y="-87"/>
			<point x="75" y="-87" type="curve" smooth="yes"/>
			<point x="677" y="-87" type="line"/>
			<point x="677" y="355" type="line"/>
			<point x="662" y="355"/>
			<point x="631" y="352"/>
			<point x="620" y="350" type="curve"/>
			<point x="620" y="15" type="line" smooth="yes"/>
			<point x="620" y="-13"/>
			<point x="618" y="-37"/>
			<point x="616" y="-53" type="curve"/>
			<point x="71" y="-58" type="line" smooth="yes"/>
			<point x="40" y="-58"/>
			<point x="10" y="-73"/>
			<point x="10" y="-109" type="curve" smooth="yes"/>
			<point x="10" y="-184"/>
			<point x="117" y="-217"/>
			<point x="222" y="-217" type="curve" smooth="yes"/>
			<point x="477" y="-217"/>
			<point x="532" y="-100"/>
			<point x="532" y="-2" type="curve"/>
		</contour>
		<component base="tmPa" xOffset="40"/>
	</outline>
</glyph>
<glyph name="tmCredit" format="2">
	<advance width="866"/>
	<unicode hex="0BF7"/>
	<outline>
		<contour>
			<point x="587" y="-6" type="curve" smooth="yes"/>
			<point x="646" y="-6"/>
			<point x="667" y="30"/>
			<point x="667" y="66" type="curve" smooth="yes"/>
			<point x="667" y="103"/>
			<point x="642" y="140"/>
			<point x="581" y="139" type="curve" smooth="yes"/>
			<point x="518" y="138"/>
			<point x="462" y="92"/>
			<point x="444" y="32" type="curve"/>
			<point x="458" y="8" type="line"/>
			<point x="464" y="54"/>
			<point x="508" y="108"/>
			<point x="567" y="108" type="curve" smooth="yes"/>
			<point x="603" y="108"/>
			<point x="622" y="85"/>
			<point x="622" y="62" type="curve" smooth="yes"/>
			<point x="622" y="39"/>
			<point x="607" y="23"/>
			<point x="583" y="23" type="curve" smooth="yes"/>
			<point x="553" y="23"/>
			<point x="535" y="44"/>
			<point x="535" y="84" type="curve" smooth="yes"/>
			<point x="535" y="130"/>
			<point x="567" y="169"/>
			<point x="621" y="169" type="curve" smooth="yes"/>
			<point x="669" y="169"/>
			<point x="698" y="137"/>
			<point x="697" y="86" type="curve" smooth="yes"/>
			<point x="696" y="52"/>
			<point x="689" y="30"/>
			<point x="678" y="9" type="curve"/>
			<point x="683" y="3" type="line"/>
			<point x="844" y="3" type="line"/>
			<point x="844" y="12"/>
			<point x="843" y="20"/>
			<point x="844" y="29" type="curve"/>
			<point x="844" y="83"/>
			<point x="844" y="138"/>
			<point x="844" y="192" type="curve"/>
			<point x="836" y="191"/>
			<point x="803" y="190"/>
			<point x="794" y="190" type="curve"/>
			<point x="795" y="175"/>
			<point x="795" y="155"/>
			<point x="795" y="144" type="curve" smooth="yes"/>
			<point x="795" y="25" type="line"/>
			<point x="775" y="23"/>
			<point x="732" y="21"/>
			<point x="693" y="21" type="curve"/>
			<point x="729" y="6" type="line"/>
			<point x="738" y="28"/>
			<point x="747" y="56"/>
			<point x="747" y="87" type="curve" smooth="yes"/>
			<point x="747" y="156"/>
			<point x="699" y="199"/>
			<point x="632" y="200" type="curve" smooth="yes"/>
			<point x="570" y="201"/>
			<point x="508" y="159"/>
			<point x="508" y="82" type="curve" smooth="yes"/>
			<point x="508" y="36"/>
			<point x="530" y="-6"/>
		</contour>
		<component base="tmE"/>
	</outline>
</glyph>
<glyph name="tmRupee" format="2">
	<advance width="734"/>
	<unicode hex="0BF9"/>
	<outline>
		<contour>
			<point x="392" y="-177" type="curve" smooth="yes"/>
			<point x="609" y="-177"/>
			<point x="704" y="-49"/>
			<point x="704" y="59" type="curve" smooth="yes"/>
			<point x="704" y="169"/>
			<point x="625" y="209"/>
			<point x="569" y="210" type="curve" smooth="yes"/>
			<point x="508" y="211"/>
			<point x="469" y="174"/>
			<point x="452" y="124" type="curve"/>
			<point x="469" y="107" type="line"/>
			<point x="490" y="159"/>
			<point x="520" y="177"/>
			<point x="554" y="176" type="curve" smooth="yes"/>
			<point x="606" y="174"/>
			<point x="638" y="123"/>
			<point x="638" y="60" type="curve" smooth="yes"/>
			<point x="638" y="-57"/>
			<point x="545" y="-140"/>
			<point x="392" y="-139" type="curve" smooth="yes"/>
			<point x="175" y="-138"/>
			<point x="75" y="-9"/>
			<point x="75" y="157" type="curve" smooth="yes"/>
			<point x="75" y="316"/>
			<point x="124" y="372"/>
			<point x="174" y="375" type="curve" smooth="yes"/>
			<point x="190" y="376"/>
			<point x="204" y="370"/>
			<point x="204" y="352" type="curve" smooth="yes"/>
			<point x="204" y="307"/>
			<point x="127" y="302"/>
			<point x="95" y="321" type="curve"/>
			<point x="85" y="288" type="line"/>
			<point x="178" y="265"/>
			<point x="248" y="314"/>
			<point x="248" y="355" type="curve" smooth="yes"/>
			<point x="248" y="394"/>
			<point x="219" y="411"/>
			<point x="180" y="410" type="curve" smooth="yes"/>
			<point x="138" y="409"/>
			<point x="40" y="357"/>
			<point x="40" y="155" type="curve" smooth="yes"/>
			<point x="40" y="-19"/>
			<point x="144" y="-177"/>
		</contour>
		<component base="tmMatraAa" xOffset="200"/>
	</outline>
</glyph>
<glyph name="anusvara" format="2">
	<unicode hex="0D82"/>
	<advance width="253"/>
	<outline>
		<contour>
			<point x="236" y="109" type="curve" smooth="yes"/>
			<point x="236" y="48"/>
			<point x="187" y="-2"/>
			<point x="126" y="-2" type="curve" smooth="yes"/>
			<point x="66" y="-2"/>
			<point x="17" y="48"/>
			<point x="17" y="109" type="curve" smooth="yes"/>
			<point x="17" y="169"/>
			<point x="66" y="218"/>
			<point x="126" y="218" type="curve" smooth="yes"/>
			<point x="187" y="218"/>
			<point x="236" y="169"/>
		</contour>
		<contour>
			<point x="50" y="109" type="curve" smooth="yes"/>
			<point x="50" y="65"/>
			<point x="85" y="31"/>
			<point x="126" y="31" type="curve" smooth="yes"/>
			<point x="169" y="31"/>
			<point x="203" y="65"/>
			<point x="203" y="109" type="curve" smooth="yes"/>
			<point x="203" y="150"/>
			<point x="169" y="185"/>
			<point x="126" y="185" type="curve" smooth="yes"/>
			<point x="85" y="185"/>
			<point x="50" y="150"/>
		</contour>
	</outline>
</glyph>
<glyph name="visarga" format="2">
	<unicode hex="0D83"/>
	<advance width="168"/>
	<outline>
		<contour>
			<point x="151" y="67" type="curve" smooth="yes"/>
			<point x="151" y="30"/>
			<point x="121" y="0"/>
			<point x="83" y="0" type="curve" smooth="yes"/>
			<point x="47" y="0"/>
			<point x="17" y="30"/>
			<point x="17" y="67" type="curve" smooth="yes"/>
			<point x="17" y="104"/>
			<point x="47" y="135"/>
			<point x="83" y="135" type="curve" smooth="yes"/>
			<point x="121" y="135"/>
			<point x="151" y="104"/>
		</contour>
		<contour>
			<point x="49" y="67" type="curve" smooth="yes"/>
			<point x="49" y="46"/>
			<point x="64" y="31"/>
			<point x="83" y="31" type="curve" smooth="yes"/>
			<point x="104" y="31"/>
			<point x="119" y="46"/>
			<point x="119" y="67" type="curve" smooth="yes"/>
			<point x="119" y="87"/>
			<point x="104" y="102"/>
			<point x="83" y="102" type="curve" smooth="yes"/>
			<point x="64" y="102"/>
			<point x="49" y="87"/>
		</contour>
		<contour>
			<point x="151" y="238" type="curve" smooth="yes"/>
			<point x="151" y="201"/>
			<point x="121" y="171"/>
			<point x="83" y="171" type="curve" smooth="yes"/>
			<point x="47" y="171"/>
			<point x="17" y="201"/>
			<point x="17" y="238" type="curve" smooth="yes"/>
			<point x="17" y="275"/>
			<point x="47" y="306"/>
			<point x="83" y="306" type="curve" smooth="yes"/>
			<point x="121" y="306"/>
			<point x="151" y="275"/>
		</contour>
		<contour>
			<point x="49" y="238" type="curve" smooth="yes"/>
			<point x="49" y="217"/>
			<point x="64" y="202"/>
			<point x="83" y="202" type="curve" smooth="yes"/>
			<point x="104" y="202"/>
			<point x="119" y="217"/>
			<point x="119" y="238" type="curve" smooth="yes"/>
			<point x="119" y="258"/>
			<point x="104" y="273"/>
			<point x="83" y="273" type="curve" smooth="yes"/>
			<point x="64" y="273"/>
			<point x="49" y="258"/>
		</contour>
	</outline>
</glyph>
<glyph name="sinA" format="2">
	<unicode hex="0D85"/>
	<advance width="510"/>
	<outline>
		<contour>
			<point x="280" y="236" type="curve" smooth="yes"/>
			<point x="219" y="236"/>
			<point x="204" y="266"/>
			<point x="138" y="266" type="curve" smooth="yes"/>
			<point x="100" y="266"/>
			<point x="49" y="235"/>
			<point x="49" y="157" type="curve" smooth="yes"/>
			<point x="49" y="64"/>
			<point x="107" y="-1"/>
			<point x="212" y="-1" type="curve" smooth="yes"/>
			<point x="276" y="-1"/>
			<point x="315" y="32"/>
			<point x="338" y="59" type="curve"/>
			<point x="338" y="99"/>
			<point x="338" y="132"/>
			<point x="338" y="160" type="curve" smooth="yes"/>
			<point x="338" y="199"/>
			<point x="338" y="230"/>
			<point x="337" y="257" type="curve"/>
			<point x="327" y="246"/>
			<point x="310" y="236"/>
		</contour>
		<contour>
			<point x="367" y="305" type="curve"/>
			<point x="372" y="301"/>
			<point x="377" y="300"/>
			<point x="383" y="300" type="curve" smooth="yes"/>
			<point x="409" y="300"/>
			<point x="421" y="315"/>
			<point x="444" y="315" type="curve" smooth="yes"/>
			<point x="466" y="315"/>
			<point x="493" y="298"/>
			<point x="493" y="259" type="curve" smooth="yes"/>
			<point x="493" y="210"/>
			<point x="460" y="172"/>
			<point x="416" y="172" type="curve" smooth="yes"/>
			<point x="394" y="172"/>
			<point x="378" y="179"/>
			<point x="365" y="188" type="curve"/>
			<point x="365" y="130" type="line" smooth="yes"/>
			<point x="365" y="20"/>
			<point x="375" y="-68"/>
			<point x="375" y="-178" type="curve" smooth="yes"/>
			<point x="375" y="-205"/>
			<point x="341" y="-205"/>
			<point x="341" y="-179" type="curve" smooth="yes"/>
			<point x="339" y="-104"/>
			<point x="340" y="-58"/>
			<point x="339" y="17" type="curve"/>
			<point x="324" y="-1"/>
			<point x="286" y="-31"/>
			<point x="216" y="-31" type="curve" smooth="yes"/>
			<point x="89" y="-31"/>
			<point x="17" y="44"/>
			<point x="17" y="160" type="curve" smooth="yes"/>
			<point x="17" y="256"/>
			<point x="88" y="298"/>
			<point x="146" y="298" type="curve" smooth="yes"/>
			<point x="162" y="298"/>
			<point x="188" y="291"/>
			<point x="202" y="281" type="curve"/>
			<point x="198" y="288"/>
			<point x="194" y="302"/>
			<point x="194" y="310" type="curve" smooth="yes"/>
			<point x="194" y="329"/>
			<point x="208" y="339"/>
			<point x="227" y="339" type="curve" smooth="yes"/>
			<point x="248" y="339"/>
			<point x="263" y="326"/>
			<point x="292" y="326" type="curve" smooth="yes"/>
			<point x="315" y="326"/>
			<point x="314" y="292"/>
			<point x="290" y="292" type="curve" smooth="yes"/>
			<point x="270" y="292"/>
			<point x="254" y="306"/>
			<point x="239" y="306" type="curve" smooth="yes"/>
			<point x="231" y="306"/>
			<point x="228" y="302"/>
			<point x="228" y="298" type="curve" smooth="yes"/>
			<point x="228" y="273"/>
			<point x="260" y="265"/>
			<point x="285" y="265" type="curve" smooth="yes"/>
			<point x="313" y="265"/>
			<point x="332" y="279"/>
			<point x="334" y="312" type="curve" smooth="yes"/>
			<point x="336" y="338"/>
			<point x="370" y="338"/>
		</contour>
		<contour>
			<point x="435" y="285" type="curve" smooth="yes"/>
			<point x="415" y="285"/>
			<point x="406" y="273"/>
			<point x="386" y="273" type="curve" smooth="yes"/>
			<point x="377" y="273"/>
			<point x="371" y="275"/>
			<point x="367" y="278" type="curve"/>
			<point x="366" y="259"/>
			<point x="366" y="239"/>
			<point x="366" y="219" type="curve"/>
			<point x="375" y="210"/>
			<point x="391" y="200"/>
			<point x="412" y="200" type="curve" smooth="yes"/>
			<point x="443" y="200"/>
			<point x="462" y="223"/>
			<point x="462" y="254" type="curve" smooth="yes"/>
			<point x="462" y="278"/>
			<point x="449" y="285"/>
		</contour>
	</outline>
</glyph>
<glyph name="sinI" format="1">
	<unicode hex="0D89"/>
	<advance width="542"/>
	<outline>
		<contour>
			<point x="353" y="-271"/>
			<point x="364" y="-263"/>
			<point x="364" y="-250" type="curve" smooth="yes"/>
			<point x="364" y="-184"/>
			<point x="351" y="-139"/>
			<point x="282" y="-107" type="curve"/>
			<point x="460" y="-75"/>
			<point x="521" y="45"/>
			<point x="521" y="167" type="curve" smooth="yes"/>
			<point x="521" y="304"/>
			<point x="432" y="434"/>
			<point x="258" y="434" type="curve" smooth="yes"/>
			<point x="127" y="434"/>
			<point x="22" y="352"/>
			<point x="22" y="208" type="curve" smooth="yes"/>
			<point x="22" y="94"/>
			<point x="94" y="-1"/>
			<point x="219" y="-1" type="curve" smooth="yes"/>
			<point x="324" y="-1"/>
			<point x="379" y="76"/>
			<point x="379" y="144" type="curve" smooth="yes"/>
			<point x="379" y="216"/>
			<point x="341" y="277"/>
			<point x="254" y="277" type="curve" smooth="yes"/>
			<point x="220" y="277"/>
			<point x="182" y="254"/>
			<point x="182" y="216" type="curve" smooth="yes"/>
			<point x="182" y="195"/>
			<point x="196" y="176"/>
			<point x="217" y="176" type="curve" smooth="yes"/>
			<point x="238" y="176"/>
			<point x="247" y="190"/>
			<point x="247" y="204" type="curve" smooth="yes"/>
			<point x="247" y="216"/>
			<point x="240" y="228"/>
			<point x="228" y="229" type="curve"/>
			<point x="235" y="237"/>
			<point x="244" y="241"/>
			<point x="254" y="241" type="curve" smooth="yes"/>
			<point x="302" y="241"/>
			<point x="338" y="209"/>
			<point x="338" y="144" type="curve" smooth="yes"/>
			<point x="338" y="92"/>
			<point x="293" y="38"/>
			<point x="217" y="38" type="curve" smooth="yes"/>
			<point x="117" y="38"/>
			<point x="61" y="119"/>
			<point x="61" y="207" type="curve" smooth="yes"/>
			<point x="61" y="334"/>
			<point x="160" y="396"/>
			<point x="258" y="396" type="curve" smooth="yes"/>
			<point x="408" y="396"/>
			<point x="484" y="288"/>
			<point x="484" y="166" type="curve" smooth="yes"/>
			<point x="484" y="21"/>
			<point x="374" y="-73"/>
			<point x="217" y="-73" type="curve" smooth="yes"/>
			<point x="203" y="-73"/>
			<point x="189" y="-73"/>
			<point x="175" y="-71" type="curve" smooth="yes"/>
			<point x="165" y="-70"/>
			<point x="155" y="-78"/>
			<point x="155" y="-89" type="curve" smooth="yes"/>
			<point x="155" y="-99"/>
			<point x="164" y="-107"/>
			<point x="175" y="-108" type="curve" smooth="yes"/>
			<point x="297" y="-124"/>
			<point x="324" y="-181"/>
			<point x="324" y="-248" type="curve" smooth="yes"/>
			<point x="324" y="-264"/>
			<point x="336" y="-271"/>
			<point x="343" y="-271" type="curve" smooth="yes"/>
		</contour>
	</outline>
</glyph>
<glyph name="sinIi" format="2">
	<unicode hex="0D8A"/>
	<advance height="698" width="698"/>
	<outline>
		<contour>
			<point x="640" y="682" type="curve" smooth="yes"/>
			<point x="640" y="623"/>
			<point x="591" y="574"/>
			<point x="530" y="574" type="curve" smooth="yes"/>
			<point x="471" y="574"/>
			<point x="422" y="623"/>
			<point x="422" y="682" type="curve" smooth="yes"/>
			<point x="422" y="743"/>
			<point x="471" y="792"/>
			<point x="530" y="792" type="curve" smooth="yes"/>
			<point x="591" y="792"/>
			<point x="640" y="743"/>
		</contour>
		<contour>
			<point x="474" y="682" type="curve" smooth="yes"/>
			<point x="474" y="649"/>
			<point x="499" y="624"/>
			<point x="530" y="624" type="curve" smooth="yes"/>
			<point x="563" y="624"/>
			<point x="588" y="649"/>
			<point x="588" y="682" type="curve" smooth="yes"/>
			<point x="588" y="715"/>
			<point x="563" y="740"/>
			<point x="530" y="740" type="curve" smooth="yes"/>
			<point x="499" y="740"/>
			<point x="474" y="715"/>
		</contour>
		<contour>
			<point x="294" y="812" type="curve" smooth="yes"/>
			<point x="294" y="753"/>
			<point x="245" y="704"/>
			<point x="184" y="704" type="curve" smooth="yes"/>
			<point x="125" y="704"/>
			<point x="76" y="753"/>
			<point x="76" y="812" type="curve" smooth="yes"/>
			<point x="76" y="873"/>
			<point x="125" y="922"/>
			<point x="184" y="922" type="curve" smooth="yes"/>
			<point x="245" y="922"/>
			<point x="294" y="873"/>
		</contour>
		<contour>
			<point x="128" y="812" type="curve" smooth="yes"/>
			<point x="128" y="779"/>
			<point x="153" y="755"/>
			<point x="184" y="755" type="curve" smooth="yes"/>
			<point x="217" y="755"/>
			<point x="242" y="779"/>
			<point x="242" y="812" type="curve" smooth="yes"/>
			<point x="242" y="845"/>
			<point x="217" y="870"/>
			<point x="184" y="870" type="curve" smooth="yes"/>
			<point x="153" y="870"/>
			<point x="128" y="845"/>
		</contour>
		<contour>
			<point x="346" y="-12" type="curve" smooth="yes"/>
			<point x="507" y="-12"/>
			<point x="634" y="119"/>
			<point x="634" y="282" type="curve" smooth="yes"/>
			<point x="634" y="447"/>
			<point x="517" y="566"/>
			<point x="346" y="566" type="curve" smooth="yes"/>
			<point x="267" y="566"/>
			<point x="222" y="540"/>
			<point x="193" y="510" type="curve"/>
			<point x="252" y="600"/>
			<point x="394" y="773"/>
			<point x="577" y="930" type="curve" smooth="yes"/>
			<point x="585" y="937"/>
			<point x="586" y="942"/>
			<point x="586" y="950" type="curve" smooth="yes"/>
			<point x="586" y="964"/>
			<point x="575" y="973"/>
			<point x="562" y="973" type="curve" smooth="yes"/>
			<point x="555" y="973"/>
			<point x="547" y="969"/>
			<point x="540" y="964" type="curve" smooth="yes"/>
			<point x="366" y="810"/>
			<point x="222" y="646"/>
			<point x="148" y="536" type="curve" smooth="yes"/>
			<point x="90" y="449"/>
			<point x="56" y="380"/>
			<point x="56" y="276" type="curve" smooth="yes"/>
			<point x="56" y="117"/>
			<point x="185" y="-12"/>
		</contour>
		<contour>
			<point x="346" y="40" type="curve" smooth="yes"/>
			<point x="214" y="40"/>
			<point x="109" y="144"/>
			<point x="109" y="278" type="curve" smooth="yes"/>
			<point x="109" y="406"/>
			<point x="209" y="515"/>
			<point x="346" y="515" type="curve" smooth="yes"/>
			<point x="480" y="515"/>
			<point x="582" y="416"/>
			<point x="582" y="280" type="curve" smooth="yes"/>
			<point x="582" y="145"/>
			<point x="480" y="40"/>
		</contour>
	</outline>
</glyph>
<glyph name="sinU" format="2">
	<unicode hex="0D8B"/>
	<advance width="401"/>
	<outline>
		<contour>
			<point x="182" y="298" type="curve" smooth="yes"/>
			<point x="199" y="298"/>
			<point x="231" y="291"/>
			<point x="246" y="281" type="curve"/>
			<point x="241" y="288"/>
			<point x="237" y="302"/>
			<point x="237" y="310" type="curve" smooth="yes"/>
			<point x="237" y="329"/>
			<point x="251" y="339"/>
			<point x="270" y="339" type="curve" smooth="yes"/>
			<point x="291" y="339"/>
			<point x="306" y="326"/>
			<point x="335" y="326" type="curve" smooth="yes"/>
			<point x="358" y="326"/>
			<point x="358" y="292"/>
			<point x="333" y="292" type="curve" smooth="yes"/>
			<point x="313" y="292"/>
			<point x="298" y="306"/>
			<point x="282" y="306" type="curve" smooth="yes"/>
			<point x="275" y="306"/>
			<point x="272" y="302"/>
			<point x="272" y="298" type="curve" smooth="yes"/>
			<point x="272" y="273"/>
			<point x="300" y="264"/>
			<point x="323" y="264" type="curve" smooth="yes"/>
			<point x="330" y="264"/>
			<point x="338" y="266"/>
			<point x="344" y="266" type="curve" smooth="yes"/>
			<point x="358" y="267"/>
			<point x="361" y="250"/>
			<point x="351" y="242" type="curve" smooth="yes"/>
			<point x="345" y="238"/>
			<point x="336" y="236"/>
			<point x="323" y="236" type="curve" smooth="yes"/>
			<point x="262" y="236"/>
			<point x="248" y="266"/>
			<point x="182" y="266" type="curve" smooth="yes"/>
			<point x="95" y="266"/>
			<point x="52" y="204"/>
			<point x="51" y="101" type="curve" smooth="yes"/>
			<point x="51" y="-23"/>
			<point x="135" y="-117"/>
			<point x="264" y="-117" type="curve" smooth="yes"/>
			<point x="302" y="-117"/>
			<point x="336" y="-112"/>
			<point x="361" y="-104" type="curve" smooth="yes"/>
			<point x="387" y="-97"/>
			<point x="396" y="-127"/>
			<point x="368" y="-136" type="curve" smooth="yes"/>
			<point x="348" y="-142"/>
			<point x="304" y="-149"/>
			<point x="264" y="-149" type="curve" smooth="yes"/>
			<point x="108" y="-149"/>
			<point x="18" y="-30"/>
			<point x="17" y="101" type="curve" smooth="yes"/>
			<point x="15" y="220"/>
			<point x="75" y="298"/>
		</contour>
	</outline>
</glyph>
<glyph name="sinUu" format="2">
	<advance width="618"/>
	<unicode hex="0D8C"/>
	<outline>
		<contour>
			<point x="451" y="-271"/>
			<point x="530" y="-247"/>
			<point x="576" y="-219" type="curve" smooth="yes"/>
			<point x="590" y="-210"/>
			<point x="596" y="-202"/>
			<point x="596" y="-194" type="curve" smooth="yes"/>
			<point x="596" y="-192"/>
			<point x="595" y="-189"/>
			<point x="594" y="-187" type="curve" smooth="yes"/>
			<point x="592" y="-182"/>
			<point x="585" y="-177"/>
			<point x="576" y="-177" type="curve" smooth="yes"/>
			<point x="570" y="-177"/>
			<point x="564" y="-179"/>
			<point x="558" y="-183" type="curve" smooth="yes"/>
			<point x="505" y="-215"/>
			<point x="449" y="-235"/>
			<point x="378" y="-235" type="curve" smooth="yes"/>
			<point x="194" y="-235"/>
			<point x="58" y="-101"/>
			<point x="58" y="72" type="curve" smooth="yes"/>
			<point x="58" y="237"/>
			<point x="154" y="372"/>
			<point x="312" y="372" type="curve" smooth="yes"/>
			<point x="443" y="372"/>
			<point x="486" y="272"/>
			<point x="555" y="272" type="curve" smooth="yes"/>
			<point x="566" y="272"/>
			<point x="571" y="281"/>
			<point x="571" y="290" type="curve" smooth="yes"/>
			<point x="571" y="298"/>
			<point x="566" y="307"/>
			<point x="557" y="307" type="curve" smooth="yes"/>
			<point x="540" y="307"/>
			<point x="513" y="320"/>
			<point x="501" y="340" type="curve" smooth="yes"/>
			<point x="499" y="345"/>
			<point x="497" y="350"/>
			<point x="497" y="354" type="curve" smooth="yes"/>
			<point x="497" y="362"/>
			<point x="501" y="368"/>
			<point x="508" y="368" type="curve" smooth="yes"/>
			<point x="511" y="368"/>
			<point x="514" y="367"/>
			<point x="517" y="365" type="curve" smooth="yes"/>
			<point x="527" y="359"/>
			<point x="540" y="346"/>
			<point x="559" y="346" type="curve" smooth="yes"/>
			<point x="569" y="346"/>
			<point x="574" y="354"/>
			<point x="574" y="363" type="curve" smooth="yes"/>
			<point x="574" y="374"/>
			<point x="567" y="385"/>
			<point x="557" y="385" type="curve" smooth="yes"/>
			<point x="536" y="385"/>
			<point x="523" y="408"/>
			<point x="500" y="408" type="curve" smooth="yes"/>
			<point x="482" y="408"/>
			<point x="463" y="390"/>
			<point x="463" y="368" type="curve" smooth="yes"/>
			<point x="463" y="364"/>
			<point x="464" y="359"/>
			<point x="465" y="355" type="curve"/>
			<point x="447" y="367"/>
			<point x="387" y="408"/>
			<point x="312" y="408" type="curve" smooth="yes"/>
			<point x="130" y="408"/>
			<point x="22" y="247"/>
			<point x="22" y="72" type="curve" smooth="yes"/>
			<point x="22" y="-112"/>
			<point x="157" y="-271"/>
			<point x="378" y="-271" type="curve" smooth="yes"/>
		</contour>
	</outline>
</glyph>
<glyph name="sinvocalicR" format="2">
	<unicode hex="0D8D"/>
	<advance width="698"/>
	<outline>
		<contour>
			<point x="252" y="64" type="curve"/>
			<point x="238" y="25"/>
			<point x="195" y="-3"/>
			<point x="142" y="-3" type="curve" smooth="yes"/>
			<point x="75" y="-3"/>
			<point x="17" y="41"/>
			<point x="17" y="127" type="curve" smooth="yes"/>
			<point x="17" y="204"/>
			<point x="61" y="257"/>
			<point x="131" y="257" type="curve"/>
			<point x="122" y="264"/>
			<point x="114" y="277"/>
			<point x="114" y="293" type="curve" smooth="yes"/>
			<point x="114" y="313"/>
			<point x="130" y="332"/>
			<point x="161" y="332" type="curve" smooth="yes"/>
			<point x="193" y="332"/>
			<point x="202" y="313"/>
			<point x="222" y="313" type="curve" smooth="yes"/>
			<point x="241" y="313"/>
			<point x="242" y="285"/>
			<point x="222" y="285" type="curve" smooth="yes"/>
			<point x="195" y="285"/>
			<point x="187" y="306"/>
			<point x="162" y="306" type="curve" smooth="yes"/>
			<point x="152" y="306"/>
			<point x="142" y="299"/>
			<point x="142" y="289" type="curve" smooth="yes"/>
			<point x="142" y="264"/>
			<point x="167" y="261"/>
			<point x="190" y="252" type="curve" smooth="yes"/>
			<point x="212" y="244"/>
			<point x="203" y="217"/>
			<point x="181" y="225" type="curve" smooth="yes"/>
			<point x="167" y="230"/>
			<point x="158" y="231"/>
			<point x="136" y="231" type="curve" smooth="yes"/>
			<point x="82" y="231"/>
			<point x="46" y="186"/>
			<point x="46" y="127" type="curve" smooth="yes"/>
			<point x="46" y="63"/>
			<point x="91" y="27"/>
			<point x="142" y="27" type="curve" smooth="yes"/>
			<point x="203" y="27"/>
			<point x="238" y="67"/>
			<point x="238" y="127" type="curve" smooth="yes"/>
			<point x="238" y="151"/>
			<point x="267" y="151"/>
			<point x="267" y="127" type="curve" smooth="yes"/>
			<point x="267" y="67"/>
			<point x="301" y="27"/>
			<point x="362" y="27" type="curve" smooth="yes"/>
			<point x="414" y="27"/>
			<point x="460" y="64"/>
			<point x="460" y="128" type="curve" smooth="yes"/>
			<point x="460" y="187"/>
			<point x="423" y="233"/>
			<point x="368" y="233" type="curve" smooth="yes"/>
			<point x="343" y="233"/>
			<point x="338" y="227"/>
			<point x="320" y="224" type="curve" smooth="yes"/>
			<point x="298" y="221"/>
			<point x="295" y="249"/>
			<point x="317" y="254" type="curve" smooth="yes"/>
			<point x="344" y="260"/>
			<point x="359" y="257"/>
			<point x="359" y="288" type="curve" smooth="yes"/>
			<point x="359" y="293"/>
			<point x="358" y="300"/>
			<point x="355" y="308" type="curve" smooth="yes"/>
			<point x="347" y="329"/>
			<point x="375" y="336"/>
			<point x="383" y="315" type="curve" smooth="yes"/>
			<point x="386" y="307"/>
			<point x="388" y="298"/>
			<point x="388" y="288" type="curve" smooth="yes"/>
			<point x="388" y="277"/>
			<point x="385" y="265"/>
			<point x="378" y="258" type="curve"/>
			<point x="449" y="258"/>
			<point x="490" y="197"/>
			<point x="490" y="128" type="curve" smooth="yes"/>
			<point x="490" y="43"/>
			<point x="429" y="-3"/>
			<point x="362" y="-3" type="curve" smooth="yes"/>
			<point x="314" y="-3"/>
			<point x="263" y="23"/>
		</contour>
		<component base="sinMatraR" xOffset="479"/>
	</outline>
</glyph>
<glyph name="sinvocalicRr" format="2">
	<unicode hex="0D8E"/>
	<advance height="1703" width="1703"/>
	<outline>
		<contour>
			<point x="440" y="103" type="curve"/>
			<point x="458" y="39"/>
			<point x="539" y="-5"/>
			<point x="618" y="-5" type="curve" smooth="yes"/>
			<point x="726" y="-5"/>
			<point x="821" y="68"/>
			<point x="821" y="206" type="curve" smooth="yes"/>
			<point x="821" y="309"/>
			<point x="760" y="418"/>
			<point x="655" y="418" type="curve" smooth="yes"/>
			<point x="643" y="418" type="line"/>
			<point x="655" y="429"/>
			<point x="660" y="448"/>
			<point x="660" y="466" type="curve" smooth="yes"/>
			<point x="660" y="482"/>
			<point x="657" y="498"/>
			<point x="651" y="511" type="curve" smooth="yes"/>
			<point x="647" y="519"/>
			<point x="643" y="526"/>
			<point x="627" y="526" type="curve" smooth="yes"/>
			<point x="614" y="526"/>
			<point x="605" y="517"/>
			<point x="605" y="506" type="curve" smooth="yes"/>
			<point x="605" y="503"/>
			<point x="605" y="502"/>
			<point x="606" y="499" type="curve" smooth="yes"/>
			<point x="611" y="486"/>
			<point x="612" y="476"/>
			<point x="612" y="466" type="curve" smooth="yes"/>
			<point x="612" y="448"/>
			<point x="603" y="436"/>
			<point x="593" y="429" type="curve" smooth="yes"/>
			<point x="582" y="423"/>
			<point x="562" y="417"/>
			<point x="541" y="412" type="curve" smooth="yes"/>
			<point x="521" y="408"/>
			<point x="513" y="397"/>
			<point x="516" y="380" type="curve" smooth="yes"/>
			<point x="519" y="367"/>
			<point x="531" y="362"/>
			<point x="546" y="364" type="curve" smooth="yes"/>
			<point x="575" y="368"/>
			<point x="586" y="377"/>
			<point x="627" y="377" type="curve" smooth="yes"/>
			<point x="717" y="377"/>
			<point x="773" y="302"/>
			<point x="773" y="206" type="curve" smooth="yes"/>
			<point x="773" y="102"/>
			<point x="701" y="43"/>
			<point x="618" y="43" type="curve" smooth="yes"/>
			<point x="519" y="43"/>
			<point x="463" y="109"/>
			<point x="463" y="206" type="curve" smooth="yes"/>
			<point x="463" y="222"/>
			<point x="459" y="237"/>
			<point x="440" y="237" type="curve" smooth="yes"/>
			<point x="421" y="237"/>
			<point x="416" y="222"/>
			<point x="416" y="206" type="curve" smooth="yes"/>
			<point x="416" y="109"/>
			<point x="360" y="43"/>
			<point x="261" y="43" type="curve" smooth="yes"/>
			<point x="178" y="43"/>
			<point x="106" y="102"/>
			<point x="106" y="206" type="curve" smooth="yes"/>
			<point x="106" y="302"/>
			<point x="164" y="375"/>
			<point x="252" y="375" type="curve" smooth="yes"/>
			<point x="287" y="375"/>
			<point x="310" y="371"/>
			<point x="333" y="363" type="curve" smooth="yes"/>
			<point x="345" y="359"/>
			<point x="357" y="366"/>
			<point x="361" y="378" type="curve" smooth="yes"/>
			<point x="366" y="392"/>
			<point x="356" y="403"/>
			<point x="338" y="410" type="curve" smooth="yes"/>
			<point x="281" y="431"/>
			<point x="261" y="443"/>
			<point x="261" y="468" type="curve" smooth="yes"/>
			<point x="261" y="484"/>
			<point x="277" y="495"/>
			<point x="294" y="495" type="curve" smooth="yes"/>
			<point x="297" y="495"/>
			<point x="301" y="494"/>
			<point x="304" y="493" type="curve" smooth="yes"/>
			<point x="337" y="487"/>
			<point x="351" y="462"/>
			<point x="391" y="462" type="curve" smooth="yes"/>
			<point x="405" y="462"/>
			<point x="413" y="473"/>
			<point x="413" y="485" type="curve" smooth="yes"/>
			<point x="413" y="497"/>
			<point x="403" y="507"/>
			<point x="391" y="507" type="curve" smooth="yes"/>
			<point x="358" y="507"/>
			<point x="343" y="538"/>
			<point x="292" y="538" type="curve" smooth="yes"/>
			<point x="242" y="538"/>
			<point x="215" y="507"/>
			<point x="215" y="474" type="curve" smooth="yes"/>
			<point x="215" y="447"/>
			<point x="228" y="427"/>
			<point x="243" y="416" type="curve"/>
			<point x="230" y="416" type="line" smooth="yes"/>
			<point x="127" y="416"/>
			<point x="58" y="321"/>
			<point x="58" y="206" type="curve" smooth="yes"/>
			<point x="58" y="68"/>
			<point x="153" y="-5"/>
			<point x="261" y="-5" type="curve" smooth="yes"/>
			<point x="347" y="-5"/>
			<point x="417" y="40"/>
		</contour>
		<component base="sinMatraRr" xOffset="804"/>
	</outline>
</glyph>
<glyph name="sinvocalicL" format="1">
	<unicode hex="0D8F"/>
	<advance width="734"/>
	<outline>
		<contour>
			<point x="500" y="-9"/>
			<point x="602" y="60"/>
			<point x="602" y="176" type="curve" smooth="yes"/>
			<point x="602" y="245"/>
			<point x="564" y="312"/>
			<point x="497" y="312" type="curve"/>
			<point x="520" y="327"/>
			<point x="527" y="371"/>
			<point x="577" y="371" type="curve" smooth="yes"/>
			<point x="643" y="371"/>
			<point x="676" y="278"/>
			<point x="676" y="190" type="curve" smooth="yes"/>
			<point x="676" y="111"/>
			<point x="657" y="53"/>
			<point x="630" y="39" type="curve"/>
			<point x="630" y="42" type="line"/>
			<point x="630" y="59"/>
			<point x="617" y="64"/>
			<point x="606" y="64" type="curve" smooth="yes"/>
			<point x="591" y="64"/>
			<point x="578" y="55"/>
			<point x="578" y="35" type="curve" smooth="yes"/>
			<point x="578" y="14"/>
			<point x="597" y="0"/>
			<point x="618" y="0" type="curve" smooth="yes"/>
			<point x="663" y="0"/>
			<point x="712" y="56"/>
			<point x="712" y="190" type="curve" smooth="yes"/>
			<point x="712" y="304"/>
			<point x="666" y="404"/>
			<point x="577" y="404" type="curve" smooth="yes"/>
			<point x="551" y="404"/>
			<point x="519" y="384"/>
			<point x="506" y="367" type="curve"/>
			<point x="504" y="382"/>
			<point x="500" y="395"/>
			<point x="483" y="395" type="curve" smooth="yes"/>
			<point x="474" y="395"/>
			<point x="467" y="387"/>
			<point x="467" y="379" type="curve" smooth="yes"/>
			<point x="467" y="378"/>
			<point x="467" y="376"/>
			<point x="468" y="374" type="curve"/>
			<point x="472" y="365"/>
			<point x="473" y="356"/>
			<point x="473" y="350" type="curve" smooth="yes"/>
			<point x="473" y="335"/>
			<point x="465" y="327"/>
			<point x="458" y="321" type="curve" smooth="yes"/>
			<point x="446" y="314"/>
			<point x="440" y="312"/>
			<point x="429" y="308" type="curve" smooth="yes"/>
			<point x="424" y="306"/>
			<point x="418" y="298"/>
			<point x="418" y="291" type="curve" smooth="yes"/>
			<point x="418" y="289"/>
			<point x="419" y="288"/>
			<point x="419" y="287" type="curve"/>
			<point x="421" y="278"/>
			<point x="428" y="273"/>
			<point x="436" y="273" type="curve" smooth="yes"/>
			<point x="438" y="273"/>
			<point x="441" y="273"/>
			<point x="443" y="274" type="curve" smooth="yes"/>
			<point x="456" y="276"/>
			<point x="470" y="280"/>
			<point x="484" y="280" type="curve" smooth="yes"/>
			<point x="489" y="280" type="line"/>
			<point x="539" y="277"/>
			<point x="566" y="233"/>
			<point x="566" y="176" type="curve" smooth="yes"/>
			<point x="566" y="80"/>
			<point x="479" y="27"/>
			<point x="367" y="27" type="curve" smooth="yes"/>
			<point x="255" y="27"/>
			<point x="167" y="80"/>
			<point x="167" y="176" type="curve" smooth="yes"/>
			<point x="167" y="233"/>
			<point x="194" y="277"/>
			<point x="245" y="280" type="curve"/>
			<point x="249" y="280" type="line" smooth="yes"/>
			<point x="264" y="280"/>
			<point x="277" y="276"/>
			<point x="291" y="274" type="curve"/>
			<point x="293" y="273"/>
			<point x="295" y="273"/>
			<point x="297" y="273" type="curve" smooth="yes"/>
			<point x="306" y="273"/>
			<point x="312" y="278"/>
			<point x="315" y="287" type="curve" smooth="yes"/>
			<point x="315" y="288"/>
			<point x="315" y="290"/>
			<point x="315" y="291" type="curve" smooth="yes"/>
			<point x="315" y="300"/>
			<point x="308" y="307"/>
			<point x="294" y="312" type="curve" smooth="yes"/>
			<point x="265" y="323"/>
			<point x="251" y="333"/>
			<point x="251" y="351" type="curve" smooth="yes"/>
			<point x="251" y="363"/>
			<point x="262" y="371"/>
			<point x="275" y="371" type="curve" smooth="yes"/>
			<point x="278" y="371"/>
			<point x="280" y="370"/>
			<point x="282" y="370" type="curve" smooth="yes"/>
			<point x="307" y="365"/>
			<point x="317" y="339"/>
			<point x="350" y="339" type="curve" smooth="yes"/>
			<point x="360" y="339"/>
			<point x="365" y="347"/>
			<point x="365" y="356" type="curve" smooth="yes"/>
			<point x="365" y="364"/>
			<point x="360" y="373"/>
			<point x="350" y="373" type="curve" smooth="yes"/>
			<point x="325" y="373"/>
			<point x="312" y="404"/>
			<point x="274" y="404" type="curve" smooth="yes"/>
			<point x="249" y="404"/>
			<point x="231" y="391"/>
			<point x="223" y="374" type="curve"/>
			<point x="210" y="387"/>
			<point x="181" y="404"/>
			<point x="156" y="404" type="curve" smooth="yes"/>
			<point x="68" y="404"/>
			<point x="22" y="304"/>
			<point x="22" y="190" type="curve" smooth="yes"/>
			<point x="22" y="56"/>
			<point x="71" y="0"/>
			<point x="116" y="0" type="curve" smooth="yes"/>
			<point x="137" y="0"/>
			<point x="156" y="14"/>
			<point x="156" y="35" type="curve" smooth="yes"/>
			<point x="156" y="55"/>
			<point x="142" y="64"/>
			<point x="128" y="64" type="curve" smooth="yes"/>
			<point x="117" y="64"/>
			<point x="103" y="59"/>
			<point x="103" y="42" type="curve"/>
			<point x="103" y="39" type="line"/>
			<point x="76" y="53"/>
			<point x="58" y="111"/>
			<point x="58" y="190" type="curve" smooth="yes"/>
			<point x="58" y="278"/>
			<point x="91" y="371"/>
			<point x="156" y="371" type="curve" smooth="yes"/>
			<point x="180" y="371"/>
			<point x="206" y="359"/>
			<point x="221" y="333" type="curve" smooth="yes"/>
			<point x="225" y="326"/>
			<point x="230" y="318"/>
			<point x="238" y="312" type="curve"/>
			<point x="237" y="312" type="line" smooth="yes"/>
			<point x="169" y="312"/>
			<point x="131" y="245"/>
			<point x="131" y="176" type="curve" smooth="yes"/>
			<point x="131" y="60"/>
			<point x="234" y="-9"/>
			<point x="367" y="-9" type="curve" smooth="yes"/>
		</contour>
	</outline>
</glyph>
<glyph name="sinvocalicLL" format="2">
	<advance width="986"/>
	<unicode hex="0D90"/>
	<outline>
		<contour>
			<point x="500" y="-9"/>
			<point x="602" y="60"/>
			<point x="602" y="176" type="curve" smooth="yes"/>
			<point x="602" y="245"/>
			<point x="564" y="312"/>
			<point x="497" y="312" type="curve"/>
			<point x="520" y="327"/>
			<point x="527" y="371"/>
			<point x="577" y="371" type="curve" smooth="yes"/>
			<point x="643" y="371"/>
			<point x="676" y="278"/>
			<point x="676" y="190" type="curve" smooth="yes"/>
			<point x="676" y="111"/>
			<point x="657" y="53"/>
			<point x="630" y="39" type="curve"/>
			<point x="630" y="42" type="line"/>
			<point x="630" y="59"/>
			<point x="617" y="64"/>
			<point x="606" y="64" type="curve" smooth="yes"/>
			<point x="591" y="64"/>
			<point x="578" y="55"/>
			<point x="578" y="35" type="curve" smooth="yes"/>
			<point x="578" y="14"/>
			<point x="597" y="0"/>
			<point x="618" y="0" type="curve" smooth="yes"/>
			<point x="663" y="0"/>
			<point x="712" y="56"/>
			<point x="712" y="190" type="curve" smooth="yes"/>
			<point x="712" y="304"/>
			<point x="666" y="404"/>
			<point x="577" y="404" type="curve" smooth="yes"/>
			<point x="551" y="404"/>
			<point x="519" y="384"/>
			<point x="506" y="367" type="curve"/>
			<point x="504" y="382"/>
			<point x="500" y="395"/>
			<point x="483" y="395" type="curve" smooth="yes"/>
			<point x="474" y="395"/>
			<point x="467" y="387"/>
			<point x="467" y="379" type="curve" smooth="yes"/>
			<point x="467" y="378"/>
			<point x="467" y="376"/>
			<point x="468" y="374" type="curve"/>
			<point x="472" y="365"/>
			<point x="473" y="356"/>
			<point x="473" y="350" type="curve" smooth="yes"/>
			<point x="473" y="335"/>
			<point x="465" y="327"/>
			<point x="458" y="321" type="curve" smooth="yes"/>
			<point x="446" y="314"/>
			<point x="440" y="312"/>
			<point x="429" y="308" type="curve" smooth="yes"/>
			<point x="424" y="306"/>
			<point x="418" y="298"/>
			<point x="418" y="291" type="curve" smooth="yes"/>
			<point x="418" y="289"/>
			<point x="419" y="288"/>
			<point x="419" y="287" type="curve"/>
			<point x="421" y="278"/>
			<point x="428" y="273"/>
			<point x="436" y="273" type="curve" smooth="yes"/>
			<point x="438" y="273"/>
			<point x="441" y="273"/>
			<point x="443" y="274" type="curve" smooth="yes"/>
			<point x="456" y="276"/>
			<point x="470" y="280"/>
			<point x="484" y="280" type="curve" smooth="yes"/>
			<point x="489" y="280" type="line"/>
			<point x="539" y="277"/>
			<point x="566" y="233"/>
			<point x="566" y="176" type="curve" smooth="yes"/>
			<point x="566" y="80"/>
			<point x="479" y="27"/>
			<point x="367" y="27" type="curve" smooth="yes"/>
			<point x="255" y="27"/>
			<point x="167" y="80"/>
			<point x="167" y="176" type="curve" smooth="yes"/>
			<point x="167" y="233"/>
			<point x="194" y="277"/>
			<point x="245" y="280" type="curve"/>
			<point x="249" y="280" type="line" smooth="yes"/>
			<point x="264" y="280"/>
			<point x="277" y="276"/>
			<point x="291" y="274" type="curve"/>
			<point x="293" y="273"/>
			<point x="295" y="273"/>
			<point x="297" y="273" type="curve" smooth="yes"/>
			<point x="306" y="273"/>
			<point x="312" y="278"/>
			<point x="315" y="287" type="curve" smooth="yes"/>
			<point x="315" y="288"/>
			<point x="315" y="290"/>
			<point x="315" y="291" type="curve" smooth="yes"/>
			<point x="315" y="300"/>
			<point x="308" y="307"/>
			<point x="294" y="312" type="curve" smooth="yes"/>
			<point x="265" y="323"/>
			<point x="251" y="333"/>
			<point x="251" y="351" type="curve" smooth="yes"/>
			<point x="251" y="363"/>
			<point x="262" y="371"/>
			<point x="275" y="371" type="curve" smooth="yes"/>
			<point x="278" y="371"/>
			<point x="280" y="370"/>
			<point x="282" y="370" type="curve" smooth="yes"/>
			<point x="307" y="365"/>
			<point x="317" y="339"/>
			<point x="350" y="339" type="curve" smooth="yes"/>
			<point x="360" y="339"/>
			<point x="365" y="347"/>
			<point x="365" y="356" type="curve" smooth="yes"/>
			<point x="365" y="364"/>
			<point x="360" y="373"/>
			<point x="350" y="373" type="curve" smooth="yes"/>
			<point x="325" y="373"/>
			<point x="312" y="404"/>
			<point x="274" y="404" type="curve" smooth="yes"/>
			<point x="249" y="404"/>
			<point x="231" y="391"/>
			<point x="223" y="374" type="curve"/>
			<point x="210" y="387"/>
			<point x="181" y="404"/>
			<point x="156" y="404" type="curve" smooth="yes"/>
			<point x="68" y="404"/>
			<point x="22" y="304"/>
			<point x="22" y="190" type="curve" smooth="yes"/>
			<point x="22" y="56"/>
			<point x="71" y="0"/>
			<point x="116" y="0" type="curve" smooth="yes"/>
			<point x="137" y="0"/>
			<point x="156" y="14"/>
			<point x="156" y="35" type="curve" smooth="yes"/>
			<point x="156" y="55"/>
			<point x="142" y="64"/>
			<point x="128" y="64" type="curve" smooth="yes"/>
			<point x="117" y="64"/>
			<point x="103" y="59"/>
			<point x="103" y="42" type="curve"/>
			<point x="103" y="39" type="line"/>
			<point x="76" y="53"/>
			<point x="58" y="111"/>
			<point x="58" y="190" type="curve" smooth="yes"/>
			<point x="58" y="278"/>
			<point x="91" y="371"/>
			<point x="156" y="371" type="curve" smooth="yes"/>
			<point x="180" y="371"/>
			<point x="206" y="359"/>
			<point x="221" y="333" type="curve" smooth="yes"/>
			<point x="225" y="326"/>
			<point x="230" y="318"/>
			<point x="238" y="312" type="curve"/>
			<point x="237" y="312" type="line" smooth="yes"/>
			<point x="169" y="312"/>
			<point x="131" y="245"/>
			<point x="131" y="176" type="curve" smooth="yes"/>
			<point x="131" y="60"/>
			<point x="234" y="-9"/>
			<point x="367" y="-9" type="curve" smooth="yes"/>
		</contour>
		<contour>
			<point x="934" y="0"/>
			<point x="964" y="57"/>
			<point x="964" y="130" type="curve" smooth="yes"/>
			<point x="964" y="186"/>
			<point x="941" y="251"/>
			<point x="888" y="251" type="curve" smooth="yes"/>
			<point x="841" y="251"/>
			<point x="844" y="203"/>
			<point x="819" y="203" type="curve" smooth="yes"/>
			<point x="804" y="203"/>
			<point x="789" y="237"/>
			<point x="789" y="283" type="curve" smooth="yes"/>
			<point x="789" y="337"/>
			<point x="805" y="360"/>
			<point x="836" y="360" type="curve" smooth="yes"/>
			<point x="858" y="360"/>
			<point x="876" y="344"/>
			<point x="876" y="319" type="curve" smooth="yes"/>
			<point x="876" y="315"/>
			<point x="876" y="312"/>
			<point x="876" y="309" type="curve" smooth="yes"/>
			<point x="876" y="300"/>
			<point x="884" y="296"/>
			<point x="892" y="296" type="curve" smooth="yes"/>
			<point x="901" y="296"/>
			<point x="910" y="301"/>
			<point x="911" y="311" type="curve" smooth="yes"/>
			<point x="912" y="315"/>
			<point x="912" y="318"/>
			<point x="912" y="321" type="curve" smooth="yes"/>
			<point x="912" y="367"/>
			<point x="875" y="395"/>
			<point x="836" y="395" type="curve" smooth="yes"/>
			<point x="795" y="395"/>
			<point x="756" y="363"/>
			<point x="756" y="282" type="curve" smooth="yes"/>
			<point x="756" y="221"/>
			<point x="779" y="171"/>
			<point x="819" y="171" type="curve" smooth="yes"/>
			<point x="860" y="171"/>
			<point x="868" y="218"/>
			<point x="888" y="218" type="curve" smooth="yes"/>
			<point x="921" y="218"/>
			<point x="928" y="165"/>
			<point x="928" y="130" type="curve" smooth="yes"/>
			<point x="928" y="76"/>
			<point x="911" y="36"/>
			<point x="864" y="36" type="curve" smooth="yes"/>
			<point x="838" y="36"/>
			<point x="811" y="52"/>
			<point x="811" y="87" type="curve" smooth="yes"/>
			<point x="811" y="100"/>
			<point x="801" y="107"/>
			<point x="792" y="107" type="curve" smooth="yes"/>
			<point x="783" y="107"/>
			<point x="775" y="100"/>
			<point x="775" y="87" type="curve" smooth="yes"/>
			<point x="775" y="41"/>
			<point x="803" y="0"/>
			<point x="864" y="0" type="curve" smooth="yes"/>
		</contour>
	</outline>
</glyph>
